<?xml version="1.0" encoding="UTF-8" standalone="no"?>
<!DOCTYPE svg PUBLIC "-//W3C//DTD SVG 1.1//EN" "http://www.w3.org/Graphics/SVG/1.1/DTD/svg11.dtd">
<svg width="100%" height="100%" viewBox="0 0 494 618" version="1.1" xmlns="http://www.w3.org/2000/svg" xmlns:xlink="http://www.w3.org/1999/xlink" xml:space="preserve" xmlns:serif="http://www.serif.com/" style="fill-rule:evenodd;clip-rule:evenodd;stroke-linejoin:round;stroke-miterlimit:2;">
    <g transform="matrix(1,0,0,1,-2198.05,-367.831)">
        <g transform="matrix(1,0,0,1,3160.67,-975.864)">
            <g id="bear">
                <g transform="matrix(0.17472,0.111382,-0.111382,0.17472,-729.479,648.668)">
                    <ellipse cx="3554.11" cy="3617.91" rx="212.665" ry="190.02" style="fill:rgb(173,111,111);"/>
                </g>
                <g transform="matrix(0.207065,-0.00756927,0.00756927,0.207065,-1528.93,663.175)">
                    <ellipse cx="3554.11" cy="3617.91" rx="212.665" ry="190.02" style="fill:rgb(173,111,111);"/>
                </g>
                <g transform="matrix(0.15911,-0.620673,-0.878768,-0.225273,-686.814,3479.73)">
                    <path d="M2628.39,532.993C2528.67,554.709 2441.07,635.359 2412.72,670.956C2374.14,719.409 2399.14,768.42 2464.72,750.659C2509,738.667 2616.66,684.297 2683.54,605.714C2713.06,571.033 2693.94,518.718 2628.39,532.993Z" style="fill:rgb(192,112,112);"/>
                </g>
                <g transform="matrix(-0.406383,0.175199,-0.254686,-0.590756,381.638,1555.05)">
                    <path d="M2628.39,532.993C2528.67,554.709 2511.66,638.397 2483.31,673.995C2444.72,722.447 2421.04,748.214 2477.78,772.57C2518.15,789.898 2694,732.507 2738.24,646.683C2762.47,599.695 2693.94,518.718 2628.39,532.993Z" style="fill:rgb(173,111,111);"/>
                </g>
                <g transform="matrix(0.841723,0.539909,-0.539909,0.841723,-1727.75,-3263.35)">
                    <ellipse cx="3554.11" cy="3617.91" rx="212.665" ry="190.02" style="fill:rgb(192,112,112);"/>
                    <clipPath id="_clip1">
                        <ellipse cx="3554.11" cy="3617.91" rx="212.665" ry="190.02"/>
                    </clipPath>
                    <g clip-path="url(#_clip1)">
                        <g transform="matrix(0.591555,0.0469722,-0.0384929,0.484769,1573.26,1767.74)">
                            <ellipse cx="3554.11" cy="3617.91" rx="212.665" ry="190.02" style="fill:rgb(194,140,140);"/>
                        </g>
                    </g>
                </g>
                <g transform="matrix(0.15911,-0.620673,-0.878768,-0.225273,-467.751,3606.21)">
                    <path d="M2628.39,532.993C2528.67,554.709 2441.07,635.359 2412.72,670.956C2374.14,719.409 2399.14,768.42 2464.72,750.659C2509,738.667 2616.66,684.297 2683.54,605.714C2713.06,571.033 2693.94,518.718 2628.39,532.993Z" style="fill:rgb(192,112,112);"/>
                </g>
                <g transform="matrix(-0.345776,-0.27619,-0.401495,0.502652,611.471,2135.25)">
                    <path d="M2628.39,532.993C2528.67,554.709 2441.07,635.359 2412.72,670.956C2374.14,719.409 2443.84,807.316 2509.41,789.555C2553.69,777.563 2661.36,723.193 2728.24,644.61C2757.75,609.929 2693.94,518.718 2628.39,532.993Z" style="fill:rgb(173,111,111);"/>
                </g>
                <g transform="matrix(0.656341,0.303759,-0.303759,0.656341,-1913.15,-1946.97)">
                    <ellipse cx="3554.11" cy="3617.91" rx="212.665" ry="190.02" style="fill:rgb(163,97,97);"/>
                </g>
                <g transform="matrix(0.14634,0.146689,-0.146689,0.14634,-537.244,430.226)">
                    <ellipse cx="3554.11" cy="3617.91" rx="212.665" ry="190.02" style="fill:rgb(173,111,111);"/>
                </g>
                <g transform="matrix(0.19847,0.0595226,-0.0532066,0.17741,-1156.62,526.308)">
                    <ellipse cx="3554.11" cy="3617.91" rx="212.665" ry="190.02" style="fill:rgb(173,111,111);"/>
                </g>
                <g transform="matrix(0.318991,0.191912,-0.163719,0.272128,-1265.96,-115.78)">
                    <ellipse cx="3554.11" cy="3617.91" rx="212.665" ry="190.02" style="fill:rgb(194,140,140);"/>
                </g>
                <g transform="matrix(0.44123,0,0,0.44123,-1634.34,767.974)">
                    <g transform="matrix(-0.546131,-0.189864,-0.199583,0.538777,3103.59,321.495)">
                        <circle cx="1116.55" cy="2739.59" r="89.777" style="fill:rgb(251,200,253);"/>
                        <clipPath id="_clip2">
                            <circle cx="1116.55" cy="2739.59" r="89.777"/>
                        </clipPath>
                        <g clip-path="url(#_clip2)">
                            <g transform="matrix(-0.73533,-0.136553,-0.48289,0.564989,3254.9,1397.55)">
                                <ellipse cx="1077.21" cy="2733.44" rx="33.632" ry="55.061" style="fill:rgb(80,138,136);"/>
                            </g>
                        </g>
                    </g>
                    <g transform="matrix(0.61883,-0.313471,0.315859,0.623546,-142.607,2064.58)">
                        <ellipse cx="2942.61" cy="755.947" rx="7.415" ry="10.875" style="fill:url(#_Linear3);"/>
                    </g>
                    <g transform="matrix(0.539254,-0.160444,0.166154,0.558447,283.292,1921.63)">
                        <ellipse cx="2930.96" cy="283.067" rx="4.623" ry="4.24" style="fill:rgb(249,253,255);fill-opacity:0.75;"/>
                    </g>
                </g>
                <g transform="matrix(0.44123,0,0,0.44123,-1504.18,821.492)">
                    <g transform="matrix(-0.546131,-0.189864,-0.199583,0.538777,3103.59,321.495)">
                        <circle cx="1116.55" cy="2739.59" r="89.777" style="fill:rgb(251,200,253);"/>
                        <clipPath id="_clip4">
                            <circle cx="1116.55" cy="2739.59" r="89.777"/>
                        </clipPath>
                        <g clip-path="url(#_clip4)">
                            <g transform="matrix(-0.73533,-0.136553,-0.48289,0.564989,3254.9,1397.55)">
                                <ellipse cx="1077.21" cy="2733.44" rx="33.632" ry="55.061" style="fill:rgb(80,138,136);"/>
                            </g>
                        </g>
                    </g>
                    <g transform="matrix(0.61883,-0.313471,0.315859,0.623546,-142.607,2064.58)">
                        <ellipse cx="2942.61" cy="755.947" rx="7.415" ry="10.875" style="fill:url(#_Linear5);"/>
                    </g>
                    <g transform="matrix(0.539254,-0.160444,0.166154,0.558447,283.292,1921.63)">
                        <ellipse cx="2930.96" cy="283.067" rx="4.623" ry="4.24" style="fill:rgb(249,253,255);fill-opacity:0.75;"/>
                    </g>
                </g>
                <g transform="matrix(0.118366,0.0456415,-0.035111,0.0910565,-1044.26,1059.93)">
                    <ellipse cx="3554.11" cy="3617.91" rx="212.665" ry="190.02" style="fill:rgb(173,111,111);"/>
                </g>
                <g transform="matrix(-0.25754,-0.0132847,-0.0183726,0.356176,21.8224,1299.16)">
                    <path d="M2522.94,605.281C2478.31,614.999 2451.81,629.015 2428.08,653.391C2422.88,658.728 2417.82,664.562 2412.72,670.956C2374.14,719.409 2399.14,768.42 2464.72,750.659C2475.79,747.661 2486.35,744.51 2496.7,740.603C2527.75,728.884 2556.91,710.367 2592.29,668.796C2621.8,634.115 2588.49,591.006 2522.94,605.281Z" style="fill:rgb(192,112,112);"/>
                </g>
                <g transform="matrix(-0.191275,0.172965,0.23921,0.264532,-457.948,835.65)">
                    <path d="M2522.94,605.281C2478.31,614.999 2451.81,629.015 2428.08,653.391C2422.88,658.728 2417.82,664.562 2412.72,670.956C2374.14,719.409 2399.14,768.42 2464.72,750.659C2475.79,747.661 2486.35,744.51 2496.7,740.603C2527.75,728.884 2556.91,710.367 2592.29,668.796C2621.8,634.115 2588.49,591.006 2522.94,605.281Z" style="fill:rgb(192,112,112);"/>
                </g>
            </g>
        </g>
    </g>
    <defs>
        <linearGradient id="_Linear3" x1="0" y1="0" x2="1" y2="-0.139131" gradientUnits="userSpaceOnUse" gradientTransform="matrix(-12.7128,11.6308,-13.5008,-10.952,2942.37,755.961)"><stop offset="0" style="stop-color:rgb(74,89,97);stop-opacity:1"/><stop offset="1" style="stop-color:rgb(74,89,97);stop-opacity:0"/></linearGradient>
        <linearGradient id="_Linear5" x1="0" y1="0" x2="1" y2="-0.139131" gradientUnits="userSpaceOnUse" gradientTransform="matrix(-12.7128,11.6308,-13.5008,-10.952,2942.37,755.961)"><stop offset="0" style="stop-color:rgb(74,89,97);stop-opacity:1"/><stop offset="1" style="stop-color:rgb(74,89,97);stop-opacity:0"/></linearGradient>
    </defs>
</svg>
