<?xml version="1.0" encoding="UTF-8" standalone="no"?>
<!DOCTYPE svg PUBLIC "-//W3C//DTD SVG 1.1//EN" "http://www.w3.org/Graphics/SVG/1.1/DTD/svg11.dtd">
<svg width="100%" height="100%" viewBox="0 0 1202 1142" version="1.1" xmlns="http://www.w3.org/2000/svg" xmlns:xlink="http://www.w3.org/1999/xlink" xml:space="preserve" xmlns:serif="http://www.serif.com/" style="fill-rule:evenodd;clip-rule:evenodd;stroke-linecap:round;stroke-linejoin:round;stroke-miterlimit:1.5;">
    <g transform="matrix(1,0,0,1,-458.697,-104.858)">
        <g transform="matrix(1,0,0,1,-3126.15,-2656.26)">
            <g id="blue-guy" serif:id="blue guy">
                <g transform="matrix(-1.20463,1.53521,1.78682,1.40206,5437.94,-2378.8)">
                    <g id="Crystal" transform="matrix(0.34568,-0.0109865,0.0109865,0.34568,1869.59,895.669)">
                        <g transform="matrix(0.999672,0.0256283,-0.0256283,0.999672,731.408,-154.146)">
                            <path d="M2005.4,174.661L2215.7,358.972L2118.78,1035.72L2005.4,1101.18L1889.9,1035.72L1795.1,358.972L2005.4,174.661Z" style="fill:rgb(42,74,180);fill-opacity:0.93;stroke:rgb(227,227,227);stroke-opacity:0.55;stroke-width:3.2px;"/>
                        </g>
                        <g transform="matrix(0.999672,0.0256283,-0.0256283,0.999672,731.408,-154.146)">
                            <path d="M1795.1,359.058L2005.4,443.401L2215.7,358.494" style="fill:none;stroke:rgb(227,227,227);stroke-opacity:0.55;stroke-width:3.2px;"/>
                        </g>
                        <g transform="matrix(0.999672,0.0256283,-0.0256283,0.999672,731.408,-154.146)">
                            <path d="M2005.4,174.661L2005.4,1101.18" style="fill:none;stroke:rgb(227,227,227);stroke-opacity:0.55;stroke-width:3.2px;"/>
                        </g>
                    </g>
                    <g id="Crystal1" serif:id="Crystal" transform="matrix(-0.21461,0.0681681,0.0866449,0.215961,3214.28,736.379)">
                        <g transform="matrix(0.999672,0.0256283,-0.0256283,0.999672,731.408,-154.146)">
                            <path d="M2005.4,174.661L2215.7,358.972L2118.78,1035.72L2005.4,1101.18L1889.9,1035.72L1795.1,358.972L2005.4,174.661Z" style="fill:rgb(42,74,180);fill-opacity:0.93;stroke:rgb(227,227,227);stroke-opacity:0.55;stroke-width:3.2px;"/>
                        </g>
                        <g transform="matrix(0.999672,0.0256283,-0.0256283,0.999672,731.408,-154.146)">
                            <path d="M1795.1,359.058L2005.4,443.401L2215.7,358.494" style="fill:none;stroke:rgb(227,227,227);stroke-opacity:0.55;stroke-width:3.2px;"/>
                        </g>
                        <g transform="matrix(0.999672,0.0256283,-0.0256283,0.999672,731.408,-154.146)">
                            <path d="M2005.4,174.661L2005.4,1101.18" style="fill:none;stroke:rgb(227,227,227);stroke-opacity:0.55;stroke-width:3.2px;"/>
                        </g>
                    </g>
                    <g id="Crystal2" serif:id="Crystal" transform="matrix(0.256043,0.0247826,-0.0294338,0.304097,2211.81,835.174)">
                        <g transform="matrix(0.999672,0.0256283,-0.0256283,0.999672,731.408,-154.146)">
                            <path d="M2005.4,174.661L2215.7,358.972L2118.78,1035.72L2005.4,1101.18L1889.9,1035.72L1795.1,358.972L2005.4,174.661Z" style="fill:rgb(42,74,180);fill-opacity:0.93;stroke:rgb(227,227,227);stroke-opacity:0.55;stroke-width:3.2px;"/>
                        </g>
                        <g transform="matrix(0.999672,0.0256283,-0.0256283,0.999672,731.408,-154.146)">
                            <path d="M1795.1,359.058L2005.4,443.401L2215.7,358.494" style="fill:none;stroke:rgb(227,227,227);stroke-opacity:0.55;stroke-width:3.2px;"/>
                        </g>
                        <g transform="matrix(0.999672,0.0256283,-0.0256283,0.999672,731.408,-154.146)">
                            <path d="M2005.4,174.661L2005.4,1101.18" style="fill:none;stroke:rgb(227,227,227);stroke-opacity:0.55;stroke-width:3.2px;"/>
                        </g>
                    </g>
                    <g id="Crystal3" serif:id="Crystal" transform="matrix(0.0369694,0.062831,-0.0928256,0.054618,2848.97,994.854)">
                        <g transform="matrix(0.999672,0.0256283,-0.0256283,0.999672,731.408,-154.146)">
                            <path d="M2005.4,174.661L2215.7,358.972L2118.78,1035.72L2005.4,1101.18L1889.9,1035.72L1795.1,358.972L2005.4,174.661Z" style="fill:rgb(42,74,180);fill-opacity:0.93;stroke:rgb(227,227,227);stroke-opacity:0.55;stroke-width:3.2px;"/>
                        </g>
                        <g transform="matrix(0.999672,0.0256283,-0.0256283,0.999672,731.408,-154.146)">
                            <path d="M1795.1,359.058L2005.4,443.401L2215.7,358.494" style="fill:none;stroke:rgb(227,227,227);stroke-opacity:0.55;stroke-width:3.2px;"/>
                        </g>
                        <g transform="matrix(0.999672,0.0256283,-0.0256283,0.999672,731.408,-154.146)">
                            <path d="M2005.4,174.661L2005.4,1101.18" style="fill:none;stroke:rgb(227,227,227);stroke-opacity:0.55;stroke-width:3.2px;"/>
                        </g>
                    </g>
                    <g id="Crystal4" serif:id="Crystal" transform="matrix(0.123828,0.0751185,-0.0749587,0.123564,2604.9,885.488)">
                        <g transform="matrix(0.999672,0.0256283,-0.0256283,0.999672,731.408,-154.146)">
                            <path d="M2005.4,174.661L2215.7,358.972L2118.78,1035.72L2005.4,1101.18L1889.9,1035.72L1795.1,358.972L2005.4,174.661Z" style="fill:rgb(42,74,180);fill-opacity:0.93;stroke:rgb(227,227,227);stroke-opacity:0.55;stroke-width:3.2px;"/>
                        </g>
                        <g transform="matrix(0.999672,0.0256283,-0.0256283,0.999672,731.408,-154.146)">
                            <path d="M1795.1,359.058L2005.4,443.401L2215.7,358.494" style="fill:none;stroke:rgb(227,227,227);stroke-opacity:0.55;stroke-width:3.2px;"/>
                        </g>
                        <g transform="matrix(0.999672,0.0256283,-0.0256283,0.999672,731.408,-154.146)">
                            <path d="M2005.4,174.661L2005.4,1101.18" style="fill:none;stroke:rgb(227,227,227);stroke-opacity:0.55;stroke-width:3.2px;"/>
                        </g>
                    </g>
                    <g id="Crystal5" serif:id="Crystal" transform="matrix(0.0618718,0.0361284,-0.0306543,0.0524971,2742.8,1070.28)">
                        <g transform="matrix(0.999672,0.0256283,-0.0256283,0.999672,731.408,-154.146)">
                            <path d="M2005.4,174.661L2215.7,358.972L2118.78,1035.72L2005.4,1101.18L1889.9,1035.72L1795.1,358.972L2005.4,174.661Z" style="fill:rgb(42,74,180);fill-opacity:0.93;stroke:rgb(227,227,227);stroke-opacity:0.55;stroke-width:3.2px;"/>
                        </g>
                        <g transform="matrix(0.999672,0.0256283,-0.0256283,0.999672,731.408,-154.146)">
                            <path d="M1795.1,359.058L2005.4,443.401L2215.7,358.494" style="fill:none;stroke:rgb(227,227,227);stroke-opacity:0.55;stroke-width:3.2px;"/>
                        </g>
                        <g transform="matrix(0.999672,0.0256283,-0.0256283,0.999672,731.408,-154.146)">
                            <path d="M2005.4,174.661L2005.4,1101.18" style="fill:none;stroke:rgb(227,227,227);stroke-opacity:0.55;stroke-width:3.2px;"/>
                        </g>
                    </g>
                    <g id="Crystal6" serif:id="Crystal" transform="matrix(0.306057,-0.118765,0.126241,0.325321,1861.17,1192.45)">
                        <g transform="matrix(0.999672,0.0256283,-0.0256283,0.999672,731.408,-154.146)">
                            <path d="M2005.4,174.661L2215.7,358.972L2118.78,1035.72L2005.4,1101.18L1889.9,1035.72L1795.1,358.972L2005.4,174.661Z" style="fill:rgb(42,74,180);fill-opacity:0.93;stroke:rgb(227,227,227);stroke-opacity:0.55;stroke-width:3.2px;"/>
                        </g>
                        <g transform="matrix(0.999672,0.0256283,-0.0256283,0.999672,731.408,-154.146)">
                            <path d="M1795.1,359.058L2005.4,443.401L2215.7,358.494" style="fill:none;stroke:rgb(227,227,227);stroke-opacity:0.55;stroke-width:3.2px;"/>
                        </g>
                        <g transform="matrix(0.999672,0.0256283,-0.0256283,0.999672,731.408,-154.146)">
                            <path d="M2005.4,174.661L2005.4,1101.18" style="fill:none;stroke:rgb(227,227,227);stroke-opacity:0.55;stroke-width:3.2px;"/>
                        </g>
                    </g>
                    <g id="Crystal7" serif:id="Crystal" transform="matrix(-0.227983,0.0166686,0.0166686,0.227983,3371.01,944.387)">
                        <g transform="matrix(0.999672,0.0256283,-0.0256283,0.999672,731.408,-154.146)">
                            <path d="M2005.4,174.661L2215.7,358.972L2118.78,1035.72L2005.4,1101.18L1889.9,1035.72L1795.1,358.972L2005.4,174.661Z" style="fill:rgb(42,74,180);fill-opacity:0.93;stroke:rgb(227,227,227);stroke-opacity:0.55;stroke-width:3.2px;"/>
                        </g>
                        <g transform="matrix(0.999672,0.0256283,-0.0256283,0.999672,731.408,-154.146)">
                            <path d="M1795.1,359.058L2005.4,443.401L2215.7,358.494" style="fill:none;stroke:rgb(227,227,227);stroke-opacity:0.55;stroke-width:3.2px;"/>
                        </g>
                        <g transform="matrix(0.999672,0.0256283,-0.0256283,0.999672,731.408,-154.146)">
                            <path d="M2005.4,174.661L2005.4,1101.18" style="fill:none;stroke:rgb(227,227,227);stroke-opacity:0.55;stroke-width:3.2px;"/>
                        </g>
                    </g>
                    <g id="Crystal8" serif:id="Crystal" transform="matrix(-0.0369694,0.062831,0.0928256,0.054618,2858.86,1006.86)">
                        <g transform="matrix(0.999672,0.0256283,-0.0256283,0.999672,731.408,-154.146)">
                            <path d="M2005.4,174.661L2215.7,358.972L2118.78,1035.72L2005.4,1101.18L1889.9,1035.72L1795.1,358.972L2005.4,174.661Z" style="fill:rgb(42,74,180);fill-opacity:0.93;stroke:rgb(227,227,227);stroke-opacity:0.55;stroke-width:3.2px;"/>
                        </g>
                        <g transform="matrix(0.999672,0.0256283,-0.0256283,0.999672,731.408,-154.146)">
                            <path d="M1795.1,359.058L2005.4,443.401L2215.7,358.494" style="fill:none;stroke:rgb(227,227,227);stroke-opacity:0.55;stroke-width:3.2px;"/>
                        </g>
                        <g transform="matrix(0.999672,0.0256283,-0.0256283,0.999672,731.408,-154.146)">
                            <path d="M2005.4,174.661L2005.4,1101.18" style="fill:none;stroke:rgb(227,227,227);stroke-opacity:0.55;stroke-width:3.2px;"/>
                        </g>
                    </g>
                    <g id="Crystal9" serif:id="Crystal" transform="matrix(-0.123828,0.0751185,0.0749587,0.123564,3102.94,897.497)">
                        <g transform="matrix(0.999672,0.0256283,-0.0256283,0.999672,731.408,-154.146)">
                            <path d="M2005.4,174.661L2215.7,358.972L2118.78,1035.72L2005.4,1101.18L1889.9,1035.72L1795.1,358.972L2005.4,174.661Z" style="fill:rgb(42,74,180);fill-opacity:0.93;stroke:rgb(227,227,227);stroke-opacity:0.55;stroke-width:3.2px;"/>
                        </g>
                        <g transform="matrix(0.999672,0.0256283,-0.0256283,0.999672,731.408,-154.146)">
                            <path d="M1795.1,359.058L2005.4,443.401L2215.7,358.494" style="fill:none;stroke:rgb(227,227,227);stroke-opacity:0.55;stroke-width:3.2px;"/>
                        </g>
                        <g transform="matrix(0.999672,0.0256283,-0.0256283,0.999672,731.408,-154.146)">
                            <path d="M2005.4,174.661L2005.4,1101.18" style="fill:none;stroke:rgb(227,227,227);stroke-opacity:0.55;stroke-width:3.2px;"/>
                        </g>
                    </g>
                    <g id="Crystal10" serif:id="Crystal" transform="matrix(0.22651,0.0307781,-0.0307781,0.22651,2289.67,908.028)">
                        <g transform="matrix(0.999672,0.0256283,-0.0256283,0.999672,731.408,-154.146)">
                            <path d="M2005.4,174.661L2215.7,358.972L2118.78,1035.72L2005.4,1101.18L1889.9,1035.72L1795.1,358.972L2005.4,174.661Z" style="fill:rgb(42,74,180);fill-opacity:0.93;stroke:rgb(227,227,227);stroke-opacity:0.55;stroke-width:3.2px;"/>
                        </g>
                        <g transform="matrix(0.999672,0.0256283,-0.0256283,0.999672,731.408,-154.146)">
                            <path d="M1795.1,359.058L2005.4,443.401L2215.7,358.494" style="fill:none;stroke:rgb(227,227,227);stroke-opacity:0.55;stroke-width:3.2px;"/>
                        </g>
                        <g transform="matrix(0.999672,0.0256283,-0.0256283,0.999672,731.408,-154.146)">
                            <path d="M2005.4,174.661L2005.4,1101.18" style="fill:none;stroke:rgb(227,227,227);stroke-opacity:0.55;stroke-width:3.2px;"/>
                        </g>
                    </g>
                    <g id="Crystal11" serif:id="Crystal" transform="matrix(0.207028,-0.0327891,0.0327891,0.207028,2262.05,1121.01)">
                        <g transform="matrix(0.999672,0.0256283,-0.0256283,0.999672,731.408,-154.146)">
                            <path d="M2005.4,174.661L2215.7,358.972L2118.78,1035.72L2005.4,1101.18L1889.9,1035.72L1795.1,358.972L2005.4,174.661Z" style="fill:rgb(42,74,180);fill-opacity:0.93;stroke:rgb(227,227,227);stroke-opacity:0.55;stroke-width:3.2px;"/>
                        </g>
                        <g transform="matrix(0.999672,0.0256283,-0.0256283,0.999672,731.408,-154.146)">
                            <path d="M1795.1,359.058L2005.4,443.401L2215.7,358.494" style="fill:none;stroke:rgb(227,227,227);stroke-opacity:0.55;stroke-width:3.2px;"/>
                        </g>
                        <g transform="matrix(0.999672,0.0256283,-0.0256283,0.999672,731.408,-154.146)">
                            <path d="M2005.4,174.661L2005.4,1101.18" style="fill:none;stroke:rgb(227,227,227);stroke-opacity:0.55;stroke-width:3.2px;"/>
                        </g>
                    </g>
                    <g id="Crystal12" serif:id="Crystal" transform="matrix(-0.0618718,0.0361284,0.0306543,0.0524971,2965.04,1082.29)">
                        <g transform="matrix(0.999672,0.0256283,-0.0256283,0.999672,731.408,-154.146)">
                            <path d="M2005.4,174.661L2215.7,358.972L2118.78,1035.72L2005.4,1101.18L1889.9,1035.72L1795.1,358.972L2005.4,174.661Z" style="fill:rgb(42,74,180);fill-opacity:0.93;stroke:rgb(227,227,227);stroke-opacity:0.55;stroke-width:3.2px;"/>
                        </g>
                        <g transform="matrix(0.999672,0.0256283,-0.0256283,0.999672,731.408,-154.146)">
                            <path d="M1795.1,359.058L2005.4,443.401L2215.7,358.494" style="fill:none;stroke:rgb(227,227,227);stroke-opacity:0.55;stroke-width:3.2px;"/>
                        </g>
                        <g transform="matrix(0.999672,0.0256283,-0.0256283,0.999672,731.408,-154.146)">
                            <path d="M2005.4,174.661L2005.4,1101.18" style="fill:none;stroke:rgb(227,227,227);stroke-opacity:0.55;stroke-width:3.2px;"/>
                        </g>
                    </g>
                    <g id="Crystal13" serif:id="Crystal" transform="matrix(0.0603952,0.0163924,-0.0139087,0.0512443,2724.35,1134.12)">
                        <g transform="matrix(0.999672,0.0256283,-0.0256283,0.999672,731.408,-154.146)">
                            <path d="M2005.4,174.661L2215.7,358.972L2118.78,1035.72L2005.4,1101.18L1889.9,1035.72L1795.1,358.972L2005.4,174.661Z" style="fill:rgb(42,74,180);fill-opacity:0.93;stroke:rgb(227,227,227);stroke-opacity:0.55;stroke-width:3.2px;"/>
                        </g>
                        <g transform="matrix(0.999672,0.0256283,-0.0256283,0.999672,731.408,-154.146)">
                            <path d="M1795.1,359.058L2005.4,443.401L2215.7,358.494" style="fill:none;stroke:rgb(227,227,227);stroke-opacity:0.55;stroke-width:3.2px;"/>
                        </g>
                        <g transform="matrix(0.999672,0.0256283,-0.0256283,0.999672,731.408,-154.146)">
                            <path d="M2005.4,174.661L2005.4,1101.18" style="fill:none;stroke:rgb(227,227,227);stroke-opacity:0.55;stroke-width:3.2px;"/>
                        </g>
                    </g>
                </g>
                <g transform="matrix(0.748866,0.954374,-1.13618,0.891523,3658.17,-109.705)">
                    <g id="Crystal14" serif:id="Crystal" transform="matrix(0.34568,-0.0109865,0.0109865,0.34568,1869.59,895.669)">
                        <g transform="matrix(0.999672,0.0256283,-0.0256283,0.999672,731.408,-154.146)">
                            <path d="M2005.4,174.661L2215.7,358.972L2118.78,1035.72L2005.4,1101.18L1889.9,1035.72L1795.1,358.972L2005.4,174.661Z" style="fill:rgb(42,74,180);fill-opacity:0.93;stroke:rgb(227,227,227);stroke-opacity:0.55;stroke-width:3.2px;"/>
                        </g>
                        <g transform="matrix(0.999672,0.0256283,-0.0256283,0.999672,731.408,-154.146)">
                            <path d="M1795.1,359.058L2005.4,443.401L2215.7,358.494" style="fill:none;stroke:rgb(227,227,227);stroke-opacity:0.55;stroke-width:3.2px;"/>
                        </g>
                        <g transform="matrix(0.999672,0.0256283,-0.0256283,0.999672,731.408,-154.146)">
                            <path d="M2005.4,174.661L2005.4,1101.18" style="fill:none;stroke:rgb(227,227,227);stroke-opacity:0.55;stroke-width:3.2px;"/>
                        </g>
                    </g>
                    <g id="Crystal15" serif:id="Crystal" transform="matrix(0.256043,0.0247826,-0.0294338,0.304097,2211.81,835.174)">
                        <g transform="matrix(0.999672,0.0256283,-0.0256283,0.999672,731.408,-154.146)">
                            <path d="M2005.4,174.661L2215.7,358.972L2118.78,1035.72L2005.4,1101.18L1889.9,1035.72L1795.1,358.972L2005.4,174.661Z" style="fill:rgb(42,74,180);fill-opacity:0.93;stroke:rgb(227,227,227);stroke-opacity:0.55;stroke-width:3.2px;"/>
                        </g>
                        <g transform="matrix(0.999672,0.0256283,-0.0256283,0.999672,731.408,-154.146)">
                            <path d="M1795.1,359.058L2005.4,443.401L2215.7,358.494" style="fill:none;stroke:rgb(227,227,227);stroke-opacity:0.55;stroke-width:3.2px;"/>
                        </g>
                        <g transform="matrix(0.999672,0.0256283,-0.0256283,0.999672,731.408,-154.146)">
                            <path d="M2005.4,174.661L2005.4,1101.18" style="fill:none;stroke:rgb(227,227,227);stroke-opacity:0.55;stroke-width:3.2px;"/>
                        </g>
                    </g>
                    <g id="Crystal16" serif:id="Crystal" transform="matrix(0.0369694,0.062831,-0.0928256,0.054618,2848.97,994.854)">
                        <g transform="matrix(0.999672,0.0256283,-0.0256283,0.999672,731.408,-154.146)">
                            <path d="M2005.4,174.661L2215.7,358.972L2118.78,1035.72L2005.4,1101.18L1889.9,1035.72L1795.1,358.972L2005.4,174.661Z" style="fill:rgb(42,74,180);fill-opacity:0.93;stroke:rgb(227,227,227);stroke-opacity:0.55;stroke-width:3.2px;"/>
                        </g>
                        <g transform="matrix(0.999672,0.0256283,-0.0256283,0.999672,731.408,-154.146)">
                            <path d="M1795.1,359.058L2005.4,443.401L2215.7,358.494" style="fill:none;stroke:rgb(227,227,227);stroke-opacity:0.55;stroke-width:3.2px;"/>
                        </g>
                        <g transform="matrix(0.999672,0.0256283,-0.0256283,0.999672,731.408,-154.146)">
                            <path d="M2005.4,174.661L2005.4,1101.18" style="fill:none;stroke:rgb(227,227,227);stroke-opacity:0.55;stroke-width:3.2px;"/>
                        </g>
                    </g>
                    <g id="Crystal17" serif:id="Crystal" transform="matrix(0.123828,0.0751185,-0.0749587,0.123564,2604.9,885.488)">
                        <g transform="matrix(0.999672,0.0256283,-0.0256283,0.999672,731.408,-154.146)">
                            <path d="M2005.4,174.661L2215.7,358.972L2118.78,1035.72L2005.4,1101.18L1889.9,1035.72L1795.1,358.972L2005.4,174.661Z" style="fill:rgb(42,74,180);fill-opacity:0.93;stroke:rgb(227,227,227);stroke-opacity:0.55;stroke-width:3.2px;"/>
                        </g>
                        <g transform="matrix(0.999672,0.0256283,-0.0256283,0.999672,731.408,-154.146)">
                            <path d="M1795.1,359.058L2005.4,443.401L2215.7,358.494" style="fill:none;stroke:rgb(227,227,227);stroke-opacity:0.55;stroke-width:3.2px;"/>
                        </g>
                        <g transform="matrix(0.999672,0.0256283,-0.0256283,0.999672,731.408,-154.146)">
                            <path d="M2005.4,174.661L2005.4,1101.18" style="fill:none;stroke:rgb(227,227,227);stroke-opacity:0.55;stroke-width:3.2px;"/>
                        </g>
                    </g>
                    <g id="Crystal18" serif:id="Crystal" transform="matrix(0.0618718,0.0361284,-0.0306543,0.0524971,2742.8,1070.28)">
                        <g transform="matrix(0.999672,0.0256283,-0.0256283,0.999672,731.408,-154.146)">
                            <path d="M2005.4,174.661L2215.7,358.972L2118.78,1035.72L2005.4,1101.18L1889.9,1035.72L1795.1,358.972L2005.4,174.661Z" style="fill:rgb(42,74,180);fill-opacity:0.93;stroke:rgb(227,227,227);stroke-opacity:0.55;stroke-width:3.2px;"/>
                        </g>
                        <g transform="matrix(0.999672,0.0256283,-0.0256283,0.999672,731.408,-154.146)">
                            <path d="M1795.1,359.058L2005.4,443.401L2215.7,358.494" style="fill:none;stroke:rgb(227,227,227);stroke-opacity:0.55;stroke-width:3.2px;"/>
                        </g>
                        <g transform="matrix(0.999672,0.0256283,-0.0256283,0.999672,731.408,-154.146)">
                            <path d="M2005.4,174.661L2005.4,1101.18" style="fill:none;stroke:rgb(227,227,227);stroke-opacity:0.55;stroke-width:3.2px;"/>
                        </g>
                    </g>
                    <g id="Crystal19" serif:id="Crystal" transform="matrix(0.306057,-0.118765,0.126241,0.325321,1861.17,1192.45)">
                        <g transform="matrix(0.999672,0.0256283,-0.0256283,0.999672,731.408,-154.146)">
                            <path d="M2005.4,174.661L2215.7,358.972L2118.78,1035.72L2005.4,1101.18L1889.9,1035.72L1795.1,358.972L2005.4,174.661Z" style="fill:rgb(42,74,180);fill-opacity:0.93;stroke:rgb(227,227,227);stroke-opacity:0.55;stroke-width:3.2px;"/>
                        </g>
                        <g transform="matrix(0.999672,0.0256283,-0.0256283,0.999672,731.408,-154.146)">
                            <path d="M1795.1,359.058L2005.4,443.401L2215.7,358.494" style="fill:none;stroke:rgb(227,227,227);stroke-opacity:0.55;stroke-width:3.2px;"/>
                        </g>
                        <g transform="matrix(0.999672,0.0256283,-0.0256283,0.999672,731.408,-154.146)">
                            <path d="M2005.4,174.661L2005.4,1101.18" style="fill:none;stroke:rgb(227,227,227);stroke-opacity:0.55;stroke-width:3.2px;"/>
                        </g>
                    </g>
                    <g id="Crystal20" serif:id="Crystal" transform="matrix(-0.227983,0.0166686,0.0166686,0.227983,3371.01,944.387)">
                        <g transform="matrix(0.999672,0.0256283,-0.0256283,0.999672,731.408,-154.146)">
                            <path d="M2005.4,174.661L2215.7,358.972L2118.78,1035.72L2005.4,1101.18L1889.9,1035.72L1795.1,358.972L2005.4,174.661Z" style="fill:rgb(42,74,180);fill-opacity:0.93;stroke:rgb(227,227,227);stroke-opacity:0.55;stroke-width:3.2px;"/>
                        </g>
                        <g transform="matrix(0.999672,0.0256283,-0.0256283,0.999672,731.408,-154.146)">
                            <path d="M1795.1,359.058L2005.4,443.401L2215.7,358.494" style="fill:none;stroke:rgb(227,227,227);stroke-opacity:0.55;stroke-width:3.2px;"/>
                        </g>
                        <g transform="matrix(0.999672,0.0256283,-0.0256283,0.999672,731.408,-154.146)">
                            <path d="M2005.4,174.661L2005.4,1101.18" style="fill:none;stroke:rgb(227,227,227);stroke-opacity:0.55;stroke-width:3.2px;"/>
                        </g>
                    </g>
                    <g id="Crystal21" serif:id="Crystal" transform="matrix(-0.0369694,0.062831,0.0928256,0.054618,2858.86,1006.86)">
                        <g transform="matrix(0.999672,0.0256283,-0.0256283,0.999672,731.408,-154.146)">
                            <path d="M2005.4,174.661L2215.7,358.972L2118.78,1035.72L2005.4,1101.18L1889.9,1035.72L1795.1,358.972L2005.4,174.661Z" style="fill:rgb(42,74,180);fill-opacity:0.93;stroke:rgb(227,227,227);stroke-opacity:0.55;stroke-width:3.2px;"/>
                        </g>
                        <g transform="matrix(0.999672,0.0256283,-0.0256283,0.999672,731.408,-154.146)">
                            <path d="M1795.1,359.058L2005.4,443.401L2215.7,358.494" style="fill:none;stroke:rgb(227,227,227);stroke-opacity:0.55;stroke-width:3.2px;"/>
                        </g>
                        <g transform="matrix(0.999672,0.0256283,-0.0256283,0.999672,731.408,-154.146)">
                            <path d="M2005.4,174.661L2005.4,1101.18" style="fill:none;stroke:rgb(227,227,227);stroke-opacity:0.55;stroke-width:3.2px;"/>
                        </g>
                    </g>
                    <g id="Crystal22" serif:id="Crystal" transform="matrix(-0.123828,0.0751185,0.0749587,0.123564,3102.94,897.497)">
                        <g transform="matrix(0.999672,0.0256283,-0.0256283,0.999672,731.408,-154.146)">
                            <path d="M2005.4,174.661L2215.7,358.972L2118.78,1035.72L2005.4,1101.18L1889.9,1035.72L1795.1,358.972L2005.4,174.661Z" style="fill:rgb(42,74,180);fill-opacity:0.93;stroke:rgb(227,227,227);stroke-opacity:0.55;stroke-width:3.2px;"/>
                        </g>
                        <g transform="matrix(0.999672,0.0256283,-0.0256283,0.999672,731.408,-154.146)">
                            <path d="M1795.1,359.058L2005.4,443.401L2215.7,358.494" style="fill:none;stroke:rgb(227,227,227);stroke-opacity:0.55;stroke-width:3.2px;"/>
                        </g>
                        <g transform="matrix(0.999672,0.0256283,-0.0256283,0.999672,731.408,-154.146)">
                            <path d="M2005.4,174.661L2005.4,1101.18" style="fill:none;stroke:rgb(227,227,227);stroke-opacity:0.55;stroke-width:3.2px;"/>
                        </g>
                    </g>
                    <g id="Crystal23" serif:id="Crystal" transform="matrix(0.22651,0.0307781,-0.0307781,0.22651,2289.67,908.028)">
                        <g transform="matrix(0.999672,0.0256283,-0.0256283,0.999672,731.408,-154.146)">
                            <path d="M2005.4,174.661L2215.7,358.972L2118.78,1035.72L2005.4,1101.18L1889.9,1035.72L1795.1,358.972L2005.4,174.661Z" style="fill:rgb(42,74,180);fill-opacity:0.93;stroke:rgb(227,227,227);stroke-opacity:0.55;stroke-width:3.2px;"/>
                        </g>
                        <g transform="matrix(0.999672,0.0256283,-0.0256283,0.999672,731.408,-154.146)">
                            <path d="M1795.1,359.058L2005.4,443.401L2215.7,358.494" style="fill:none;stroke:rgb(227,227,227);stroke-opacity:0.55;stroke-width:3.2px;"/>
                        </g>
                        <g transform="matrix(0.999672,0.0256283,-0.0256283,0.999672,731.408,-154.146)">
                            <path d="M2005.4,174.661L2005.4,1101.18" style="fill:none;stroke:rgb(227,227,227);stroke-opacity:0.55;stroke-width:3.2px;"/>
                        </g>
                    </g>
                    <g id="Crystal24" serif:id="Crystal" transform="matrix(0.207028,-0.0327891,0.0327891,0.207028,2262.05,1121.01)">
                        <g transform="matrix(0.999672,0.0256283,-0.0256283,0.999672,731.408,-154.146)">
                            <path d="M2005.4,174.661L2215.7,358.972L2118.78,1035.72L2005.4,1101.18L1889.9,1035.72L1795.1,358.972L2005.4,174.661Z" style="fill:rgb(42,74,180);fill-opacity:0.93;stroke:rgb(227,227,227);stroke-opacity:0.55;stroke-width:3.2px;"/>
                        </g>
                        <g transform="matrix(0.999672,0.0256283,-0.0256283,0.999672,731.408,-154.146)">
                            <path d="M1795.1,359.058L2005.4,443.401L2215.7,358.494" style="fill:none;stroke:rgb(227,227,227);stroke-opacity:0.55;stroke-width:3.2px;"/>
                        </g>
                        <g transform="matrix(0.999672,0.0256283,-0.0256283,0.999672,731.408,-154.146)">
                            <path d="M2005.4,174.661L2005.4,1101.18" style="fill:none;stroke:rgb(227,227,227);stroke-opacity:0.55;stroke-width:3.2px;"/>
                        </g>
                    </g>
                    <g id="Crystal25" serif:id="Crystal" transform="matrix(-0.0618718,0.0361284,0.0306543,0.0524971,2965.04,1082.29)">
                        <g transform="matrix(0.999672,0.0256283,-0.0256283,0.999672,731.408,-154.146)">
                            <path d="M2005.4,174.661L2215.7,358.972L2118.78,1035.72L2005.4,1101.18L1889.9,1035.72L1795.1,358.972L2005.4,174.661Z" style="fill:rgb(42,74,180);fill-opacity:0.93;stroke:rgb(227,227,227);stroke-opacity:0.55;stroke-width:3.2px;"/>
                        </g>
                        <g transform="matrix(0.999672,0.0256283,-0.0256283,0.999672,731.408,-154.146)">
                            <path d="M1795.1,359.058L2005.4,443.401L2215.7,358.494" style="fill:none;stroke:rgb(227,227,227);stroke-opacity:0.55;stroke-width:3.2px;"/>
                        </g>
                        <g transform="matrix(0.999672,0.0256283,-0.0256283,0.999672,731.408,-154.146)">
                            <path d="M2005.4,174.661L2005.4,1101.18" style="fill:none;stroke:rgb(227,227,227);stroke-opacity:0.55;stroke-width:3.2px;"/>
                        </g>
                    </g>
                    <g id="Crystal26" serif:id="Crystal" transform="matrix(0.0603952,0.0163924,-0.0139087,0.0512443,2724.35,1134.12)">
                        <g transform="matrix(0.999672,0.0256283,-0.0256283,0.999672,731.408,-154.146)">
                            <path d="M2005.4,174.661L2215.7,358.972L2118.78,1035.72L2005.4,1101.18L1889.9,1035.72L1795.1,358.972L2005.4,174.661Z" style="fill:rgb(42,74,180);fill-opacity:0.93;stroke:rgb(227,227,227);stroke-opacity:0.55;stroke-width:3.2px;"/>
                        </g>
                        <g transform="matrix(0.999672,0.0256283,-0.0256283,0.999672,731.408,-154.146)">
                            <path d="M1795.1,359.058L2005.4,443.401L2215.7,358.494" style="fill:none;stroke:rgb(227,227,227);stroke-opacity:0.55;stroke-width:3.2px;"/>
                        </g>
                        <g transform="matrix(0.999672,0.0256283,-0.0256283,0.999672,731.408,-154.146)">
                            <path d="M2005.4,174.661L2005.4,1101.18" style="fill:none;stroke:rgb(227,227,227);stroke-opacity:0.55;stroke-width:3.2px;"/>
                        </g>
                    </g>
                </g>
                <g transform="matrix(2.35631,0.2622,-0.2622,2.35631,-2027.39,-47.5963)">
                    <g id="Crystal27" serif:id="Crystal" transform="matrix(0.34568,-0.0109865,0.0109865,0.34568,1869.59,895.669)">
                        <g transform="matrix(0.999672,0.0256283,-0.0256283,0.999672,731.408,-154.146)">
                            <path d="M2005.4,174.661L2215.7,358.972L2118.78,1035.72L2005.4,1101.18L1889.9,1035.72L1795.1,358.972L2005.4,174.661Z" style="fill:rgb(42,74,180);fill-opacity:0.93;stroke:rgb(227,227,227);stroke-opacity:0.55;stroke-width:3.2px;"/>
                        </g>
                        <g transform="matrix(0.999672,0.0256283,-0.0256283,0.999672,731.408,-154.146)">
                            <path d="M1795.1,359.058L2005.4,443.401L2215.7,358.494" style="fill:none;stroke:rgb(227,227,227);stroke-opacity:0.55;stroke-width:3.2px;"/>
                        </g>
                        <g transform="matrix(0.999672,0.0256283,-0.0256283,0.999672,731.408,-154.146)">
                            <path d="M2005.4,174.661L2005.4,1101.18" style="fill:none;stroke:rgb(227,227,227);stroke-opacity:0.55;stroke-width:3.2px;"/>
                        </g>
                    </g>
                    <g id="Crystal28" serif:id="Crystal" transform="matrix(0.256043,0.0247826,-0.0294338,0.304097,2211.81,835.174)">
                        <g transform="matrix(0.999672,0.0256283,-0.0256283,0.999672,731.408,-154.146)">
                            <path d="M2005.4,174.661L2215.7,358.972L2118.78,1035.72L2005.4,1101.18L1889.9,1035.72L1795.1,358.972L2005.4,174.661Z" style="fill:rgb(42,74,180);fill-opacity:0.93;stroke:rgb(227,227,227);stroke-opacity:0.55;stroke-width:3.2px;"/>
                        </g>
                        <g transform="matrix(0.999672,0.0256283,-0.0256283,0.999672,731.408,-154.146)">
                            <path d="M1795.1,359.058L2005.4,443.401L2215.7,358.494" style="fill:none;stroke:rgb(227,227,227);stroke-opacity:0.55;stroke-width:3.2px;"/>
                        </g>
                        <g transform="matrix(0.999672,0.0256283,-0.0256283,0.999672,731.408,-154.146)">
                            <path d="M2005.4,174.661L2005.4,1101.18" style="fill:none;stroke:rgb(227,227,227);stroke-opacity:0.55;stroke-width:3.2px;"/>
                        </g>
                    </g>
                    <g id="Crystal29" serif:id="Crystal" transform="matrix(0.0369694,0.062831,-0.0928256,0.054618,2848.97,994.854)">
                        <g transform="matrix(0.999672,0.0256283,-0.0256283,0.999672,731.408,-154.146)">
                            <path d="M2005.4,174.661L2215.7,358.972L2118.78,1035.72L2005.4,1101.18L1889.9,1035.72L1795.1,358.972L2005.4,174.661Z" style="fill:rgb(42,74,180);fill-opacity:0.93;stroke:rgb(227,227,227);stroke-opacity:0.55;stroke-width:3.2px;"/>
                        </g>
                        <g transform="matrix(0.999672,0.0256283,-0.0256283,0.999672,731.408,-154.146)">
                            <path d="M1795.1,359.058L2005.4,443.401L2215.7,358.494" style="fill:none;stroke:rgb(227,227,227);stroke-opacity:0.55;stroke-width:3.2px;"/>
                        </g>
                        <g transform="matrix(0.999672,0.0256283,-0.0256283,0.999672,731.408,-154.146)">
                            <path d="M2005.4,174.661L2005.4,1101.18" style="fill:none;stroke:rgb(227,227,227);stroke-opacity:0.55;stroke-width:3.2px;"/>
                        </g>
                    </g>
                    <g id="Crystal30" serif:id="Crystal" transform="matrix(0.123828,0.0751185,-0.0749587,0.123564,2604.9,885.488)">
                        <g transform="matrix(0.999672,0.0256283,-0.0256283,0.999672,731.408,-154.146)">
                            <path d="M2005.4,174.661L2215.7,358.972L2118.78,1035.72L2005.4,1101.18L1889.9,1035.72L1795.1,358.972L2005.4,174.661Z" style="fill:rgb(42,74,180);fill-opacity:0.93;stroke:rgb(227,227,227);stroke-opacity:0.55;stroke-width:3.2px;"/>
                        </g>
                        <g transform="matrix(0.999672,0.0256283,-0.0256283,0.999672,731.408,-154.146)">
                            <path d="M1795.1,359.058L2005.4,443.401L2215.7,358.494" style="fill:none;stroke:rgb(227,227,227);stroke-opacity:0.55;stroke-width:3.2px;"/>
                        </g>
                        <g transform="matrix(0.999672,0.0256283,-0.0256283,0.999672,731.408,-154.146)">
                            <path d="M2005.4,174.661L2005.4,1101.18" style="fill:none;stroke:rgb(227,227,227);stroke-opacity:0.55;stroke-width:3.2px;"/>
                        </g>
                    </g>
                    <g id="Crystal31" serif:id="Crystal" transform="matrix(0.0618718,0.0361284,-0.0306543,0.0524971,2742.8,1070.28)">
                        <g transform="matrix(0.999672,0.0256283,-0.0256283,0.999672,731.408,-154.146)">
                            <path d="M2005.4,174.661L2215.7,358.972L2118.78,1035.72L2005.4,1101.18L1889.9,1035.72L1795.1,358.972L2005.4,174.661Z" style="fill:rgb(42,74,180);fill-opacity:0.93;stroke:rgb(227,227,227);stroke-opacity:0.55;stroke-width:3.2px;"/>
                        </g>
                        <g transform="matrix(0.999672,0.0256283,-0.0256283,0.999672,731.408,-154.146)">
                            <path d="M1795.1,359.058L2005.4,443.401L2215.7,358.494" style="fill:none;stroke:rgb(227,227,227);stroke-opacity:0.55;stroke-width:3.2px;"/>
                        </g>
                        <g transform="matrix(0.999672,0.0256283,-0.0256283,0.999672,731.408,-154.146)">
                            <path d="M2005.4,174.661L2005.4,1101.18" style="fill:none;stroke:rgb(227,227,227);stroke-opacity:0.55;stroke-width:3.2px;"/>
                        </g>
                    </g>
                    <g id="Crystal32" serif:id="Crystal" transform="matrix(0.306057,-0.118765,0.126241,0.325321,1861.17,1192.45)">
                        <g transform="matrix(0.999672,0.0256283,-0.0256283,0.999672,731.408,-154.146)">
                            <path d="M2005.4,174.661L2215.7,358.972L2118.78,1035.72L2005.4,1101.18L1889.9,1035.72L1795.1,358.972L2005.4,174.661Z" style="fill:rgb(42,74,180);fill-opacity:0.93;stroke:rgb(227,227,227);stroke-opacity:0.55;stroke-width:3.2px;"/>
                        </g>
                        <g transform="matrix(0.999672,0.0256283,-0.0256283,0.999672,731.408,-154.146)">
                            <path d="M1795.1,359.058L2005.4,443.401L2215.7,358.494" style="fill:none;stroke:rgb(227,227,227);stroke-opacity:0.55;stroke-width:3.2px;"/>
                        </g>
                        <g transform="matrix(0.999672,0.0256283,-0.0256283,0.999672,731.408,-154.146)">
                            <path d="M2005.4,174.661L2005.4,1101.18" style="fill:none;stroke:rgb(227,227,227);stroke-opacity:0.55;stroke-width:3.2px;"/>
                        </g>
                    </g>
                    <g id="Crystal33" serif:id="Crystal" transform="matrix(-0.227983,0.0166686,0.0166686,0.227983,3371.01,944.387)">
                        <g transform="matrix(0.999672,0.0256283,-0.0256283,0.999672,731.408,-154.146)">
                            <path d="M2005.4,174.661L2215.7,358.972L2118.78,1035.72L2005.4,1101.18L1889.9,1035.72L1795.1,358.972L2005.4,174.661Z" style="fill:rgb(42,74,180);fill-opacity:0.93;stroke:rgb(227,227,227);stroke-opacity:0.55;stroke-width:3.2px;"/>
                        </g>
                        <g transform="matrix(0.999672,0.0256283,-0.0256283,0.999672,731.408,-154.146)">
                            <path d="M1795.1,359.058L2005.4,443.401L2215.7,358.494" style="fill:none;stroke:rgb(227,227,227);stroke-opacity:0.55;stroke-width:3.2px;"/>
                        </g>
                        <g transform="matrix(0.999672,0.0256283,-0.0256283,0.999672,731.408,-154.146)">
                            <path d="M2005.4,174.661L2005.4,1101.18" style="fill:none;stroke:rgb(227,227,227);stroke-opacity:0.55;stroke-width:3.2px;"/>
                        </g>
                    </g>
                    <g id="Crystal34" serif:id="Crystal" transform="matrix(-0.0369694,0.062831,0.0928256,0.054618,2858.86,1006.86)">
                        <g transform="matrix(0.999672,0.0256283,-0.0256283,0.999672,731.408,-154.146)">
                            <path d="M2005.4,174.661L2215.7,358.972L2118.78,1035.72L2005.4,1101.18L1889.9,1035.72L1795.1,358.972L2005.4,174.661Z" style="fill:rgb(42,74,180);fill-opacity:0.93;stroke:rgb(227,227,227);stroke-opacity:0.55;stroke-width:3.2px;"/>
                        </g>
                        <g transform="matrix(0.999672,0.0256283,-0.0256283,0.999672,731.408,-154.146)">
                            <path d="M1795.1,359.058L2005.4,443.401L2215.7,358.494" style="fill:none;stroke:rgb(227,227,227);stroke-opacity:0.55;stroke-width:3.2px;"/>
                        </g>
                        <g transform="matrix(0.999672,0.0256283,-0.0256283,0.999672,731.408,-154.146)">
                            <path d="M2005.4,174.661L2005.4,1101.18" style="fill:none;stroke:rgb(227,227,227);stroke-opacity:0.55;stroke-width:3.2px;"/>
                        </g>
                    </g>
                    <g id="Crystal35" serif:id="Crystal" transform="matrix(-0.123828,0.0751185,0.0749587,0.123564,3102.94,897.497)">
                        <g transform="matrix(0.999672,0.0256283,-0.0256283,0.999672,731.408,-154.146)">
                            <path d="M2005.4,174.661L2215.7,358.972L2118.78,1035.72L2005.4,1101.18L1889.9,1035.72L1795.1,358.972L2005.4,174.661Z" style="fill:rgb(42,74,180);fill-opacity:0.93;stroke:rgb(227,227,227);stroke-opacity:0.55;stroke-width:3.2px;"/>
                        </g>
                        <g transform="matrix(0.999672,0.0256283,-0.0256283,0.999672,731.408,-154.146)">
                            <path d="M1795.1,359.058L2005.4,443.401L2215.7,358.494" style="fill:none;stroke:rgb(227,227,227);stroke-opacity:0.55;stroke-width:3.2px;"/>
                        </g>
                        <g transform="matrix(0.999672,0.0256283,-0.0256283,0.999672,731.408,-154.146)">
                            <path d="M2005.4,174.661L2005.4,1101.18" style="fill:none;stroke:rgb(227,227,227);stroke-opacity:0.55;stroke-width:3.2px;"/>
                        </g>
                    </g>
                    <g id="Crystal36" serif:id="Crystal" transform="matrix(0.22651,0.0307781,-0.0307781,0.22651,2289.67,908.028)">
                        <g transform="matrix(0.999672,0.0256283,-0.0256283,0.999672,731.408,-154.146)">
                            <path d="M2005.4,174.661L2215.7,358.972L2118.78,1035.72L2005.4,1101.18L1889.9,1035.72L1795.1,358.972L2005.4,174.661Z" style="fill:rgb(42,74,180);fill-opacity:0.93;stroke:rgb(227,227,227);stroke-opacity:0.55;stroke-width:3.2px;"/>
                        </g>
                        <g transform="matrix(0.999672,0.0256283,-0.0256283,0.999672,731.408,-154.146)">
                            <path d="M1795.1,359.058L2005.4,443.401L2215.7,358.494" style="fill:none;stroke:rgb(227,227,227);stroke-opacity:0.55;stroke-width:3.2px;"/>
                        </g>
                        <g transform="matrix(0.999672,0.0256283,-0.0256283,0.999672,731.408,-154.146)">
                            <path d="M2005.4,174.661L2005.4,1101.18" style="fill:none;stroke:rgb(227,227,227);stroke-opacity:0.55;stroke-width:3.2px;"/>
                        </g>
                    </g>
                    <g id="Crystal37" serif:id="Crystal" transform="matrix(0.207028,-0.0327891,0.0327891,0.207028,2262.05,1121.01)">
                        <g transform="matrix(0.999672,0.0256283,-0.0256283,0.999672,731.408,-154.146)">
                            <path d="M2005.4,174.661L2215.7,358.972L2118.78,1035.72L2005.4,1101.18L1889.9,1035.72L1795.1,358.972L2005.4,174.661Z" style="fill:rgb(42,74,180);fill-opacity:0.93;stroke:rgb(227,227,227);stroke-opacity:0.55;stroke-width:3.2px;"/>
                        </g>
                        <g transform="matrix(0.999672,0.0256283,-0.0256283,0.999672,731.408,-154.146)">
                            <path d="M1795.1,359.058L2005.4,443.401L2215.7,358.494" style="fill:none;stroke:rgb(227,227,227);stroke-opacity:0.55;stroke-width:3.2px;"/>
                        </g>
                        <g transform="matrix(0.999672,0.0256283,-0.0256283,0.999672,731.408,-154.146)">
                            <path d="M2005.4,174.661L2005.4,1101.18" style="fill:none;stroke:rgb(227,227,227);stroke-opacity:0.55;stroke-width:3.2px;"/>
                        </g>
                    </g>
                    <g id="Crystal38" serif:id="Crystal" transform="matrix(-0.0618718,0.0361284,0.0306543,0.0524971,2965.04,1082.29)">
                        <g transform="matrix(0.999672,0.0256283,-0.0256283,0.999672,731.408,-154.146)">
                            <path d="M2005.4,174.661L2215.7,358.972L2118.78,1035.72L2005.4,1101.18L1889.9,1035.72L1795.1,358.972L2005.4,174.661Z" style="fill:rgb(42,74,180);fill-opacity:0.93;stroke:rgb(227,227,227);stroke-opacity:0.55;stroke-width:3.2px;"/>
                        </g>
                        <g transform="matrix(0.999672,0.0256283,-0.0256283,0.999672,731.408,-154.146)">
                            <path d="M1795.1,359.058L2005.4,443.401L2215.7,358.494" style="fill:none;stroke:rgb(227,227,227);stroke-opacity:0.55;stroke-width:3.2px;"/>
                        </g>
                        <g transform="matrix(0.999672,0.0256283,-0.0256283,0.999672,731.408,-154.146)">
                            <path d="M2005.4,174.661L2005.4,1101.18" style="fill:none;stroke:rgb(227,227,227);stroke-opacity:0.55;stroke-width:3.2px;"/>
                        </g>
                    </g>
                    <g id="Crystal39" serif:id="Crystal" transform="matrix(0.0603952,0.0163924,-0.0139087,0.0512443,2724.35,1134.12)">
                        <g transform="matrix(0.999672,0.0256283,-0.0256283,0.999672,731.408,-154.146)">
                            <path d="M2005.4,174.661L2215.7,358.972L2118.78,1035.72L2005.4,1101.18L1889.9,1035.72L1795.1,358.972L2005.4,174.661Z" style="fill:rgb(42,74,180);fill-opacity:0.93;stroke:rgb(227,227,227);stroke-opacity:0.55;stroke-width:3.2px;"/>
                        </g>
                        <g transform="matrix(0.999672,0.0256283,-0.0256283,0.999672,731.408,-154.146)">
                            <path d="M1795.1,359.058L2005.4,443.401L2215.7,358.494" style="fill:none;stroke:rgb(227,227,227);stroke-opacity:0.55;stroke-width:3.2px;"/>
                        </g>
                        <g transform="matrix(0.999672,0.0256283,-0.0256283,0.999672,731.408,-154.146)">
                            <path d="M2005.4,174.661L2005.4,1101.18" style="fill:none;stroke:rgb(227,227,227);stroke-opacity:0.55;stroke-width:3.2px;"/>
                        </g>
                    </g>
                </g>
                <g transform="matrix(1,0,0,1,1608.65,2609.45)">
                    <g transform="matrix(0.723522,0,0,0.723522,783.294,309.688)">
                        <g transform="matrix(1.83697e-16,1,1,-1.83697e-16,2061.11,-1628.28)">
                            <path d="M2652.18,195.71C2726.8,201.843 2797.23,257.725 2834.89,300.908C2911.48,388.726 2869.95,676.022 2746.7,754.65C2570.3,867.178 2455.92,848.875 2455.92,848.875C2417.53,846.766 2199.34,766.629 2183.22,737.116C2130.41,640.475 2159.99,546.65 2216.54,482.06C2247,447.272 2288.13,448.302 2295.73,407.238C2320.26,274.738 2529.4,185.619 2652.18,195.71Z" style="fill:rgb(25,5,152);"/>
                        </g>
                        <g transform="matrix(1,0,0,1,-22.0911,-32.9535)">
                            <path d="M2652.18,195.71C2726.8,201.843 2797.23,257.725 2834.89,300.908C2911.48,388.726 2898.74,676.491 2898.74,676.491C2898.74,676.491 2869.95,676.022 2746.7,754.65C2570.3,867.178 2455.92,848.875 2455.92,848.875C2417.53,846.766 2376.33,831.145 2368.54,798.428C2351.39,726.376 2294.91,518.973 2316.63,401.664C2341.16,269.164 2529.4,185.619 2652.18,195.71Z" style="fill:rgb(25,5,152);"/>
                        </g>
                        <g transform="matrix(1.13123,-0.653118,-8.01151e-19,1.38466,1081.86,730.874)">
                            <g transform="matrix(1,0,0,1,-29.7795,-27.7587)">
                                <path d="M1524.66,415.882C1549.7,419.662 1571.41,444.3 1571.41,467.575C1571.41,490.85 1552.51,509.747 1529.24,509.747C1505.96,509.747 1480.81,489.452 1476.84,464.546C1472.26,435.878 1489.54,410.578 1524.66,415.882Z" style="fill:rgb(251,200,253);"/>
                            </g>
                            <g transform="matrix(2.21544,1.1985,-0.443399,1.55171,-4681.81,-4243.53)">
                                <ellipse cx="2942.61" cy="755.947" rx="7.415" ry="10.875" style="fill:rgb(80,138,136);"/>
                            </g>
                            <g transform="matrix(2.21544,1.1985,-0.443399,1.55171,-4681.81,-4243.53)">
                                <ellipse cx="2942.61" cy="755.947" rx="7.415" ry="10.875" style="fill:rgb(80,138,136);"/>
                            </g>
                            <g transform="matrix(1.76337,0.941259,-0.255844,1.00315,-3488.24,-3069.81)">
                                <ellipse cx="2942.61" cy="755.947" rx="7.415" ry="10.875" style="fill:url(#_Linear1);"/>
                            </g>
                            <g transform="matrix(1.05288,0.136193,0.757162,1.02087,-1798.08,-243.672)">
                                <ellipse cx="2930.96" cy="283.067" rx="4.623" ry="4.24" style="fill:rgb(249,253,255);fill-opacity:0.78;"/>
                            </g>
                        </g>
                        <g transform="matrix(1.13123,-0.653118,-8.01151e-19,1.38466,880.576,847.087)">
                            <g>
                                <g transform="matrix(1,0,0,1,-29.7795,-27.7587)">
                                    <path d="M1524.66,415.882C1549.7,419.662 1571.41,444.3 1571.41,467.575C1571.41,490.85 1552.51,509.747 1529.24,509.747C1505.96,509.747 1480.81,489.452 1476.84,464.546C1472.26,435.878 1489.54,410.578 1524.66,415.882Z" style="fill:rgb(251,200,253);"/>
                                </g>
                                <g transform="matrix(2.21544,1.1985,-0.443399,1.55171,-4681.81,-4243.53)">
                                    <ellipse cx="2942.61" cy="755.947" rx="7.415" ry="10.875" style="fill:rgb(80,138,136);"/>
                                </g>
                            </g>
                            <g transform="matrix(2.21544,1.1985,-0.443399,1.55171,-4681.81,-4243.53)">
                                <ellipse cx="2942.61" cy="755.947" rx="7.415" ry="10.875" style="fill:rgb(80,138,136);"/>
                            </g>
                            <g transform="matrix(1.76337,0.941259,-0.255844,1.00315,-3488.24,-3069.81)">
                                <ellipse cx="2942.61" cy="755.947" rx="7.415" ry="10.875" style="fill:url(#_Linear2);"/>
                            </g>
                            <g transform="matrix(1.05288,0.136193,0.757162,1.02087,-1798.08,-243.672)">
                                <ellipse cx="2930.96" cy="283.067" rx="4.623" ry="4.24" style="fill:rgb(249,253,255);fill-opacity:0.78;"/>
                            </g>
                        </g>
                        <g transform="matrix(0.311049,-1.0463,1.02482,0.304663,1388.55,2952.91)">
                            <path d="M2508.53,314.398C2488.68,313.579 2444.72,316.246 2452.76,335.331C2468.3,372.24 2530.25,456.729 2542.09,457.658C2552.38,458.467 2562.03,448.912 2567.76,440.318C2605.02,384.369 2552.14,316.197 2508.53,314.398Z" style="fill:rgb(42,85,156);"/>
                        </g>
                        <g transform="matrix(0.311049,-1.0463,1.02482,0.304663,1591.49,2839.78)">
                            <path d="M2508.53,314.398C2488.68,313.579 2444.72,316.246 2452.76,335.331C2468.3,372.24 2530.25,456.729 2542.09,457.658C2552.38,458.467 2562.03,448.912 2567.76,440.318C2605.02,384.369 2552.14,316.197 2508.53,314.398Z" style="fill:rgb(42,85,156);"/>
                        </g>
                    </g>
                    <g transform="matrix(1,0,0,1,29.5368,145.715)">
                        <path d="M2899.87,622.04C2802.34,558.278 2612.65,674.006 2554.01,777.905C2495.38,881.804 2519.1,1147.82 2519.1,1147.82L2796.35,1045.52L2805.46,1006.71L2951.95,897.912C2951.95,897.912 2997.39,685.802 2899.87,622.04Z" style="fill:rgb(91,5,152);"/>
                    </g>
                    <g transform="matrix(1,0,0,1,-28.6717,112.108)">
                        <path d="M2957.67,655.234C2783.36,528.238 2612.65,674.006 2554.01,777.905C2495.38,881.804 2519.1,1147.82 2519.1,1147.82L2577.31,1181.43L2796.35,1045.52L2805.46,1006.71L3010.2,931.492C3010.2,931.492 3051.85,723.847 2957.67,655.234Z" style="fill:rgb(76,13,120);"/>
                    </g>
                    <g transform="matrix(1,0,0,1,29.5368,145.715)">
                        <path d="M2899.87,622.04C2802.34,558.278 2612.65,674.006 2554.01,777.905C2495.38,881.804 2519.1,1147.82 2519.1,1147.82L2796.35,1045.52L2805.46,1006.71L2951.95,897.912C2951.95,897.912 2997.39,685.802 2899.87,622.04Z" style="fill:rgb(91,5,152);"/>
                    </g>
                    <g transform="matrix(-0.518329,0.0903443,-0.141927,-0.81427,3913.58,1231.15)">
                        <path d="M2529.2,525.595C2429.48,547.311 2441.07,635.359 2412.72,670.956C2374.14,719.409 2439.3,747.34 2509.53,739.665C2566.16,733.477 2672.11,656.298 2656.34,581.851C2648.06,542.761 2594.75,511.32 2529.2,525.595Z" style="fill:rgb(14,57,128);"/>
                    </g>
                    <g transform="matrix(8.88023e-18,0.384528,-0.5318,4.72287e-17,2906.44,-63.1767)">
                        <path d="M2628.39,532.993C2528.67,554.709 2441.07,635.359 2412.72,670.956C2374.14,719.409 2399.14,768.42 2464.72,750.659C2509,738.667 2616.66,684.297 2683.54,605.714C2713.06,571.033 2693.94,518.718 2628.39,532.993Z" style="fill:rgb(5,60,152);"/>
                    </g>
                    <g transform="matrix(8.88023e-18,0.384528,-0.5318,4.72287e-17,2877.88,-13.7208)">
                        <path d="M2628.39,532.993C2528.67,554.709 2441.07,635.359 2412.72,670.956C2374.14,719.409 2399.14,768.42 2464.72,750.659C2509,738.667 2616.66,684.297 2683.54,605.714C2713.06,571.033 2693.94,518.718 2628.39,532.993Z" style="fill:rgb(5,60,152);"/>
                    </g>
                    <g transform="matrix(8.88023e-18,0.384528,-0.5318,4.72287e-17,2859.29,35.877)">
                        <path d="M2628.39,532.993C2528.67,554.709 2441.07,635.359 2412.72,670.956C2374.14,719.409 2399.14,768.42 2464.72,750.659C2509,738.667 2616.66,684.297 2683.54,605.714C2713.06,571.033 2693.94,518.718 2628.39,532.993Z" style="fill:rgb(5,60,152);"/>
                    </g>
                    <g transform="matrix(0.487089,-0.198925,-0.312501,-0.765194,1912.79,1757.49)">
                        <path d="M2529.2,525.595C2429.48,547.311 2441.07,635.359 2412.72,670.956C2374.14,719.409 2439.3,747.34 2509.53,739.665C2566.16,733.477 2672.11,656.298 2656.34,581.851C2648.06,542.761 2594.75,511.32 2529.2,525.595Z" style="fill:rgb(14,57,128);"/>
                    </g>
                    <g transform="matrix(0.20435,0.325735,0.450489,-0.282614,2078.1,125.838)">
                        <path d="M2628.39,532.993C2528.67,554.709 2441.07,635.359 2412.72,670.956C2374.14,719.409 2399.14,768.42 2464.72,750.659C2509,738.667 2616.66,684.297 2683.54,605.714C2713.06,571.033 2693.94,518.718 2628.39,532.993Z" style="fill:rgb(5,60,152);"/>
                    </g>
                    <g transform="matrix(6.12323e-17,1,-1,6.12323e-17,3375.27,-1809.82)">
                        <path d="M2601.66,489.949C2502.97,491.017 2448.95,561.671 2436.57,596.839C2424.19,632.006 2455.75,709.031 2527.39,700.952C2527.39,700.952 2637.78,693.872 2678.38,599.003C2693.44,563.807 2668.74,489.222 2601.66,489.949Z" style="fill:rgb(42,85,156);"/>
                    </g>
                    <g transform="matrix(0.20435,0.325735,0.450489,-0.282614,2128.57,152.558)">
                        <path d="M2628.39,532.993C2528.67,554.709 2441.07,635.359 2412.72,670.956C2374.14,719.409 2399.14,768.42 2464.72,750.659C2509,738.667 2616.66,684.297 2683.54,605.714C2713.06,571.033 2693.94,518.718 2628.39,532.993Z" style="fill:rgb(5,60,152);"/>
                    </g>
                    <g transform="matrix(0.20435,0.325735,0.450489,-0.282614,2170.68,184.691)">
                        <path d="M2628.39,532.993C2528.67,554.709 2441.07,635.359 2412.72,670.956C2374.14,719.409 2399.14,768.42 2464.72,750.659C2509,738.667 2616.66,684.297 2683.54,605.714C2713.06,571.033 2693.94,518.718 2628.39,532.993Z" style="fill:rgb(5,60,152);"/>
                    </g>
                </g>
                <g transform="matrix(1,0,0,1,1608.65,2609.45)">
                    <g id="Crystal40" serif:id="Crystal" transform="matrix(0.34568,-0.0109865,0.0109865,0.34568,1869.59,895.669)">
                        <g transform="matrix(0.999672,0.0256283,-0.0256283,0.999672,731.408,-154.146)">
                            <path d="M2005.4,174.661L2215.7,358.972L2118.78,1035.72L2005.4,1101.18L1889.9,1035.72L1795.1,358.972L2005.4,174.661Z" style="fill:rgb(42,74,180);fill-opacity:0.93;stroke:rgb(227,227,227);stroke-opacity:0.55;stroke-width:3.2px;"/>
                        </g>
                        <g transform="matrix(0.999672,0.0256283,-0.0256283,0.999672,731.408,-154.146)">
                            <path d="M1795.1,359.058L2005.4,443.401L2215.7,358.494" style="fill:none;stroke:rgb(227,227,227);stroke-opacity:0.55;stroke-width:3.2px;"/>
                        </g>
                        <g transform="matrix(0.999672,0.0256283,-0.0256283,0.999672,731.408,-154.146)">
                            <path d="M2005.4,174.661L2005.4,1101.18" style="fill:none;stroke:rgb(227,227,227);stroke-opacity:0.55;stroke-width:3.2px;"/>
                        </g>
                    </g>
                    <g id="Crystal41" serif:id="Crystal" transform="matrix(0.256043,0.0247826,-0.0294338,0.304097,2211.81,835.174)">
                        <g transform="matrix(0.999672,0.0256283,-0.0256283,0.999672,731.408,-154.146)">
                            <path d="M2005.4,174.661L2215.7,358.972L2118.78,1035.72L2005.4,1101.18L1889.9,1035.72L1795.1,358.972L2005.4,174.661Z" style="fill:rgb(42,74,180);fill-opacity:0.93;stroke:rgb(227,227,227);stroke-opacity:0.55;stroke-width:3.2px;"/>
                        </g>
                        <g transform="matrix(0.999672,0.0256283,-0.0256283,0.999672,731.408,-154.146)">
                            <path d="M1795.1,359.058L2005.4,443.401L2215.7,358.494" style="fill:none;stroke:rgb(227,227,227);stroke-opacity:0.55;stroke-width:3.2px;"/>
                        </g>
                        <g transform="matrix(0.999672,0.0256283,-0.0256283,0.999672,731.408,-154.146)">
                            <path d="M2005.4,174.661L2005.4,1101.18" style="fill:none;stroke:rgb(227,227,227);stroke-opacity:0.55;stroke-width:3.2px;"/>
                        </g>
                    </g>
                    <g id="Crystal42" serif:id="Crystal" transform="matrix(0.0369694,0.062831,-0.0928256,0.054618,2848.97,994.854)">
                        <g transform="matrix(0.999672,0.0256283,-0.0256283,0.999672,731.408,-154.146)">
                            <path d="M2005.4,174.661L2215.7,358.972L2118.78,1035.72L2005.4,1101.18L1889.9,1035.72L1795.1,358.972L2005.4,174.661Z" style="fill:rgb(42,74,180);fill-opacity:0.93;stroke:rgb(227,227,227);stroke-opacity:0.55;stroke-width:3.2px;"/>
                        </g>
                        <g transform="matrix(0.999672,0.0256283,-0.0256283,0.999672,731.408,-154.146)">
                            <path d="M1795.1,359.058L2005.4,443.401L2215.7,358.494" style="fill:none;stroke:rgb(227,227,227);stroke-opacity:0.55;stroke-width:3.2px;"/>
                        </g>
                        <g transform="matrix(0.999672,0.0256283,-0.0256283,0.999672,731.408,-154.146)">
                            <path d="M2005.4,174.661L2005.4,1101.18" style="fill:none;stroke:rgb(227,227,227);stroke-opacity:0.55;stroke-width:3.2px;"/>
                        </g>
                    </g>
                    <g id="Crystal43" serif:id="Crystal" transform="matrix(0.123828,0.0751185,-0.0749587,0.123564,2604.9,885.488)">
                        <g transform="matrix(0.999672,0.0256283,-0.0256283,0.999672,731.408,-154.146)">
                            <path d="M2005.4,174.661L2215.7,358.972L2118.78,1035.72L2005.4,1101.18L1889.9,1035.72L1795.1,358.972L2005.4,174.661Z" style="fill:rgb(42,74,180);fill-opacity:0.93;stroke:rgb(227,227,227);stroke-opacity:0.55;stroke-width:3.2px;"/>
                        </g>
                        <g transform="matrix(0.999672,0.0256283,-0.0256283,0.999672,731.408,-154.146)">
                            <path d="M1795.1,359.058L2005.4,443.401L2215.7,358.494" style="fill:none;stroke:rgb(227,227,227);stroke-opacity:0.55;stroke-width:3.2px;"/>
                        </g>
                        <g transform="matrix(0.999672,0.0256283,-0.0256283,0.999672,731.408,-154.146)">
                            <path d="M2005.4,174.661L2005.4,1101.18" style="fill:none;stroke:rgb(227,227,227);stroke-opacity:0.55;stroke-width:3.2px;"/>
                        </g>
                    </g>
                    <g id="Crystal44" serif:id="Crystal" transform="matrix(0.0618718,0.0361284,-0.0306543,0.0524971,2742.8,1070.28)">
                        <g transform="matrix(0.999672,0.0256283,-0.0256283,0.999672,731.408,-154.146)">
                            <path d="M2005.4,174.661L2215.7,358.972L2118.78,1035.72L2005.4,1101.18L1889.9,1035.72L1795.1,358.972L2005.4,174.661Z" style="fill:rgb(42,74,180);fill-opacity:0.93;stroke:rgb(227,227,227);stroke-opacity:0.55;stroke-width:3.2px;"/>
                        </g>
                        <g transform="matrix(0.999672,0.0256283,-0.0256283,0.999672,731.408,-154.146)">
                            <path d="M1795.1,359.058L2005.4,443.401L2215.7,358.494" style="fill:none;stroke:rgb(227,227,227);stroke-opacity:0.55;stroke-width:3.2px;"/>
                        </g>
                        <g transform="matrix(0.999672,0.0256283,-0.0256283,0.999672,731.408,-154.146)">
                            <path d="M2005.4,174.661L2005.4,1101.18" style="fill:none;stroke:rgb(227,227,227);stroke-opacity:0.55;stroke-width:3.2px;"/>
                        </g>
                    </g>
                    <g id="Crystal45" serif:id="Crystal" transform="matrix(0.306057,-0.118765,0.126241,0.325321,1861.17,1192.45)">
                        <g transform="matrix(0.999672,0.0256283,-0.0256283,0.999672,731.408,-154.146)">
                            <path d="M2005.4,174.661L2215.7,358.972L2118.78,1035.72L2005.4,1101.18L1889.9,1035.72L1795.1,358.972L2005.4,174.661Z" style="fill:rgb(42,74,180);fill-opacity:0.93;stroke:rgb(227,227,227);stroke-opacity:0.55;stroke-width:3.2px;"/>
                        </g>
                        <g transform="matrix(0.999672,0.0256283,-0.0256283,0.999672,731.408,-154.146)">
                            <path d="M1795.1,359.058L2005.4,443.401L2215.7,358.494" style="fill:none;stroke:rgb(227,227,227);stroke-opacity:0.55;stroke-width:3.2px;"/>
                        </g>
                        <g transform="matrix(0.999672,0.0256283,-0.0256283,0.999672,731.408,-154.146)">
                            <path d="M2005.4,174.661L2005.4,1101.18" style="fill:none;stroke:rgb(227,227,227);stroke-opacity:0.55;stroke-width:3.2px;"/>
                        </g>
                    </g>
                    <g id="Crystal46" serif:id="Crystal" transform="matrix(-0.227983,0.0166686,0.0166686,0.227983,3371.01,944.387)">
                        <g transform="matrix(0.999672,0.0256283,-0.0256283,0.999672,731.408,-154.146)">
                            <path d="M2005.4,174.661L2215.7,358.972L2118.78,1035.72L2005.4,1101.18L1889.9,1035.72L1795.1,358.972L2005.4,174.661Z" style="fill:rgb(42,74,180);fill-opacity:0.93;stroke:rgb(227,227,227);stroke-opacity:0.55;stroke-width:3.2px;"/>
                        </g>
                        <g transform="matrix(0.999672,0.0256283,-0.0256283,0.999672,731.408,-154.146)">
                            <path d="M1795.1,359.058L2005.4,443.401L2215.7,358.494" style="fill:none;stroke:rgb(227,227,227);stroke-opacity:0.55;stroke-width:3.2px;"/>
                        </g>
                        <g transform="matrix(0.999672,0.0256283,-0.0256283,0.999672,731.408,-154.146)">
                            <path d="M2005.4,174.661L2005.4,1101.18" style="fill:none;stroke:rgb(227,227,227);stroke-opacity:0.55;stroke-width:3.2px;"/>
                        </g>
                    </g>
                    <g id="Crystal47" serif:id="Crystal" transform="matrix(-0.0369694,0.062831,0.0928256,0.054618,2858.86,1006.86)">
                        <g transform="matrix(0.999672,0.0256283,-0.0256283,0.999672,731.408,-154.146)">
                            <path d="M2005.4,174.661L2215.7,358.972L2118.78,1035.72L2005.4,1101.18L1889.9,1035.72L1795.1,358.972L2005.4,174.661Z" style="fill:rgb(42,74,180);fill-opacity:0.93;stroke:rgb(227,227,227);stroke-opacity:0.55;stroke-width:3.2px;"/>
                        </g>
                        <g transform="matrix(0.999672,0.0256283,-0.0256283,0.999672,731.408,-154.146)">
                            <path d="M1795.1,359.058L2005.4,443.401L2215.7,358.494" style="fill:none;stroke:rgb(227,227,227);stroke-opacity:0.55;stroke-width:3.2px;"/>
                        </g>
                        <g transform="matrix(0.999672,0.0256283,-0.0256283,0.999672,731.408,-154.146)">
                            <path d="M2005.4,174.661L2005.4,1101.18" style="fill:none;stroke:rgb(227,227,227);stroke-opacity:0.55;stroke-width:3.2px;"/>
                        </g>
                    </g>
                    <g id="Crystal48" serif:id="Crystal" transform="matrix(-0.123828,0.0751185,0.0749587,0.123564,3102.94,897.497)">
                        <g transform="matrix(0.999672,0.0256283,-0.0256283,0.999672,731.408,-154.146)">
                            <path d="M2005.4,174.661L2215.7,358.972L2118.78,1035.72L2005.4,1101.18L1889.9,1035.72L1795.1,358.972L2005.4,174.661Z" style="fill:rgb(42,74,180);fill-opacity:0.93;stroke:rgb(227,227,227);stroke-opacity:0.55;stroke-width:3.2px;"/>
                        </g>
                        <g transform="matrix(0.999672,0.0256283,-0.0256283,0.999672,731.408,-154.146)">
                            <path d="M1795.1,359.058L2005.4,443.401L2215.7,358.494" style="fill:none;stroke:rgb(227,227,227);stroke-opacity:0.55;stroke-width:3.2px;"/>
                        </g>
                        <g transform="matrix(0.999672,0.0256283,-0.0256283,0.999672,731.408,-154.146)">
                            <path d="M2005.4,174.661L2005.4,1101.18" style="fill:none;stroke:rgb(227,227,227);stroke-opacity:0.55;stroke-width:3.2px;"/>
                        </g>
                    </g>
                    <g id="Crystal49" serif:id="Crystal" transform="matrix(0.22651,0.0307781,-0.0307781,0.22651,2289.67,908.028)">
                        <g transform="matrix(0.999672,0.0256283,-0.0256283,0.999672,731.408,-154.146)">
                            <path d="M2005.4,174.661L2215.7,358.972L2118.78,1035.72L2005.4,1101.18L1889.9,1035.72L1795.1,358.972L2005.4,174.661Z" style="fill:rgb(42,74,180);fill-opacity:0.93;stroke:rgb(227,227,227);stroke-opacity:0.55;stroke-width:3.2px;"/>
                        </g>
                        <g transform="matrix(0.999672,0.0256283,-0.0256283,0.999672,731.408,-154.146)">
                            <path d="M1795.1,359.058L2005.4,443.401L2215.7,358.494" style="fill:none;stroke:rgb(227,227,227);stroke-opacity:0.55;stroke-width:3.2px;"/>
                        </g>
                        <g transform="matrix(0.999672,0.0256283,-0.0256283,0.999672,731.408,-154.146)">
                            <path d="M2005.4,174.661L2005.4,1101.18" style="fill:none;stroke:rgb(227,227,227);stroke-opacity:0.55;stroke-width:3.2px;"/>
                        </g>
                    </g>
                    <g id="Crystal50" serif:id="Crystal" transform="matrix(0.207028,-0.0327891,0.0327891,0.207028,2262.05,1121.01)">
                        <g transform="matrix(0.999672,0.0256283,-0.0256283,0.999672,731.408,-154.146)">
                            <path d="M2005.4,174.661L2215.7,358.972L2118.78,1035.72L2005.4,1101.18L1889.9,1035.72L1795.1,358.972L2005.4,174.661Z" style="fill:rgb(42,74,180);fill-opacity:0.93;stroke:rgb(227,227,227);stroke-opacity:0.55;stroke-width:3.2px;"/>
                        </g>
                        <g transform="matrix(0.999672,0.0256283,-0.0256283,0.999672,731.408,-154.146)">
                            <path d="M1795.1,359.058L2005.4,443.401L2215.7,358.494" style="fill:none;stroke:rgb(227,227,227);stroke-opacity:0.55;stroke-width:3.2px;"/>
                        </g>
                        <g transform="matrix(0.999672,0.0256283,-0.0256283,0.999672,731.408,-154.146)">
                            <path d="M2005.4,174.661L2005.4,1101.18" style="fill:none;stroke:rgb(227,227,227);stroke-opacity:0.55;stroke-width:3.2px;"/>
                        </g>
                    </g>
                    <g id="Crystal51" serif:id="Crystal" transform="matrix(-0.0618718,0.0361284,0.0306543,0.0524971,2965.04,1082.29)">
                        <g transform="matrix(0.999672,0.0256283,-0.0256283,0.999672,731.408,-154.146)">
                            <path d="M2005.4,174.661L2215.7,358.972L2118.78,1035.72L2005.4,1101.18L1889.9,1035.72L1795.1,358.972L2005.4,174.661Z" style="fill:rgb(42,74,180);fill-opacity:0.93;stroke:rgb(227,227,227);stroke-opacity:0.55;stroke-width:3.2px;"/>
                        </g>
                        <g transform="matrix(0.999672,0.0256283,-0.0256283,0.999672,731.408,-154.146)">
                            <path d="M1795.1,359.058L2005.4,443.401L2215.7,358.494" style="fill:none;stroke:rgb(227,227,227);stroke-opacity:0.55;stroke-width:3.2px;"/>
                        </g>
                        <g transform="matrix(0.999672,0.0256283,-0.0256283,0.999672,731.408,-154.146)">
                            <path d="M2005.4,174.661L2005.4,1101.18" style="fill:none;stroke:rgb(227,227,227);stroke-opacity:0.55;stroke-width:3.2px;"/>
                        </g>
                    </g>
                    <g id="Crystal52" serif:id="Crystal" transform="matrix(0.0603952,0.0163924,-0.0139087,0.0512443,2724.35,1134.12)">
                        <g transform="matrix(0.999672,0.0256283,-0.0256283,0.999672,731.408,-154.146)">
                            <path d="M2005.4,174.661L2215.7,358.972L2118.78,1035.72L2005.4,1101.18L1889.9,1035.72L1795.1,358.972L2005.4,174.661Z" style="fill:rgb(42,74,180);fill-opacity:0.93;stroke:rgb(227,227,227);stroke-opacity:0.55;stroke-width:3.2px;"/>
                        </g>
                        <g transform="matrix(0.999672,0.0256283,-0.0256283,0.999672,731.408,-154.146)">
                            <path d="M1795.1,359.058L2005.4,443.401L2215.7,358.494" style="fill:none;stroke:rgb(227,227,227);stroke-opacity:0.55;stroke-width:3.2px;"/>
                        </g>
                        <g transform="matrix(0.999672,0.0256283,-0.0256283,0.999672,731.408,-154.146)">
                            <path d="M2005.4,174.661L2005.4,1101.18" style="fill:none;stroke:rgb(227,227,227);stroke-opacity:0.55;stroke-width:3.2px;"/>
                        </g>
                    </g>
                </g>
            </g>
        </g>
    </g>
    <defs>
        <linearGradient id="_Linear1" x1="0" y1="0" x2="1" y2="0.323332" gradientUnits="userSpaceOnUse" gradientTransform="matrix(13.3359,12.1922,-14.2384,11.4194,2942.72,756.064)"><stop offset="0" style="stop-color:rgb(74,89,97);stop-opacity:1"/><stop offset="1" style="stop-color:rgb(74,89,97);stop-opacity:0"/></linearGradient>
        <linearGradient id="_Linear2" x1="0" y1="0" x2="1" y2="0.323332" gradientUnits="userSpaceOnUse" gradientTransform="matrix(13.3359,12.1922,-14.2384,11.4194,2942.72,756.064)"><stop offset="0" style="stop-color:rgb(74,89,97);stop-opacity:1"/><stop offset="1" style="stop-color:rgb(74,89,97);stop-opacity:0"/></linearGradient>
    </defs>
</svg>
