<?xml version="1.0" encoding="UTF-8" standalone="no"?>
<!DOCTYPE svg PUBLIC "-//W3C//DTD SVG 1.1//EN" "http://www.w3.org/Graphics/SVG/1.1/DTD/svg11.dtd">
<svg width="100%" height="100%" viewBox="0 0 377 445" version="1.1" xmlns="http://www.w3.org/2000/svg" xmlns:xlink="http://www.w3.org/1999/xlink" xml:space="preserve" xmlns:serif="http://www.serif.com/" style="fill-rule:evenodd;clip-rule:evenodd;stroke-linecap:round;stroke-linejoin:round;stroke-miterlimit:1.5;">
    <g transform="matrix(1,0,0,1,-1770.3,-139.375)">
        <g transform="matrix(-1.16454,-0.0283471,-0.0283471,1.16454,5263.32,-812.602)">
            <g id="crystal1">
                <g id="Crystal" transform="matrix(0.299099,0.0315571,-0.0315571,0.299099,2036.66,779.668)">
                    <g transform="matrix(0.999672,0.0256283,-0.0256283,0.999672,731.408,-154.146)">
                        <path d="M2005.4,174.661L2215.7,358.972L2118.78,1035.72L2005.4,1101.18L1889.9,1035.72L1795.1,358.972L2005.4,174.661Z" style="fill:rgb(42,74,180);fill-opacity:0.93;stroke:rgb(227,227,227);stroke-opacity:0.55;stroke-width:3.2px;"/>
                    </g>
                    <g transform="matrix(0.999672,0.0256283,-0.0256283,0.999672,731.408,-154.146)">
                        <path d="M1795.1,359.058L2005.4,443.401L2215.7,358.494" style="fill:none;stroke:rgb(227,227,227);stroke-opacity:0.55;stroke-width:3.2px;"/>
                    </g>
                    <g transform="matrix(0.999672,0.0256283,-0.0256283,0.999672,731.408,-154.146)">
                        <path d="M2005.4,174.661L2005.4,1101.18" style="fill:none;stroke:rgb(227,227,227);stroke-opacity:0.55;stroke-width:3.2px;"/>
                    </g>
                </g>
                <g id="Crystal1" serif:id="Crystal" transform="matrix(0.249196,0.0638226,-0.0758009,0.295965,2262.29,745.307)">
                    <g transform="matrix(0.999672,0.0256283,-0.0256283,0.999672,731.408,-154.146)">
                        <path d="M2005.4,174.661L2215.7,358.972L2118.78,1035.72L2005.4,1101.18L1889.9,1035.72L1795.1,358.972L2005.4,174.661Z" style="fill:rgb(42,74,180);fill-opacity:0.93;stroke:rgb(227,227,227);stroke-opacity:0.55;stroke-width:3.2px;"/>
                    </g>
                    <g transform="matrix(0.999672,0.0256283,-0.0256283,0.999672,731.408,-154.146)">
                        <path d="M1795.1,359.058L2005.4,443.401L2215.7,358.494" style="fill:none;stroke:rgb(227,227,227);stroke-opacity:0.55;stroke-width:3.2px;"/>
                    </g>
                    <g transform="matrix(0.999672,0.0256283,-0.0256283,0.999672,731.408,-154.146)">
                        <path d="M2005.4,174.661L2005.4,1101.18" style="fill:none;stroke:rgb(227,227,227);stroke-opacity:0.55;stroke-width:3.2px;"/>
                    </g>
                </g>
                <g id="Crystal2" serif:id="Crystal" transform="matrix(0.060942,0.0400068,-0.0591054,0.0900348,2792.75,1009.48)">
                    <g transform="matrix(0.999672,0.0256283,-0.0256283,0.999672,731.408,-154.146)">
                        <path d="M2005.4,174.661L2215.7,358.972L2118.78,1035.72L2005.4,1101.18L1889.9,1035.72L1795.1,358.972L2005.4,174.661Z" style="fill:rgb(42,74,180);fill-opacity:0.93;stroke:rgb(227,227,227);stroke-opacity:0.55;stroke-width:3.2px;"/>
                    </g>
                    <g transform="matrix(0.999672,0.0256283,-0.0256283,0.999672,731.408,-154.146)">
                        <path d="M1795.1,359.058L2005.4,443.401L2215.7,358.494" style="fill:none;stroke:rgb(227,227,227);stroke-opacity:0.55;stroke-width:3.2px;"/>
                    </g>
                    <g transform="matrix(0.999672,0.0256283,-0.0256283,0.999672,731.408,-154.146)">
                        <path d="M2005.4,174.661L2005.4,1101.18" style="fill:none;stroke:rgb(227,227,227);stroke-opacity:0.55;stroke-width:3.2px;"/>
                    </g>
                </g>
                <g id="Crystal3" serif:id="Crystal" transform="matrix(0.123828,0.0751185,-0.0749587,0.123564,2604.9,885.488)">
                    <g transform="matrix(0.999672,0.0256283,-0.0256283,0.999672,731.408,-154.146)">
                        <path d="M2005.4,174.661L2215.7,358.972L2118.78,1035.72L2005.4,1101.18L1889.9,1035.72L1795.1,358.972L2005.4,174.661Z" style="fill:rgb(42,74,180);fill-opacity:0.93;stroke:rgb(227,227,227);stroke-opacity:0.55;stroke-width:3.2px;"/>
                    </g>
                    <g transform="matrix(0.999672,0.0256283,-0.0256283,0.999672,731.408,-154.146)">
                        <path d="M1795.1,359.058L2005.4,443.401L2215.7,358.494" style="fill:none;stroke:rgb(227,227,227);stroke-opacity:0.55;stroke-width:3.2px;"/>
                    </g>
                    <g transform="matrix(0.999672,0.0256283,-0.0256283,0.999672,731.408,-154.146)">
                        <path d="M2005.4,174.661L2005.4,1101.18" style="fill:none;stroke:rgb(227,227,227);stroke-opacity:0.55;stroke-width:3.2px;"/>
                    </g>
                </g>
                <g id="Crystal4" serif:id="Crystal" transform="matrix(0.0695213,0.0173252,-0.0147002,0.0589876,2738.85,1102.9)">
                    <g transform="matrix(0.999672,0.0256283,-0.0256283,0.999672,731.408,-154.146)">
                        <path d="M2005.4,174.661L2215.7,358.972L2118.78,1035.72L2005.4,1101.18L1889.9,1035.72L1795.1,358.972L2005.4,174.661Z" style="fill:rgb(42,74,180);fill-opacity:0.93;stroke:rgb(227,227,227);stroke-opacity:0.55;stroke-width:3.2px;"/>
                    </g>
                    <g transform="matrix(0.999672,0.0256283,-0.0256283,0.999672,731.408,-154.146)">
                        <path d="M1795.1,359.058L2005.4,443.401L2215.7,358.494" style="fill:none;stroke:rgb(227,227,227);stroke-opacity:0.55;stroke-width:3.2px;"/>
                    </g>
                    <g transform="matrix(0.999672,0.0256283,-0.0256283,0.999672,731.408,-154.146)">
                        <path d="M2005.4,174.661L2005.4,1101.18" style="fill:none;stroke:rgb(227,227,227);stroke-opacity:0.55;stroke-width:3.2px;"/>
                    </g>
                </g>
                <g id="Crystal5" serif:id="Crystal" transform="matrix(0.321906,-0.0644407,0.0684968,0.342168,1825.5,1055.16)">
                    <g transform="matrix(0.999672,0.0256283,-0.0256283,0.999672,731.408,-154.146)">
                        <path d="M2005.4,174.661L2215.7,358.972L2118.78,1035.72L2005.4,1101.18L1889.9,1035.72L1795.1,358.972L2005.4,174.661Z" style="fill:rgb(42,74,180);fill-opacity:0.93;stroke:rgb(227,227,227);stroke-opacity:0.55;stroke-width:3.2px;"/>
                    </g>
                    <g transform="matrix(0.999672,0.0256283,-0.0256283,0.999672,731.408,-154.146)">
                        <path d="M1795.1,359.058L2005.4,443.401L2215.7,358.494" style="fill:none;stroke:rgb(227,227,227);stroke-opacity:0.55;stroke-width:3.2px;"/>
                    </g>
                    <g transform="matrix(0.999672,0.0256283,-0.0256283,0.999672,731.408,-154.146)">
                        <path d="M2005.4,174.661L2005.4,1101.18" style="fill:none;stroke:rgb(227,227,227);stroke-opacity:0.55;stroke-width:3.2px;"/>
                    </g>
                </g>
                <g id="Crystal6" serif:id="Crystal" transform="matrix(-0.228589,-0.000913385,-0.000913385,0.228589,3353.11,1039.47)">
                    <g transform="matrix(0.999672,0.0256283,-0.0256283,0.999672,731.408,-154.146)">
                        <path d="M2005.4,174.661L2215.7,358.972L2118.78,1035.72L2005.4,1101.18L1889.9,1035.72L1795.1,358.972L2005.4,174.661Z" style="fill:rgb(42,74,180);fill-opacity:0.93;stroke:rgb(227,227,227);stroke-opacity:0.55;stroke-width:3.2px;"/>
                    </g>
                    <g transform="matrix(0.999672,0.0256283,-0.0256283,0.999672,731.408,-154.146)">
                        <path d="M1795.1,359.058L2005.4,443.401L2215.7,358.494" style="fill:none;stroke:rgb(227,227,227);stroke-opacity:0.55;stroke-width:3.2px;"/>
                    </g>
                    <g transform="matrix(0.999672,0.0256283,-0.0256283,0.999672,731.408,-154.146)">
                        <path d="M2005.4,174.661L2005.4,1101.18" style="fill:none;stroke:rgb(227,227,227);stroke-opacity:0.55;stroke-width:3.2px;"/>
                    </g>
                </g>
                <g id="Crystal7" serif:id="Crystal" transform="matrix(-0.0369694,0.062831,0.0928256,0.054618,2858.86,1006.86)">
                    <g transform="matrix(0.999672,0.0256283,-0.0256283,0.999672,731.408,-154.146)">
                        <path d="M2005.4,174.661L2215.7,358.972L2118.78,1035.72L2005.4,1101.18L1889.9,1035.72L1795.1,358.972L2005.4,174.661Z" style="fill:rgb(42,74,180);fill-opacity:0.93;stroke:rgb(227,227,227);stroke-opacity:0.55;stroke-width:3.2px;"/>
                    </g>
                    <g transform="matrix(0.999672,0.0256283,-0.0256283,0.999672,731.408,-154.146)">
                        <path d="M1795.1,359.058L2005.4,443.401L2215.7,358.494" style="fill:none;stroke:rgb(227,227,227);stroke-opacity:0.55;stroke-width:3.2px;"/>
                    </g>
                    <g transform="matrix(0.999672,0.0256283,-0.0256283,0.999672,731.408,-154.146)">
                        <path d="M2005.4,174.661L2005.4,1101.18" style="fill:none;stroke:rgb(227,227,227);stroke-opacity:0.55;stroke-width:3.2px;"/>
                    </g>
                </g>
                <g id="Crystal8" serif:id="Crystal" transform="matrix(-0.123828,0.0751185,0.0749587,0.123564,3102.94,897.497)">
                    <g transform="matrix(0.999672,0.0256283,-0.0256283,0.999672,731.408,-154.146)">
                        <path d="M2005.4,174.661L2215.7,358.972L2118.78,1035.72L2005.4,1101.18L1889.9,1035.72L1795.1,358.972L2005.4,174.661Z" style="fill:rgb(42,74,180);fill-opacity:0.93;stroke:rgb(227,227,227);stroke-opacity:0.55;stroke-width:3.2px;"/>
                    </g>
                    <g transform="matrix(0.999672,0.0256283,-0.0256283,0.999672,731.408,-154.146)">
                        <path d="M1795.1,359.058L2005.4,443.401L2215.7,358.494" style="fill:none;stroke:rgb(227,227,227);stroke-opacity:0.55;stroke-width:3.2px;"/>
                    </g>
                    <g transform="matrix(0.999672,0.0256283,-0.0256283,0.999672,731.408,-154.146)">
                        <path d="M2005.4,174.661L2005.4,1101.18" style="fill:none;stroke:rgb(227,227,227);stroke-opacity:0.55;stroke-width:3.2px;"/>
                    </g>
                </g>
                <g id="Crystal9" serif:id="Crystal" transform="matrix(0.228022,0.0161239,-0.0161239,0.228022,2271.71,954.03)">
                    <g transform="matrix(0.999672,0.0256283,-0.0256283,0.999672,731.408,-154.146)">
                        <path d="M2005.4,174.661L2215.7,358.972L2118.78,1035.72L2005.4,1101.18L1889.9,1035.72L1795.1,358.972L2005.4,174.661Z" style="fill:rgb(42,74,180);fill-opacity:0.93;stroke:rgb(227,227,227);stroke-opacity:0.55;stroke-width:3.2px;"/>
                    </g>
                    <g transform="matrix(0.999672,0.0256283,-0.0256283,0.999672,731.408,-154.146)">
                        <path d="M1795.1,359.058L2005.4,443.401L2215.7,358.494" style="fill:none;stroke:rgb(227,227,227);stroke-opacity:0.55;stroke-width:3.2px;"/>
                    </g>
                    <g transform="matrix(0.999672,0.0256283,-0.0256283,0.999672,731.408,-154.146)">
                        <path d="M2005.4,174.661L2005.4,1101.18" style="fill:none;stroke:rgb(227,227,227);stroke-opacity:0.55;stroke-width:3.2px;"/>
                    </g>
                </g>
                <g id="Crystal10" serif:id="Crystal" transform="matrix(0.207028,-0.0327891,0.0327891,0.207028,2236.91,1145.86)">
                    <g transform="matrix(0.999672,0.0256283,-0.0256283,0.999672,731.408,-154.146)">
                        <path d="M2005.4,174.661L2215.7,358.972L2118.78,1035.72L2005.4,1101.18L1889.9,1035.72L1795.1,358.972L2005.4,174.661Z" style="fill:rgb(42,74,180);fill-opacity:0.93;stroke:rgb(227,227,227);stroke-opacity:0.55;stroke-width:3.2px;"/>
                    </g>
                    <g transform="matrix(0.999672,0.0256283,-0.0256283,0.999672,731.408,-154.146)">
                        <path d="M1795.1,359.058L2005.4,443.401L2215.7,358.494" style="fill:none;stroke:rgb(227,227,227);stroke-opacity:0.55;stroke-width:3.2px;"/>
                    </g>
                    <g transform="matrix(0.999672,0.0256283,-0.0256283,0.999672,731.408,-154.146)">
                        <path d="M2005.4,174.661L2005.4,1101.18" style="fill:none;stroke:rgb(227,227,227);stroke-opacity:0.55;stroke-width:3.2px;"/>
                    </g>
                </g>
                <g id="Crystal11" serif:id="Crystal" transform="matrix(-0.0707918,0.0110407,0.00936783,0.0600656,2962.99,1155.45)">
                    <g transform="matrix(0.999672,0.0256283,-0.0256283,0.999672,731.408,-154.146)">
                        <path d="M2005.4,174.661L2215.7,358.972L2118.78,1035.72L2005.4,1101.18L1889.9,1035.72L1795.1,358.972L2005.4,174.661Z" style="fill:rgb(42,74,180);fill-opacity:0.93;stroke:rgb(227,227,227);stroke-opacity:0.55;stroke-width:3.2px;"/>
                    </g>
                    <g transform="matrix(0.999672,0.0256283,-0.0256283,0.999672,731.408,-154.146)">
                        <path d="M1795.1,359.058L2005.4,443.401L2215.7,358.494" style="fill:none;stroke:rgb(227,227,227);stroke-opacity:0.55;stroke-width:3.2px;"/>
                    </g>
                    <g transform="matrix(0.999672,0.0256283,-0.0256283,0.999672,731.408,-154.146)">
                        <path d="M2005.4,174.661L2005.4,1101.18" style="fill:none;stroke:rgb(227,227,227);stroke-opacity:0.55;stroke-width:3.2px;"/>
                    </g>
                </g>
                <g id="Crystal12" serif:id="Crystal" transform="matrix(0.0603952,0.0163924,-0.0139087,0.0512443,2708.78,1136.01)">
                    <g transform="matrix(0.999672,0.0256283,-0.0256283,0.999672,731.408,-154.146)">
                        <path d="M2005.4,174.661L2215.7,358.972L2118.78,1035.72L2005.4,1101.18L1889.9,1035.72L1795.1,358.972L2005.4,174.661Z" style="fill:rgb(42,74,180);fill-opacity:0.93;stroke:rgb(227,227,227);stroke-opacity:0.55;stroke-width:3.2px;"/>
                    </g>
                    <g transform="matrix(0.999672,0.0256283,-0.0256283,0.999672,731.408,-154.146)">
                        <path d="M1795.1,359.058L2005.4,443.401L2215.7,358.494" style="fill:none;stroke:rgb(227,227,227);stroke-opacity:0.55;stroke-width:3.2px;"/>
                    </g>
                    <g transform="matrix(0.999672,0.0256283,-0.0256283,0.999672,731.408,-154.146)">
                        <path d="M2005.4,174.661L2005.4,1101.18" style="fill:none;stroke:rgb(227,227,227);stroke-opacity:0.55;stroke-width:3.2px;"/>
                    </g>
                </g>
            </g>
        </g>
    </g>
</svg>
