<?xml version="1.0" encoding="UTF-8" standalone="no"?>
<!DOCTYPE svg PUBLIC "-//W3C//DTD SVG 1.1//EN" "http://www.w3.org/Graphics/SVG/1.1/DTD/svg11.dtd">
<svg width="100%" height="100%" viewBox="0 0 1263 2181" version="1.1" xmlns="http://www.w3.org/2000/svg" xmlns:xlink="http://www.w3.org/1999/xlink" xml:space="preserve" xmlns:serif="http://www.serif.com/" style="fill-rule:evenodd;clip-rule:evenodd;stroke-linejoin:round;stroke-miterlimit:2;">
    <g transform="matrix(1,0,0,1,-158.918,-1560.78)">
        <g transform="matrix(1,0,0,1,-3917.79,-1695.47)">
            <g id="dino">
                <g transform="matrix(-0.165801,-0.166186,0.0606401,-0.225266,5646.8,4552.18)">
                    <circle cx="3676.91" cy="1531.06" r="135.191" style="fill:rgb(216,122,247);"/>
                </g>
                <g transform="matrix(-0.165801,-0.166186,0.0606401,-0.225266,5566.53,4598.53)">
                    <circle cx="3676.91" cy="1531.06" r="135.191" style="fill:rgb(216,122,247);"/>
                </g>
                <g transform="matrix(-0.165801,-0.166186,0.0606401,-0.225266,5486.26,4644.87)">
                    <circle cx="3676.91" cy="1531.06" r="135.191" style="fill:rgb(216,122,247);"/>
                </g>
                <g transform="matrix(-0.165801,-0.166186,0.0606401,-0.225266,5405.99,4691.22)">
                    <circle cx="3676.91" cy="1531.06" r="135.191" style="fill:rgb(216,122,247);"/>
                </g>
                <g transform="matrix(-0.165801,-0.166186,0.0606401,-0.225266,5325.71,4737.56)">
                    <circle cx="3676.91" cy="1531.06" r="135.191" style="fill:rgb(216,122,247);"/>
                </g>
                <g transform="matrix(-0.165801,-0.166186,0.0606401,-0.225266,5245.44,4783.9)">
                    <circle cx="3676.91" cy="1531.06" r="135.191" style="fill:rgb(216,122,247);"/>
                </g>
                <g transform="matrix(-1.63231,-5.55112e-16,5.55112e-16,-1.63231,6739.11,4959.94)">
                    <g transform="matrix(-0.01248,0.999922,0.854352,0.507581,-1488.13,-1612.2)">
                        <path d="M960.912,2778.41C953.806,2767.93 916.891,2738.8 850.488,2780.84C823.171,2806.56 747.293,2888.04 662.438,2930.26C533.282,2994.51 435.568,3138.38 453.993,3154.1L646.326,3108.69L983.07,2778.73C983.07,2778.73 967.553,2788.2 960.912,2778.41Z" style="fill:rgb(204,105,236);"/>
                    </g>
                    <g transform="matrix(-0.488909,0.872335,0.872335,0.488909,-670.595,-1678.49)">
                        <path d="M1369.62,2563.1C1369.08,2576.03 1359.85,2581.35 1348.33,2575.4L1319.84,2591.84C1319.37,2604.94 1310.03,2610.32 1298.4,2604.23L1272.07,2619.42C1272.07,2619.51 1272.08,2619.6 1272.08,2619.68C1272.08,2633.96 1261.98,2639.72 1249.54,2632.53C1249.51,2632.52 1249.48,2632.5 1249.45,2632.49L1221.26,2648.76C1220.74,2661.73 1211.48,2667.07 1199.92,2661.08L1172.46,2676.93C1171.82,2689.62 1162.74,2694.85 1151.38,2689.11L1106.49,2715.02L1007.53,2659.56C1007.53,2659.56 1268.28,2453.17 1295,2493.59C1328.69,2544.55 1393.63,2549.24 1393.63,2549.24L1369.62,2563.1Z" style="fill:rgb(209,96,246);"/>
                    </g>
                    <g transform="matrix(-0.866025,-0.5,-4.48976e-16,-0.993758,2016.18,3741.2)">
                        <path d="M988.922,2651.29L1302.53,2335.74C1309.95,2313.29 1217.48,2306.2 1179.5,2335.74L865.919,2651.29L865.919,2774.29L988.922,2774.29L988.922,2651.29Z" style="fill:rgb(160,69,190);"/>
                    </g>
                    <g transform="matrix(-0.866025,-0.5,-4.48976e-16,-0.993758,2016.18,3741.2)">
                        <rect x="865.919" y="2651.29" width="123.003" height="123.003" style="fill:rgb(215,128,243);"/>
                    </g>
                    <g transform="matrix(0.101574,0.10181,-0.0371498,0.138004,562.636,188.289)">
                        <circle cx="3676.91" cy="1531.06" r="135.191" style="fill:rgb(216,122,247);"/>
                    </g>
                    <g transform="matrix(0.101574,0.10181,-0.0371498,0.138004,611.812,159.898)">
                        <circle cx="3676.91" cy="1531.06" r="135.191" style="fill:rgb(216,122,247);"/>
                    </g>
                    <g transform="matrix(0.101574,0.10181,-0.0371498,0.138004,660.988,131.506)">
                        <circle cx="3676.91" cy="1531.06" r="135.191" style="fill:rgb(216,122,247);"/>
                    </g>
                    <g transform="matrix(0.101574,0.10181,-0.0371498,0.138004,710.163,103.115)">
                        <circle cx="3676.91" cy="1531.06" r="135.191" style="fill:rgb(216,122,247);"/>
                    </g>
                    <g transform="matrix(0.101574,0.10181,-0.0371498,0.138004,759.339,74.723)">
                        <circle cx="3676.91" cy="1531.06" r="135.191" style="fill:rgb(216,122,247);"/>
                    </g>
                    <g transform="matrix(0.101574,0.10181,-0.0371498,0.138004,808.515,46.3314)">
                        <circle cx="3676.91" cy="1531.06" r="135.191" style="fill:rgb(216,122,247);"/>
                    </g>
                </g>
                <g transform="matrix(1.63231,0,0,1.63231,3460.57,2540.15)">
                    <g transform="matrix(0.866025,0.5,1.11022e-16,0.993758,279.485,-2625.48)">
                        <path d="M993.336,2655.73C986.23,2645.26 917.993,2613.69 851.59,2655.73C814.912,2678.73 472.901,3018.89 472.901,3018.89L534.363,3107.93L657.365,3107.93L993.336,2778.73C993.336,2778.73 999.977,2665.52 993.336,2655.73Z" style="fill:rgb(204,105,236);"/>
                    </g>
                    <g transform="matrix(1,0,0,1,-257.711,-1923.28)">
                        <path d="M1369.62,2563.1C1369.08,2576.03 1359.85,2581.35 1348.33,2575.4L1319.84,2591.84C1319.37,2604.94 1310.03,2610.32 1298.4,2604.23L1272.07,2619.42C1272.07,2619.51 1272.08,2619.6 1272.08,2619.68C1272.08,2633.96 1261.98,2639.72 1249.54,2632.53C1249.51,2632.52 1249.48,2632.5 1249.45,2632.49L1221.26,2648.76C1220.74,2661.73 1211.48,2667.07 1199.92,2661.08L1172.46,2676.93C1171.82,2689.62 1162.74,2694.85 1151.38,2689.11L1106.49,2715.02L1106.16,2592.6C1106.16,2592.6 1366.91,2386.21 1393.63,2426.63C1427.31,2477.58 1393.63,2549.24 1393.63,2549.24L1369.62,2563.1Z" style="fill:rgb(209,96,246);"/>
                    </g>
                    <g transform="matrix(-0.0516645,0.0298285,-6.62326e-18,0.0592847,1295.28,364.156)">
                        <circle cx="3676.91" cy="1531.06" r="135.191" style="fill:rgb(160,69,190);"/>
                    </g>
                    <g transform="matrix(0.421249,0.243208,3.93235e-19,0.491561,540.237,-842.434)">
                        <ellipse cx="708.123" cy="2560.59" rx="90.442" ry="61.769" style="fill:rgb(216,122,247);"/>
                    </g>
                    <g transform="matrix(0.309285,0.178566,2.88717e-19,0.360908,673.967,-493.545)">
                        <ellipse cx="708.123" cy="2560.59" rx="90.442" ry="61.769" style="fill:rgb(216,122,247);"/>
                    </g>
                    <g transform="matrix(0.22708,0.131105,2.11978e-19,0.264982,772.152,-237.389)">
                        <ellipse cx="708.123" cy="2560.59" rx="90.442" ry="61.769" style="fill:rgb(216,122,247);"/>
                    </g>
                    <g transform="matrix(0.166724,0.0962581,1.55636e-19,0.194552,844.241,-49.3163)">
                        <ellipse cx="708.123" cy="2560.59" rx="90.442" ry="61.769" style="fill:rgb(216,122,247);"/>
                    </g>
                    <g transform="matrix(0.12241,0.0706735,1.1427e-19,0.142842,897.169,88.7681)">
                        <ellipse cx="708.123" cy="2560.59" rx="90.442" ry="61.769" style="fill:rgb(216,122,247);"/>
                    </g>
                    <g transform="matrix(0.866025,0.5,1.11022e-16,0.993758,-7.65092,-2459.7)">
                        <rect x="865.919" y="2651.29" width="123.003" height="123.003" style="fill:rgb(215,128,243);"/>
                    </g>
                    <g transform="matrix(-0.244534,0.141182,-3.13486e-17,0.280601,1797.8,-291.201)">
                        <circle cx="3676.91" cy="1531.06" r="135.191" style="fill:rgb(160,69,190);"/>
                    </g>
                    <g transform="matrix(-0.3528,0.203689,0,0.404836,1152.52,-511.724)">
                        <ellipse cx="708.123" cy="2560.59" rx="90.442" ry="61.769" style="fill:rgb(233,165,255);"/>
                    </g>
                    <g transform="matrix(0.101574,0.10181,-0.0371498,0.138004,562.636,188.289)">
                        <circle cx="3676.91" cy="1531.06" r="135.191" style="fill:rgb(216,122,247);"/>
                    </g>
                    <g transform="matrix(0.101574,0.10181,-0.0371498,0.138004,611.812,159.898)">
                        <circle cx="3676.91" cy="1531.06" r="135.191" style="fill:rgb(216,122,247);"/>
                    </g>
                    <g transform="matrix(0.101574,0.10181,-0.0371498,0.138004,660.988,131.506)">
                        <circle cx="3676.91" cy="1531.06" r="135.191" style="fill:rgb(216,122,247);"/>
                    </g>
                    <g transform="matrix(0.101574,0.10181,-0.0371498,0.138004,710.163,103.115)">
                        <circle cx="3676.91" cy="1531.06" r="135.191" style="fill:rgb(216,122,247);"/>
                    </g>
                    <g transform="matrix(0.101574,0.10181,-0.0371498,0.138004,759.339,74.723)">
                        <circle cx="3676.91" cy="1531.06" r="135.191" style="fill:rgb(216,122,247);"/>
                    </g>
                    <g transform="matrix(0.101574,0.10181,-0.0371498,0.138004,808.515,46.3314)">
                        <circle cx="3676.91" cy="1531.06" r="135.191" style="fill:rgb(216,122,247);"/>
                    </g>
                </g>
                <g transform="matrix(0.816157,-1.41363,1.41363,0.816157,3033.71,4708.84)">
                    <g transform="matrix(0.866025,0.5,1.11022e-16,0.993758,279.485,-2625.48)">
                        <path d="M993.336,2655.73C986.23,2645.26 936.736,2613.69 870.333,2655.73C792.946,2692.01 550.874,2975.99 371.82,3024.43C284.229,3048.14 130.456,3114.16 -39.234,3265.74C-170.106,3382.65 -250.853,3487.73 -289.196,3592.88L-189.532,3836.39L-64.299,3866.09C416.329,3743.5 491.113,3334.33 541.632,3254.38C656.306,3072.88 992.558,2770.62 992.558,2770.62C992.558,2770.62 999.977,2665.52 993.336,2655.73Z" style="fill:rgb(204,105,236);"/>
                    </g>
                    <g transform="matrix(1,0,0,1,-257.711,-1923.28)">
                        <path d="M1369.62,2563.1C1369.08,2576.03 1359.85,2581.35 1348.33,2575.4L1319.84,2591.84C1319.37,2604.94 1310.03,2610.32 1298.4,2604.23L1272.07,2619.42C1272.07,2619.51 1272.08,2619.6 1272.08,2619.68C1272.08,2633.96 1261.98,2639.72 1249.54,2632.53C1249.51,2632.52 1249.48,2632.5 1249.45,2632.49L1221.26,2648.76C1220.74,2661.73 1211.48,2667.07 1199.92,2661.08L1172.46,2676.93C1171.82,2689.62 1162.74,2694.85 1151.38,2689.11L1106.49,2715.02L1106.16,2592.6C1106.16,2592.6 1366.91,2386.21 1393.63,2426.63C1427.31,2477.58 1393.63,2549.24 1393.63,2549.24L1369.62,2563.1Z" style="fill:rgb(209,96,246);"/>
                    </g>
                    <g transform="matrix(0.302424,-0.296606,0.405534,0.112895,-758.98,1472.1)">
                        <path d="M3843,1290.79C3917.61,1290.79 3924.01,1297.07 3924.01,1371.69C3924.01,1446.3 3735.37,1612.34 3662.52,1628.47C3558.51,1651.49 3512.32,1628.7 3541.72,1531.06C3563.22,1459.62 3768.39,1290.79 3843,1290.79Z" style="fill:rgb(216,122,247);"/>
                    </g>
                    <g transform="matrix(0.259264,-0.254276,0.347658,0.0967831,-635.123,1389.02)">
                        <path d="M3843,1290.79C3917.61,1290.79 3924.01,1297.07 3924.01,1371.69C3924.01,1446.3 3735.37,1612.34 3662.52,1628.47C3558.51,1651.49 3512.32,1628.7 3541.72,1531.06C3563.22,1459.62 3768.39,1290.79 3843,1290.79Z" style="fill:rgb(216,122,247);"/>
                    </g>
                    <g transform="matrix(0.222263,-0.217988,0.298042,0.0829708,-529.817,1316.28)">
                        <path d="M3843,1290.79C3917.61,1290.79 3924.01,1297.07 3924.01,1371.69C3924.01,1446.3 3735.37,1612.34 3662.52,1628.47C3558.51,1651.49 3512.32,1628.7 3541.72,1531.06C3563.22,1459.62 3768.39,1290.79 3843,1290.79Z" style="fill:rgb(216,122,247);"/>
                    </g>
                    <g transform="matrix(0.190543,-0.186878,0.255507,0.0711296,-443.476,1247.1)">
                        <path d="M3843,1290.79C3917.61,1290.79 3924.01,1297.07 3924.01,1371.69C3924.01,1446.3 3735.37,1612.34 3662.52,1628.47C3558.51,1651.49 3512.32,1628.7 3541.72,1531.06C3563.22,1459.62 3768.39,1290.79 3843,1290.79Z" style="fill:rgb(216,122,247);"/>
                    </g>
                    <g transform="matrix(0.16335,-0.160207,0.219043,0.0609784,-367.706,1190.83)">
                        <path d="M3843,1290.79C3917.61,1290.79 3924.01,1297.07 3924.01,1371.69C3924.01,1446.3 3735.37,1612.34 3662.52,1628.47C3558.51,1651.49 3512.32,1628.7 3541.72,1531.06C3563.22,1459.62 3768.39,1290.79 3843,1290.79Z" style="fill:rgb(216,122,247);"/>
                    </g>
                    <g transform="matrix(0.140038,-0.137344,0.187782,0.0522759,-300.561,1146.38)">
                        <path d="M3843,1290.79C3917.61,1290.79 3924.01,1297.07 3924.01,1371.69C3924.01,1446.3 3735.37,1612.34 3662.52,1628.47C3558.51,1651.49 3512.32,1628.7 3541.72,1531.06C3563.22,1459.62 3768.39,1290.79 3843,1290.79Z" style="fill:rgb(216,122,247);"/>
                    </g>
                    <g transform="matrix(0.120052,-0.117743,0.160983,0.0448154,-246.498,1102.22)">
                        <path d="M3843,1290.79C3917.61,1290.79 3924.01,1297.07 3924.01,1371.69C3924.01,1446.3 3735.37,1612.34 3662.52,1628.47C3558.51,1651.49 3512.32,1628.7 3541.72,1531.06C3563.22,1459.62 3768.39,1290.79 3843,1290.79Z" style="fill:rgb(216,122,247);"/>
                    </g>
                    <g transform="matrix(0.102919,-0.100939,0.138009,0.0384196,-197.963,1068.14)">
                        <path d="M3843,1290.79C3917.61,1290.79 3924.01,1297.07 3924.01,1371.69C3924.01,1446.3 3735.37,1612.34 3662.52,1628.47C3558.51,1651.49 3512.32,1628.7 3541.72,1531.06C3563.22,1459.62 3768.39,1290.79 3843,1290.79Z" style="fill:rgb(216,122,247);"/>
                    </g>
                    <g transform="matrix(0.088231,-0.0865336,0.118313,0.0329366,-153.727,1043.48)">
                        <path d="M3843,1290.79C3917.61,1290.79 3924.01,1297.07 3924.01,1371.69C3924.01,1446.3 3735.37,1612.34 3662.52,1628.47C3558.51,1651.49 3512.32,1628.7 3541.72,1531.06C3563.22,1459.62 3768.39,1290.79 3843,1290.79Z" style="fill:rgb(216,122,247);"/>
                    </g>
                    <g transform="matrix(-0.0750024,-0.0433027,-0.0745343,0.0430324,1419.11,720.702)">
                        <circle cx="3676.91" cy="1531.06" r="135.191" style="fill:rgb(160,69,190);"/>
                    </g>
                    <g transform="matrix(-0.0530246,-0.0306138,-0.0526936,0.0304227,1304.86,696.784)">
                        <circle cx="3676.91" cy="1531.06" r="135.191" style="fill:rgb(141,75,163);"/>
                    </g>
                </g>
            </g>
        </g>
    </g>
</svg>
