<?xml version="1.0" encoding="UTF-8" standalone="no"?>
<!DOCTYPE svg PUBLIC "-//W3C//DTD SVG 1.1//EN" "http://www.w3.org/Graphics/SVG/1.1/DTD/svg11.dtd">
<svg width="100%" height="100%" viewBox="0 0 1195 955" version="1.1" xmlns="http://www.w3.org/2000/svg" xmlns:xlink="http://www.w3.org/1999/xlink" xml:space="preserve" xmlns:serif="http://www.serif.com/" style="fill-rule:evenodd;clip-rule:evenodd;stroke-linejoin:round;stroke-miterlimit:2;">
    <g transform="matrix(1,0,0,1,-3521.93,-79.9991)">
        <g transform="matrix(1,0,0,1,-3569.31,-3362.9)">
            <g id="redfacility">
                <g transform="matrix(1,0,0,1,1765.3,205.672)">
                    <g transform="matrix(0.586252,0,0,0.586252,5066.48,3038.03)">
                        <path d="M470.47,655.626L803.023,463.626L1191.65,688L1136.23,1040L914.523,1168L525.895,943.626L470.47,655.626Z" style="fill:rgb(192,66,66);"/>
                    </g>
                    <g transform="matrix(1,0,0,1,4944.62,2806.56)">
                        <path d="M470.47,655.626L803.023,463.626L1191.65,688L1136.23,1040L914.523,1168L525.895,943.626L470.47,655.626Z" style="fill:rgb(168,63,63);"/>
                    </g>
                    <g transform="matrix(0.322066,0.557834,0.557834,-0.322066,1701.9,1572.05)">
                        <g transform="matrix(0.147151,0.0849579,-0.146233,0.0844276,5741.84,3045.1)">
                            <circle cx="2907.85" cy="1748.69" r="186.647" style="fill:rgb(77,181,133);"/>
                        </g>
                        <g transform="matrix(0.221141,0,0,0.402558,5273.54,2429.93)">
                            <rect x="2721.2" y="2156.43" width="350.123" height="350.123" style="fill:rgb(77,181,133);"/>
                        </g>
                        <g transform="matrix(0.147151,0.0849579,-0.146233,0.0844276,5741.84,2903.49)">
                            <circle cx="2907.85" cy="1748.69" r="186.647" style="fill:rgb(77,181,133);"/>
                        </g>
                    </g>
                    <g transform="matrix(0.322066,-0.557834,-0.557834,-0.322066,5453.32,8211.56)">
                        <g transform="matrix(0.147151,0.0849579,-0.146233,0.0844276,5741.84,3045.1)">
                            <circle cx="2907.85" cy="1748.69" r="186.647" style="fill:rgb(77,181,133);"/>
                        </g>
                        <g transform="matrix(0.221141,0,0,0.402558,5273.54,2429.93)">
                            <rect x="2721.2" y="2156.43" width="350.123" height="350.123" style="fill:rgb(77,181,133);"/>
                        </g>
                        <g transform="matrix(0.147151,0.0849579,-0.146233,0.0844276,5741.84,2903.49)">
                            <circle cx="2907.85" cy="1748.69" r="186.647" style="fill:rgb(99,188,147);"/>
                        </g>
                    </g>
                    <g transform="matrix(0.322066,-0.557834,-0.557834,-0.322066,5531.64,8256.78)">
                        <g transform="matrix(0.147151,0.0849579,-0.146233,0.0844276,5741.84,3045.1)">
                            <circle cx="2907.85" cy="1748.69" r="186.647" style="fill:rgb(77,181,133);"/>
                        </g>
                        <g transform="matrix(0.221141,0,0,0.402558,5273.54,2429.93)">
                            <rect x="2721.2" y="2156.43" width="350.123" height="350.123" style="fill:rgb(77,181,133);"/>
                        </g>
                        <g transform="matrix(0.147151,0.0849579,-0.146233,0.0844276,5741.84,2903.49)">
                            <circle cx="2907.85" cy="1748.69" r="186.647" style="fill:rgb(99,188,147);"/>
                        </g>
                    </g>
                    <g transform="matrix(0.322066,-0.557834,-0.557834,-0.322066,5608.9,8301.39)">
                        <g transform="matrix(0.147151,0.0849579,-0.146233,0.0844276,5741.84,3045.1)">
                            <circle cx="2907.85" cy="1748.69" r="186.647" style="fill:rgb(77,181,133);"/>
                        </g>
                        <g transform="matrix(0.221141,0,0,0.402558,5273.54,2429.93)">
                            <rect x="2721.2" y="2156.43" width="350.123" height="350.123" style="fill:rgb(77,181,133);"/>
                        </g>
                        <g transform="matrix(0.147151,0.0849579,-0.146233,0.0844276,5741.84,2903.49)">
                            <circle cx="2907.85" cy="1748.69" r="186.647" style="fill:rgb(99,188,147);"/>
                        </g>
                    </g>
                    <g transform="matrix(0.322066,0.557834,0.557834,-0.322066,1971.4,1727.65)">
                        <g transform="matrix(0.147151,0.0849579,-0.146233,0.0844276,5741.84,3045.1)">
                            <circle cx="2907.85" cy="1748.69" r="186.647" style="fill:rgb(77,181,133);"/>
                        </g>
                        <g transform="matrix(0.221141,0,0,0.402558,5273.54,2429.93)">
                            <rect x="2721.2" y="2156.43" width="350.123" height="350.123" style="fill:rgb(77,181,133);"/>
                        </g>
                        <g transform="matrix(0.147151,0.0849579,-0.146233,0.0844276,5741.84,2903.49)">
                            <circle cx="2907.85" cy="1748.69" r="186.647" style="fill:rgb(99,188,147);"/>
                        </g>
                    </g>
                    <g transform="matrix(0.322066,-0.557834,-0.557834,-0.322066,5686.44,8346.15)">
                        <g transform="matrix(0.147151,0.0849579,-0.146233,0.0844276,5741.84,3045.1)">
                            <circle cx="2907.85" cy="1748.69" r="186.647" style="fill:rgb(77,181,133);"/>
                        </g>
                        <g transform="matrix(0.221141,0,0,0.402558,5273.54,2429.93)">
                            <rect x="2721.2" y="2277.22" width="350.123" height="229.337" style="fill:rgb(77,181,133);"/>
                        </g>
                        <g transform="matrix(0.147151,0.0849579,-0.146233,0.0844276,5741.84,2903.49)">
                            <circle cx="3194.01" cy="2036.64" r="186.647" style="fill:rgb(77,181,133);"/>
                        </g>
                    </g>
                    <g transform="matrix(0.644131,0,0,0.644131,2052,1178.27)">
                        <g transform="matrix(0.147151,0.0849579,-0.146233,0.0844276,5741.84,3045.1)">
                            <circle cx="2907.85" cy="1748.69" r="186.647" style="fill:rgb(77,181,133);"/>
                        </g>
                        <g transform="matrix(0.221141,0,0,0.402558,5273.54,2429.93)">
                            <rect x="2721.2" y="2156.43" width="350.123" height="350.123" style="fill:rgb(77,181,133);"/>
                        </g>
                        <g transform="matrix(0.147151,0.0849579,-0.146233,0.0844276,5741.84,2903.49)">
                            <circle cx="2907.85" cy="1748.69" r="186.647" style="fill:rgb(99,188,147);"/>
                        </g>
                    </g>
                    <g transform="matrix(0.644131,0,0,0.644131,2065.33,1127.84)">
                        <g transform="matrix(0.147151,0.0849579,-0.146233,0.0844276,5583.73,3044.05)">
                            <circle cx="2907.85" cy="1748.69" r="186.647" style="fill:rgb(77,181,133);"/>
                        </g>
                        <g transform="matrix(0.221141,0,0,0.402558,5115.43,2428.88)">
                            <rect x="2721.2" y="2156.43" width="350.123" height="350.123" style="fill:rgb(77,181,133);"/>
                        </g>
                        <g transform="matrix(0.147151,0.0849579,-0.146233,0.0844276,5583.73,2902.44)">
                            <circle cx="2907.85" cy="1748.69" r="186.647" style="fill:rgb(99,188,147);"/>
                        </g>
                    </g>
                    <g transform="matrix(1,0,0,1,-39.6399,89.2293)">
                        <g transform="matrix(0.147151,0.0849579,-0.146233,0.0844276,5741.84,3045.1)">
                            <circle cx="2907.85" cy="1748.69" r="186.647" style="fill:rgb(77,181,133);"/>
                        </g>
                        <g transform="matrix(0.221141,0,0,0.402558,5273.54,2429.93)">
                            <rect x="2721.2" y="2156.43" width="350.123" height="350.123" style="fill:rgb(77,181,133);"/>
                        </g>
                        <g transform="matrix(0.147151,0.0849579,-0.146233,0.0844276,5741.84,2903.49)">
                            <circle cx="2907.85" cy="1748.69" r="186.647" style="fill:rgb(99,188,147);"/>
                        </g>
                    </g>
                    <g transform="matrix(1,0,0,1,-18.9476,10.9394)">
                        <g transform="matrix(0.147151,0.0849579,-0.146233,0.0844276,5583.73,3044.05)">
                            <circle cx="2907.85" cy="1748.69" r="186.647" style="fill:rgb(77,181,133);"/>
                        </g>
                        <g transform="matrix(0.221141,0,0,0.402558,5115.43,2428.88)">
                            <rect x="2721.2" y="2156.43" width="350.123" height="350.123" style="fill:rgb(77,181,133);"/>
                        </g>
                        <g transform="matrix(0.147151,0.0849579,-0.146233,0.0844276,5583.73,2902.44)">
                            <circle cx="2907.85" cy="1748.69" r="186.647" style="fill:rgb(99,188,147);"/>
                        </g>
                    </g>
                    <g transform="matrix(0.644131,0,0,0.644131,2220.75,1275.7)">
                        <g transform="matrix(0.147151,0.0849579,-0.146233,0.0844276,5741.84,3045.1)">
                            <circle cx="2907.85" cy="1748.69" r="186.647" style="fill:rgb(77,181,133);"/>
                        </g>
                        <g transform="matrix(0.221141,0,0,0.402558,5273.54,2429.93)">
                            <rect x="2721.2" y="2156.43" width="350.123" height="350.123" style="fill:rgb(77,181,133);"/>
                        </g>
                        <g transform="matrix(0.147151,0.0849579,-0.146233,0.0844276,5741.84,2903.49)">
                            <circle cx="2907.85" cy="1748.69" r="186.647" style="fill:rgb(99,188,147);"/>
                        </g>
                    </g>
                    <g transform="matrix(0.644131,0,0,0.644131,2234.08,1225.27)">
                        <g transform="matrix(0.147151,0.0849579,-0.146233,0.0844276,5583.73,3044.05)">
                            <circle cx="2907.85" cy="1748.69" r="186.647" style="fill:rgb(77,181,133);"/>
                        </g>
                        <g transform="matrix(0.221141,0,0,0.402558,5115.43,2428.88)">
                            <rect x="2721.2" y="2156.43" width="350.123" height="350.123" style="fill:rgb(77,181,133);"/>
                        </g>
                        <g transform="matrix(0.147151,0.0849579,-0.146233,0.0844276,5583.73,2902.44)">
                            <circle cx="2907.85" cy="1748.69" r="186.647" style="fill:rgb(99,188,147);"/>
                        </g>
                    </g>
                    <g transform="matrix(0.42782,0,0,0.42782,4543.94,2980.24)">
                        <g transform="matrix(-0.362472,0.209273,-1.38778e-16,-0.415934,4252.63,1999.21)">
                            <circle cx="2907.85" cy="1748.69" r="186.647" style="fill:rgb(77,181,133);"/>
                        </g>
                        <g transform="matrix(-0.272364,0.471748,-0.858756,-0.495803,6141.73,1757.87)">
                            <rect x="2721.2" y="2156.43" width="350.123" height="350.123" style="fill:rgb(77,181,133);"/>
                        </g>
                        <g transform="matrix(-0.362472,0.209273,-1.38778e-16,-0.415934,4554.72,2173.62)">
                            <circle cx="2907.85" cy="1748.69" r="186.647" style="fill:rgb(90,160,128);"/>
                        </g>
                    </g>
                    <g transform="matrix(0.42782,0,0,0.42782,4683.7,2876.21)">
                        <g transform="matrix(-0.362472,0.209273,-1.38778e-16,-0.415934,4252.63,1999.21)">
                            <circle cx="2907.85" cy="1748.69" r="186.647" style="fill:rgb(77,181,133);"/>
                        </g>
                        <g transform="matrix(-0.272364,0.471748,-0.858756,-0.495803,6141.73,1757.87)">
                            <rect x="2721.2" y="2156.43" width="350.123" height="350.123" style="fill:rgb(77,181,133);"/>
                        </g>
                        <g transform="matrix(-0.362472,0.209273,-1.38778e-16,-0.415934,4554.72,2173.62)">
                            <circle cx="2907.85" cy="1748.69" r="186.647" style="fill:rgb(90,160,128);"/>
                        </g>
                    </g>
                    <g transform="matrix(0.644131,0,0,0.644131,1969.05,1421.02)">
                        <g transform="matrix(0.147151,0.0849579,-0.146233,0.0844276,5741.84,3045.1)">
                            <circle cx="2907.85" cy="1748.69" r="186.647" style="fill:rgb(77,181,133);"/>
                        </g>
                        <g transform="matrix(0.221141,0,0,0.402558,5273.54,2429.93)">
                            <rect x="2721.2" y="2156.43" width="350.123" height="350.123" style="fill:rgb(77,181,133);"/>
                        </g>
                        <g transform="matrix(0.147151,0.0849579,-0.146233,0.0844276,5741.84,2903.49)">
                            <circle cx="2907.85" cy="1748.69" r="186.647" style="fill:rgb(99,188,147);"/>
                        </g>
                    </g>
                    <g transform="matrix(0.644131,0,0,0.644131,1800.3,1323.59)">
                        <g transform="matrix(0.147151,0.0849579,-0.146233,0.0844276,5741.84,3045.1)">
                            <circle cx="2907.85" cy="1748.69" r="186.647" style="fill:rgb(77,181,133);"/>
                        </g>
                        <g transform="matrix(0.221141,0,0,0.402558,5273.54,2429.93)">
                            <rect x="2721.2" y="2156.43" width="350.123" height="350.123" style="fill:rgb(77,181,133);"/>
                        </g>
                        <g transform="matrix(0.147151,0.0849579,-0.146233,0.0844276,5741.84,2903.49)">
                            <circle cx="2907.85" cy="1748.69" r="186.647" style="fill:rgb(99,188,147);"/>
                        </g>
                    </g>
                    <g transform="matrix(0.644131,0,0,0.644131,1982.38,1370.59)">
                        <g transform="matrix(0.147151,0.0849579,-0.146233,0.0844276,5583.73,3044.05)">
                            <circle cx="2907.85" cy="1748.69" r="186.647" style="fill:rgb(77,181,133);"/>
                        </g>
                        <g transform="matrix(0.221141,0,0,0.402558,5115.43,2428.88)">
                            <rect x="2721.2" y="2156.43" width="350.123" height="350.123" style="fill:rgb(77,181,133);"/>
                        </g>
                        <g transform="matrix(0.147151,0.0849579,-0.146233,0.0844276,5583.73,2902.44)">
                            <circle cx="2907.85" cy="1748.69" r="186.647" style="fill:rgb(99,188,147);"/>
                        </g>
                    </g>
                    <g transform="matrix(0.644131,0,0,0.644131,1813.63,1273.16)">
                        <g transform="matrix(0.147151,0.0849579,-0.146233,0.0844276,5583.73,3044.05)">
                            <circle cx="2907.85" cy="1748.69" r="186.647" style="fill:rgb(77,181,133);"/>
                        </g>
                        <g transform="matrix(0.221141,0,0,0.402558,5115.43,2428.88)">
                            <rect x="2721.2" y="2156.43" width="350.123" height="350.123" style="fill:rgb(77,181,133);"/>
                        </g>
                        <g transform="matrix(0.147151,0.0849579,-0.146233,0.0844276,5583.73,2902.44)">
                            <circle cx="2907.85" cy="1748.69" r="186.647" style="fill:rgb(99,188,147);"/>
                        </g>
                    </g>
                    <g transform="matrix(1,0,0,1,5158.79,2930.21)">
                        <path d="M831.384,864L1163.94,672L1191.65,688L1136.23,1040L914.523,1168L886.81,1152L831.384,864Z" style="fill:rgb(168,63,63);"/>
                    </g>
                    <g transform="matrix(1,0,0,1,5186.5,2946.21)">
                        <path d="M831.384,864L1163.94,672L1108.51,1024L886.81,1152L831.384,864Z" style="fill:rgb(192,66,66);"/>
                    </g>
                    <g transform="matrix(0.5,-0.866025,0.866025,0.5,387.022,7353)">
                        <g transform="matrix(0.147151,0.0849579,-0.146233,0.0844276,5741.84,3240.93)">
                            <circle cx="2907.85" cy="1748.69" r="186.647" style="fill:rgb(77,181,133);"/>
                        </g>
                        <g transform="matrix(0.221141,0,0,0.402558,5273.54,2625.76)">
                            <rect x="2721.2" y="1669.5" width="350.123" height="837.062" style="fill:rgb(77,181,133);"/>
                        </g>
                        <g transform="matrix(0.147151,0.0849579,-0.146233,0.0844276,5741.84,2903.49)">
                            <circle cx="2907.85" cy="1748.69" r="186.647" style="fill:rgb(99,188,147);"/>
                        </g>
                    </g>
                    <g transform="matrix(1,0,0,1,566.998,729.351)">
                        <g transform="matrix(0.147151,0.0849579,-0.146233,0.0844276,5741.84,3045.1)">
                            <circle cx="2907.85" cy="1748.69" r="186.647" style="fill:rgb(77,181,133);"/>
                        </g>
                        <g transform="matrix(0.221141,0,0,0.402558,5273.54,2429.93)">
                            <rect x="2721.2" y="2156.43" width="350.123" height="350.123" style="fill:rgb(77,181,133);"/>
                        </g>
                    </g>
                </g>
                <g transform="matrix(-0.879897,-0.508009,0,1.08998,8490.28,3959.66)">
                    <circle cx="1529.24" cy="467.575" r="42.171" style="fill:rgb(92,41,174);"/>
                    <clipPath id="_clip1">
                        <circle cx="1529.24" cy="467.575" r="42.171"/>
                    </clipPath>
                    <g clip-path="url(#_clip1)">
                        <g transform="matrix(1,0,0,1,-16.49,-15.371)">
                            <circle cx="1529.24" cy="467.575" r="42.171" style="fill:rgb(56,14,122);"/>
                        </g>
                        <g transform="matrix(1,0,0,1,-16.49,-15.371)">
                            <circle cx="1529.24" cy="467.575" r="42.171" style="fill:rgb(56,14,122);"/>
                        </g>
                        <g transform="matrix(1,0,0,1,29.7795,29.8899)">
                            <g>
                                <g transform="matrix(1,0,0,1,-29.7795,-27.7587)">
                                    <path d="M1524.66,415.882C1549.7,419.662 1571.41,444.3 1571.41,467.575C1571.41,490.85 1552.51,509.747 1529.24,509.747C1505.96,509.747 1480.81,489.452 1476.84,464.546C1472.26,435.878 1489.54,410.578 1524.66,415.882Z" style="fill:rgb(251,200,253);"/>
                                </g>
                                <g transform="matrix(2.21544,1.1985,-0.443399,1.55171,-4669.59,-4247.75)">
                                    <ellipse cx="2942.61" cy="755.947" rx="7.415" ry="10.875" style="fill:rgb(80,138,136);"/>
                                </g>
                            </g>
                            <g transform="matrix(2.21544,1.1985,-0.443399,1.55171,-4669.59,-4247.75)">
                                <ellipse cx="2942.61" cy="755.947" rx="7.415" ry="10.875" style="fill:rgb(80,138,136);"/>
                            </g>
                            <g transform="matrix(1.76337,0.941259,-0.255844,1.00315,-3476.02,-3074.03)">
                                <ellipse cx="2942.61" cy="755.947" rx="7.415" ry="10.875" style="fill:url(#_Linear2);"/>
                            </g>
                            <g transform="matrix(1.05288,0.136193,0.757162,1.02087,-1785.86,-247.891)">
                                <ellipse cx="2930.96" cy="283.067" rx="4.623" ry="4.24" style="fill:rgb(249,253,255);fill-opacity:0.78;"/>
                            </g>
                        </g>
                    </g>
                </g>
                <g transform="matrix(-0.173932,-0.585068,-0.586426,0.174335,7802.44,5081.96)">
                    <path d="M2508.53,314.398C2488.68,313.579 2444.72,316.246 2452.76,335.331C2468.3,372.24 2530.25,456.729 2542.09,457.658C2552.38,458.467 2562.03,448.912 2567.76,440.318C2605.02,384.369 2552.14,316.197 2508.53,314.398Z" style="fill:rgb(168,63,63);"/>
                </g>
            </g>
        </g>
    </g>
    <defs>
        <linearGradient id="_Linear2" x1="0" y1="0" x2="1" y2="0.318985" gradientUnits="userSpaceOnUse" gradientTransform="matrix(13.3359,12.1922,-14.2384,11.4194,2942.72,756.064)"><stop offset="0" style="stop-color:rgb(74,89,97);stop-opacity:1"/><stop offset="1" style="stop-color:rgb(74,89,97);stop-opacity:0"/></linearGradient>
    </defs>
</svg>
