<?xml version="1.0" encoding="UTF-8" standalone="no"?>
<!DOCTYPE svg PUBLIC "-//W3C//DTD SVG 1.1//EN" "http://www.w3.org/Graphics/SVG/1.1/DTD/svg11.dtd">
<svg width="100%" height="100%" viewBox="0 0 6480 3666" version="1.1" xmlns="http://www.w3.org/2000/svg" xmlns:xlink="http://www.w3.org/1999/xlink" xml:space="preserve" xmlns:serif="http://www.serif.com/" style="fill-rule:evenodd;clip-rule:evenodd;stroke-linejoin:round;stroke-miterlimit:2;">
    <g transform="matrix(1,0,0,1,-1324.18,-2226.51)">
        <g transform="matrix(1,0,0,1,437.04,1412.9)">
            <path id="Road" d="M1293.04,2914.45L2432.72,2256.46L1308.28,1607.26L1308.28,1530.37L2565.9,2256.46L1359.63,2952.9L2378.33,3541.05L3722.06,2765.25L3398.3,2578.32L3398.3,2501.43L4216.2,2973.65L5269.13,2365.74L3844.52,1543.24L3625.89,1669.47L2761.2,1170.23L2761.2,1093.34L3625.89,1592.58L4424,1131.79L4006.09,890.504L4006.09,813.615L4557.18,1131.79L3911.11,1504.8L4162.57,1649.98L5587.19,827.472L6611.36,1418.77L7366.38,982.861L7366.38,1059.75L6611.36,1495.66L5587.18,904.35L5587.18,904.371L4229.16,1688.42L5335.71,2327.29L5706.93,2112.97L7342.64,3057.35L7276.06,3095.79L6846.79,2847.95L6168.01,3239.85L7014.27,3728.44L6947.68,3766.88L6101.42,3278.3L5422.18,3670.45L5422.18,3593.56L6780.2,2809.51L5706.93,2189.86L4216.21,3050.53L4216.2,3050.54L4216.2,3050.53L4216.19,3050.54L4216.19,3050.53L3788.65,2803.69L2190.15,3726.58L2759.91,4055.53L3362.94,3707.37L3362.94,3784.26L2760.36,4132.15L2760.13,4132.02L2759.91,4132.42L2123.57,3765.03L887.139,4478.88L887.139,4401.99L2311.74,3579.49L887.139,2757L887.139,2680.11L1293.04,2914.45Z" style="fill:rgb(85,40,117);"/>
        </g>
    </g>
</svg>
