<?xml version="1.0" encoding="UTF-8" standalone="no"?>
<!DOCTYPE svg PUBLIC "-//W3C//DTD SVG 1.1//EN" "http://www.w3.org/Graphics/SVG/1.1/DTD/svg11.dtd">
<svg width="100%" height="100%" viewBox="0 0 331 428" version="1.1" xmlns="http://www.w3.org/2000/svg" xmlns:xlink="http://www.w3.org/1999/xlink" xml:space="preserve" xmlns:serif="http://www.serif.com/" style="fill-rule:evenodd;clip-rule:evenodd;stroke-linejoin:round;stroke-miterlimit:2;">
    <g transform="matrix(1,0,0,1,-1887.18,-1412.23)">
        <g transform="matrix(1.5232,0,0,1.5232,-2554.17,487.487)">
            <g id="stackguydual">
                <g>
                    <g transform="matrix(1,0,0,1,-13.6575,-6.12123)">
                        <path d="M3100.55,634.729C3077.89,601.317 2988.25,611.623 2975.71,633.333C2955.7,667.992 2938.06,764.237 2947.91,812.089C2964.59,893.172 3115.58,894.6 3130.75,811.289C3138.55,768.429 3122.85,667.619 3100.55,634.729Z" style="fill:rgb(92,41,174);"/>
                        <clipPath id="_clip1">
                            <path d="M3100.55,634.729C3077.89,601.317 2988.25,611.623 2975.71,633.333C2955.7,667.992 2938.06,764.237 2947.91,812.089C2964.59,893.172 3115.58,894.6 3130.75,811.289C3138.55,768.429 3122.85,667.619 3100.55,634.729Z"/>
                        </clipPath>
                        <g clip-path="url(#_clip1)">
                            <g transform="matrix(2.26266,0,0,6.13847,-3129.11,-2020.22)">
                                <rect x="2683.15" y="406.362" width="76.305" height="66.587" style="fill:url(#_Linear2);"/>
                            </g>
                            <g transform="matrix(1.22905,0,0,1,-692.78,6.12123)">
                                <path d="M3077.22,616.596C3061.83,606.12 3047.98,606.232 3031.2,606.576C3000.58,607.205 2981.53,622.567 2987.21,634.822C2993.94,649.355 3024.75,652.276 3033.9,652.276C3093.39,652.276 3088.69,624.411 3077.22,616.596Z" style="fill:rgb(139,169,205);"/>
                                <clipPath id="_clip3">
                                    <path d="M3077.22,616.596C3061.83,606.12 3047.98,606.232 3031.2,606.576C3000.58,607.205 2981.53,622.567 2987.21,634.822C2993.94,649.355 3024.75,652.276 3033.9,652.276C3093.39,652.276 3088.69,624.411 3077.22,616.596Z"/>
                                </clipPath>
                                <g clip-path="url(#_clip3)">
                                    <g transform="matrix(1.29948,0.255867,-0.443676,3.40378,-301.325,-1603.79)">
                                        <rect x="2683.15" y="406.362" width="76.305" height="66.587" style="fill:url(#_Linear4);"/>
                                    </g>
                                </g>
                            </g>
                            <g transform="matrix(0.126257,1.62067,-4.27095,0.332724,4572.31,-3803.29)">
                                <rect x="2738.16" y="393.709" width="76.047" height="81.282" style="fill:url(#_Linear5);"/>
                            </g>
                            <g transform="matrix(1.33228,-0.119742,0.383477,4.26669,-786.712,-810.562)">
                                <rect x="2738.16" y="393.709" width="76.047" height="81.282" style="fill:url(#_Linear6);"/>
                            </g>
                            <g transform="matrix(-0.00790637,0.999969,-2.7734,-0.0219282,4272.24,-1996.41)">
                                <path d="M2937.73,395.252L2803.26,400.174C2857.63,417.185 2863.04,454.495 2800.47,474.499L2937.73,475.632L2937.73,395.252Z" style="fill:url(#_Linear7);"/>
                            </g>
                        </g>
                    </g>
                    <g transform="matrix(1.26059,-0.31022,0.361364,1.46842,-1042.19,551.251)">
                        <ellipse cx="2947.04" cy="758.262" rx="12.791" ry="15.321" style="fill:rgb(251,200,253);"/>
                    </g>
                    <g transform="matrix(1.26059,-0.31022,0.361364,1.46842,-1042.19,551.251)">
                        <ellipse cx="2947.04" cy="758.262" rx="12.791" ry="15.321" style="fill:rgb(251,200,253);"/>
                    </g>
                    <g transform="matrix(0.45836,1.80808,-1.52742,0.38721,2835.06,-4851.33)">
                        <ellipse cx="2947.04" cy="758.262" rx="12.791" ry="15.321" style="fill:rgb(251,200,253);"/>
                    </g>
                    <g transform="matrix(0.45836,1.80808,-1.52742,0.38721,2835.06,-4851.33)">
                        <ellipse cx="2947.04" cy="758.262" rx="12.791" ry="15.321" style="fill:rgb(251,200,253);"/>
                    </g>
                    <g transform="matrix(1.11785,0.012361,-0.0168674,1.52538,-177.137,-441.32)">
                        <ellipse cx="2947.04" cy="758.262" rx="12.791" ry="15.321" style="fill:rgb(251,200,253);"/>
                    </g>
                    <g transform="matrix(1.01894,-0.383578,0.396305,1.05275,-355.785,1086.67)">
                        <ellipse cx="2942.61" cy="755.947" rx="7.415" ry="10.875" style="fill:rgb(80,138,136);"/>
                    </g>
                    <g transform="matrix(1.01894,-0.383578,0.396305,1.05275,-355.785,1086.67)">
                        <ellipse cx="2942.61" cy="755.947" rx="7.415" ry="10.875" style="fill:rgb(80,138,136);"/>
                    </g>
                    <g transform="matrix(0.541507,-0.265232,0.277348,0.566244,1138.57,1106.52)">
                        <ellipse cx="2942.61" cy="755.947" rx="7.415" ry="10.875" style="fill:url(#_Linear8);"/>
                    </g>
                    <g transform="matrix(0.373376,1.39689,-1.1051,0.295383,2765.61,-3558.17)">
                        <ellipse cx="2942.61" cy="755.947" rx="7.415" ry="10.875" style="fill:rgb(80,138,136);"/>
                    </g>
                    <g transform="matrix(0.373376,1.39689,-1.1051,0.295383,2765.61,-3558.17)">
                        <ellipse cx="2942.61" cy="755.947" rx="7.415" ry="10.875" style="fill:rgb(80,138,136);"/>
                    </g>
                    <g transform="matrix(0.619557,0.497952,-0.442329,0.55035,1540.39,-1105.66)">
                        <ellipse cx="2942.61" cy="755.947" rx="7.415" ry="10.875" style="fill:url(#_Linear9);"/>
                    </g>
                    <g transform="matrix(0.562616,0,0,0.582641,1286.5,580.146)">
                        <ellipse cx="2930.96" cy="283.067" rx="4.623" ry="4.24" style="fill:rgb(249,253,255);fill-opacity:0.75;"/>
                    </g>
                    <g transform="matrix(0.627826,0,0,0.693844,1185.88,573.396)">
                        <ellipse cx="2930.96" cy="283.067" rx="4.623" ry="4.24" style="fill:rgb(249,253,255);fill-opacity:0.78;"/>
                    </g>
                    <g transform="matrix(0.658255,0.0374045,-0.0456051,0.802571,1209.83,38.2969)">
                        <ellipse cx="2942.61" cy="755.947" rx="7.415" ry="10.875" style="fill:rgb(70,169,208);"/>
                    </g>
                    <g transform="matrix(0.753806,0.103601,-0.150867,1.09771,1007.83,-380.376)">
                        <ellipse cx="2942.61" cy="755.947" rx="7.415" ry="10.875" style="fill:rgb(80,138,136);"/>
                    </g>
                </g>
                <g transform="matrix(0.753806,0.103601,-0.150867,1.09771,1007.83,-380.376)">
                    <ellipse cx="2942.61" cy="755.947" rx="7.415" ry="10.875" style="fill:rgb(80,138,136);"/>
                </g>
                <g transform="matrix(0.59999,0.0745408,-0.0870511,0.700687,1413.94,5.07647)">
                    <ellipse cx="2942.61" cy="755.947" rx="7.415" ry="10.875" style="fill:url(#_Linear10);"/>
                </g>
                <g transform="matrix(0.358242,-0.221321,0.257625,0.417006,1989.02,1277.62)">
                    <ellipse cx="2930.96" cy="283.067" rx="4.623" ry="4.24" style="fill:rgb(249,253,255);fill-opacity:0.78;"/>
                </g>
                <g transform="matrix(0.984723,0.174129,-0.127975,0.723715,147.982,-297.616)">
                    <path d="M3006.12,796.642C2998.65,795.668 2968.77,794.825 2961.38,796.602C2954,798.38 2955.02,803.899 2961.56,805.473C2968.95,807.251 2998.38,807.25 3005.77,805.473C3014.99,803.254 3011.69,797.369 3006.12,796.642Z" style="fill:rgb(63,12,73);"/>
                </g>
                <path d="M2988.88,799.894C2987.03,798.537 2982.02,797.676 2979.16,798.368C2976.92,798.908 2974.58,802.641 2976.44,803.997C2978.3,805.354 2984.84,806.387 2986.69,805.03C2988.55,803.674 2990.2,800.857 2988.88,799.894Z" style="fill:rgb(247,35,202);"/>
                <g transform="matrix(1,0,0,1,-12.7178,-6.75179)">
                    <path d="M3138.92,816.026C3136.5,813.828 3128.03,808.828 3128.03,808.828C3123.05,810.646 3121.77,813.758 3122.72,817.649C3122.72,817.649 3132.01,821.177 3134.49,823.045C3136.25,824.367 3137.15,826.707 3137.62,828.856C3138.21,831.589 3137.66,836.741 3138.06,839.445C3138.35,841.413 3138.67,844.192 3140.03,845.079C3141.38,845.967 3145.38,847.609 3145.38,841.344C3145.38,837.478 3143.47,826.768 3142.51,822.013C3142.11,820.01 3140.43,817.401 3138.92,816.026Z" style="fill:rgb(107,63,186);"/>
                </g>
                <g transform="matrix(-1,0,0,1,6061.19,-14.4288)">
                    <path d="M3138.92,816.026C3136.87,813.536 3129.94,810.538 3127.27,811.205C3122.65,812.361 3120.62,819.719 3122.91,820.026C3126.42,820.498 3132.01,821.177 3134.49,823.045C3136.25,824.367 3137.15,826.707 3137.62,828.856C3138.21,831.589 3137.66,836.741 3138.06,839.445C3138.35,841.413 3138.67,844.192 3140.03,845.079C3141.38,845.967 3145.38,847.609 3145.38,841.344C3145.38,837.478 3143.47,826.768 3142.51,822.013C3142.11,820.01 3140.22,817.603 3138.92,816.026Z" style="fill:rgb(107,63,186);"/>
                </g>
                <g transform="matrix(1.36269,0.221513,-0.173425,1.06686,-1095.38,-717.955)">
                    <path d="M3137.11,815.074C3134.7,812.876 3132.36,815.379 3131.63,816.549C3131.07,817.426 3130.95,818.972 3131.97,820.478C3132.32,820.98 3133.87,822.578 3134.49,823.045C3136.25,824.367 3135.96,827.226 3136.42,829.375C3137.02,832.108 3138.13,837.32 3138.53,840.024C3138.6,840.496 3139.24,847.075 3139.35,847.693C3139.71,849.656 3141.22,852.138 3142.93,852.406C3144.55,852.66 3146.1,852.129 3146.04,848.109C3146.03,847.193 3145.3,839.942 3145.03,838.498C3144.17,833.85 3142.34,827.238 3141.61,823.61C3141.31,822.146 3140.53,818.91 3139.43,817.517C3139.03,817.004 3137.52,815.444 3137.11,815.074Z" style="fill:rgb(107,63,186);"/>
                </g>
                <g transform="matrix(0.966439,0.256896,-0.256896,0.966439,284.349,-732.945)">
                    <path d="M2965.33,719.917C2964.29,718.841 2957.45,718.113 2953.96,716.188C2950.44,714.249 2947.96,707.274 2944.22,708.284C2940.49,709.294 2934.59,720.571 2932.15,724.79C2930.23,728.114 2927.32,735.401 2931.16,735.454C2933.4,735.486 2936.22,726.838 2942.1,724.573C2948.77,722.005 2957.03,723.86 2960.2,722.649C2962.01,721.956 2966.37,720.994 2965.33,719.917Z" style="fill:url(#_Linear11);"/>
                </g>
                <g transform="matrix(-0.994374,0.105925,0.105925,0.994374,5885.36,-291.261)">
                    <path d="M2965.33,719.917C2964.29,718.841 2957.45,718.113 2953.96,716.188C2950.44,714.249 2947.96,707.274 2944.22,708.284C2940.49,709.294 2934.59,720.571 2932.15,724.79C2930.23,728.114 2927.32,735.401 2931.16,735.454C2933.4,735.486 2936.22,726.838 2942.1,724.573C2948.77,722.005 2957.03,723.86 2960.2,722.649C2962.01,721.956 2966.37,720.994 2965.33,719.917Z" style="fill:url(#_Linear12);"/>
                </g>
                <g transform="matrix(0.994374,0.105925,-0.105925,0.994374,250.603,-306.336)">
                    <path d="M2959.58,717.751C2957.78,711.763 2957.23,712.909 2953.27,712.476C2942.91,711.347 2934.59,720.571 2932.15,724.79C2930.23,728.114 2927.32,735.401 2931.16,735.454C2933.4,735.486 2936.22,726.838 2942.1,724.573C2948.77,722.005 2957.03,723.86 2960.2,722.649C2962.01,721.956 2960.01,719.184 2959.58,717.751Z" style="fill:rgb(208,87,70);"/>
                </g>
                <path d="M3051.38,612.938C3033.53,609.696 3013.43,609.592 2993.22,614.139C2985.84,615.798 2973.09,620.483 2971.46,626.829C2971.46,652.833 3078.38,650.108 3078.38,626.829C3078.38,620.896 3061.81,614.833 3051.38,612.938Z" style="fill:rgb(91,123,162);"/>
                <clipPath id="_clip13">
                    <path d="M3051.38,612.938C3033.53,609.696 3013.43,609.592 2993.22,614.139C2985.84,615.798 2973.09,620.483 2971.46,626.829C2971.46,652.833 3078.38,650.108 3078.38,626.829C3078.38,620.896 3061.81,614.833 3051.38,612.938Z"/>
                </clipPath>
                <g clip-path="url(#_clip13)">
                    <g transform="matrix(1,0,0,1,0,22.0363)">
                        <path d="M3051.38,612.938C3033.53,609.696 3013.43,609.592 2993.22,614.139C2985.84,615.798 2973.09,620.483 2971.46,626.829C2971.46,652.833 3078.38,650.108 3078.38,626.829C3078.38,620.896 3061.81,614.833 3051.38,612.938Z" style="fill:rgb(42,32,39);fill-opacity:0.29;"/>
                    </g>
                </g>
                <path d="M3085.75,803.968L3073.92,810.738C3076.53,812.523 3073.48,815.35 3076.78,821.076C3079.48,825.742 3087.18,831.204 3088.77,825.885C3093.33,810.674 3083.2,808.392 3085.75,803.968Z" style="fill:rgb(63,12,73);"/>
                <clipPath id="_clip14">
                    <path d="M3085.75,803.968L3073.92,810.738C3076.53,812.523 3073.48,815.35 3076.78,821.076C3079.48,825.742 3087.18,831.204 3088.77,825.885C3093.33,810.674 3083.2,808.392 3085.75,803.968Z"/>
                </clipPath>
                <g clip-path="url(#_clip14)">
                    <g transform="matrix(-0.995778,0.0917908,0.0917908,0.995778,5979.49,-252.748)">
                        <path d="M2988.88,799.894C2987.03,798.537 2982.02,797.676 2979.16,798.368C2976.92,798.908 2974.58,802.641 2976.44,803.997C2978.3,805.354 2984.84,806.387 2986.69,805.03C2988.55,803.674 2990.2,800.857 2988.88,799.894Z" style="fill:rgb(247,35,202);"/>
                    </g>
                </g>
                <g transform="matrix(1.03331,-0.557568,0.584169,1.08261,-587.629,1651.91)">
                    <path d="M3094.2,822.229C3084.92,825.798 3082.37,820.073 3082.65,818.778C3083.19,816.24 3086.43,808.13 3081.75,818.491C3081.12,819.884 3078.45,825.425 3079.87,827.485C3081.28,829.545 3086.41,830.45 3090.29,829.733C3092.8,829.27 3097.78,820.854 3094.2,822.229Z" style="fill:rgb(98,55,178);"/>
                </g>
                <path d="M3100.68,780.121L3091.7,793.321L3079.85,792.939L3062.91,800.965L3044.58,794.993L3069.43,821.269L3082.6,806.694L3094.9,810.615L3100.68,780.121Z" style="fill:rgb(208,87,70);"/>
            </g>
        </g>
    </g>
    <defs>
        <linearGradient id="_Linear2" x1="0" y1="0" x2="1" y2="-0.107062" gradientUnits="userSpaceOnUse" gradientTransform="matrix(56.2419,6.04847,-10.812,31.4629,2703.21,437.612)"><stop offset="0" style="stop-color:rgb(143,166,209);stop-opacity:1"/><stop offset="1" style="stop-color:rgb(143,166,209);stop-opacity:0"/></linearGradient>
        <linearGradient id="_Linear4" x1="0" y1="0" x2="1" y2="0" gradientUnits="userSpaceOnUse" gradientTransform="matrix(73.0536,-2.02056,4.30621,34.2783,2676.5,453.48)"><stop offset="0" style="stop-color:rgb(194,229,238);stop-opacity:0.160784"/><stop offset="1" style="stop-color:rgb(194,229,238);stop-opacity:0"/></linearGradient>
        <linearGradient id="_Linear5" x1="0" y1="0" x2="1" y2="0.098206" gradientUnits="userSpaceOnUse" gradientTransform="matrix(-54.5279,5.56487,-9.10013,-36.2859,2823.74,429.307)"><stop offset="0" style="stop-color:rgb(80,30,152);stop-opacity:1"/><stop offset="1" style="stop-color:rgb(80,30,152);stop-opacity:0"/></linearGradient>
        <linearGradient id="_Linear6" x1="0" y1="0" x2="1" y2="0.0364925" gradientUnits="userSpaceOnUse" gradientTransform="matrix(-34.9468,0.306623,0.833587,-13.9693,2800.97,435.618)"><stop offset="0" style="stop-color:rgb(80,30,152);stop-opacity:1"/><stop offset="1" style="stop-color:rgb(80,30,152);stop-opacity:0"/></linearGradient>
        <linearGradient id="_Linear7" x1="0" y1="0" x2="1" y2="0" gradientUnits="userSpaceOnUse" gradientTransform="matrix(-27.7739,1.47434,-4.08906,-10.0141,2872.11,435.164)"><stop offset="0" style="stop-color:rgb(160,120,231);stop-opacity:0.3"/><stop offset="1" style="stop-color:rgb(160,120,231);stop-opacity:0"/></linearGradient>
        <linearGradient id="_Linear8" x1="0" y1="0" x2="1" y2="-0.103208" gradientUnits="userSpaceOnUse" gradientTransform="matrix(-12.7128,11.6308,-13.5008,-10.952,2942.37,755.961)"><stop offset="0" style="stop-color:rgb(74,89,97);stop-opacity:1"/><stop offset="1" style="stop-color:rgb(74,89,97);stop-opacity:0"/></linearGradient>
        <linearGradient id="_Linear9" x1="0" y1="0" x2="1" y2="0.261829" gradientUnits="userSpaceOnUse" gradientTransform="matrix(13.3359,12.1922,-14.2384,11.4194,2942.72,756.064)"><stop offset="0" style="stop-color:rgb(74,89,97);stop-opacity:1"/><stop offset="1" style="stop-color:rgb(74,89,97);stop-opacity:0"/></linearGradient>
        <linearGradient id="_Linear10" x1="0" y1="0" x2="1" y2="0" gradientUnits="userSpaceOnUse" gradientTransform="matrix(13.3359,12.1922,-14.2384,11.4194,2942.72,756.064)"><stop offset="0" style="stop-color:rgb(74,89,97);stop-opacity:1"/><stop offset="1" style="stop-color:rgb(74,89,97);stop-opacity:0"/></linearGradient>
        <linearGradient id="_Linear11" x1="0" y1="0" x2="1" y2="0" gradientUnits="userSpaceOnUse" gradientTransform="matrix(5.34612,-9.53906,9.53906,5.34612,2952.38,723.617)"><stop offset="0" style="stop-color:rgb(129,109,204);stop-opacity:1"/><stop offset="1" style="stop-color:rgb(129,109,204);stop-opacity:0"/></linearGradient>
        <linearGradient id="_Linear12" x1="0" y1="0" x2="1" y2="0" gradientUnits="userSpaceOnUse" gradientTransform="matrix(2.1312,-8.54024,-8.54024,-2.1312,2943.9,722.706)"><stop offset="0" style="stop-color:rgb(129,109,204);stop-opacity:1"/><stop offset="1" style="stop-color:rgb(129,109,204);stop-opacity:0"/></linearGradient>
    </defs>
</svg>
