<?xml version="1.0" encoding="UTF-8" standalone="no"?>
<!DOCTYPE svg PUBLIC "-//W3C//DTD SVG 1.1//EN" "http://www.w3.org/Graphics/SVG/1.1/DTD/svg11.dtd">
<svg width="100%" height="100%" viewBox="0 0 104 228" version="1.1" xmlns="http://www.w3.org/2000/svg" xmlns:xlink="http://www.w3.org/1999/xlink" xml:space="preserve" xmlns:serif="http://www.serif.com/" style="fill-rule:evenodd;clip-rule:evenodd;stroke-linecap:round;stroke-linejoin:round;stroke-miterlimit:1.5;">
    <g transform="matrix(1,0,0,1,-4967.59,-1236.9)">
        <g transform="matrix(0.788284,0,1.31276e-16,0.734254,5251.01,1325.1)">
            <g transform="matrix(0.753467,0,0,0.753467,-3282.09,-620.636)">
                <g transform="matrix(-0.572852,0,0,0.572852,4744.15,-170.875)">
                    <circle cx="1478.61" cy="1771.73" r="30.742" style="fill:rgb(180,81,250);"/>
                    <clipPath id="_clip1">
                        <circle cx="1478.61" cy="1771.73" r="30.742"/>
                    </clipPath>
                    <g clip-path="url(#_clip1)">
                        <g transform="matrix(0.200529,0,0,0.285191,1161.18,1221.99)">
                            <path d="M1736.26,1941.93C1678.87,2016.86 1468.99,2004.76 1429.65,1941.93L1429.65,1982.64C1461.78,2033.7 1585.19,2047.19 1666.26,2026.63C1700.5,2017.95 1727.19,2003.2 1736.26,1982.64L1736.26,1941.93Z" style="fill:rgb(91,5,152);"/>
                        </g>
                    </g>
                    <circle cx="1478.61" cy="1771.73" r="30.742" style="fill:none;stroke:rgb(187,100,248);stroke-width:2.6px;"/>
                </g>
                <g transform="matrix(-0.572852,-2.59392e-16,2.59392e-16,0.390321,4874.57,128.861)">
                    <path d="M1607.34,2080L1607.34,2400" style="fill:none;stroke:rgb(62,51,40);stroke-width:39.76px;"/>
                </g>
                <g transform="matrix(-0.572852,0,0,0.572852,4874.57,-250.803)">
                    <path d="M1607.34,2080C1607.34,2080 1574.29,2060.92 1539.86,2041.04C1492.74,2013.83 1463.35,1961.04 1463.35,1903.61C1463.35,1883.87 1463.35,1868.87 1463.35,1868.87" style="fill:none;stroke:rgb(62,51,40);stroke-width:34.02px;"/>
                </g>
                <g transform="matrix(-0.572852,0,0,0.572852,4874.57,-250.803)">
                    <path d="M1607.34,2208C1607.34,2208 1619.43,2201.02 1633.15,2193.1C1657.06,2179.29 1671.98,2152.5 1671.98,2123.35C1671.98,2114.11 1671.98,2107.22 1671.98,2107.22" style="fill:none;stroke:rgb(62,51,40);stroke-width:34.02px;"/>
                </g>
                <g transform="matrix(-0.572852,0,0,0.572852,4878.63,-309.044)">
                    <path d="M1613.23,2311.39C1613.23,2311.39 1591.46,2294.59 1571.7,2279.34C1551.94,2264.09 1540.23,2239.56 1540.23,2213.44C1540.23,2201.47 1540.23,2191.58 1540.23,2191.58" style="fill:none;stroke:rgb(62,51,40);stroke-width:34.02px;"/>
                </g>
                <g transform="matrix(0.541119,0,0,0.572852,3084.03,-250.803)">
                    <path d="M1607.34,2208C1607.34,2208 1621.06,2215.92 1634.85,2223.88C1640.75,2227.28 1647.97,2227.31 1653.88,2223.94C1659.8,2220.57 1663.54,2214.31 1663.75,2207.43C1663.75,2207.43 1663.75,2207.43 1663.75,2207.43" style="fill:none;stroke:rgb(62,51,40);stroke-width:34.98px;"/>
                </g>
                <g transform="matrix(-0.572852,0,0,0.572852,4843.32,-85.047)">
                    <g transform="matrix(0.725043,0,0,0.725043,509.717,467.326)">
                        <path d="M1296.13,1817.1C1294.7,1812.85 1293.92,1808.3 1293.92,1803.58C1293.92,1780.17 1312.92,1761.18 1336.32,1761.18C1359.73,1761.18 1378.72,1780.17 1378.72,1803.58C1378.72,1808.3 1377.95,1812.85 1376.52,1817.1C1377.95,1821.35 1378.72,1825.89 1378.72,1830.62C1378.72,1854.02 1359.73,1873.02 1336.32,1873.02C1312.92,1873.02 1293.92,1854.02 1293.92,1830.62C1293.92,1825.89 1294.7,1821.35 1296.13,1817.1Z" style="fill:rgb(180,81,250);"/>
                    </g>
                    <g transform="matrix(0.200529,0,0,0.285191,1161.18,1225.76)">
                        <path d="M1736.26,1941.93C1678.87,2016.86 1468.99,2004.76 1429.65,1941.93L1429.65,1982.64C1475.35,2055.27 1705.71,2051.87 1736.26,1982.64L1736.26,1941.93Z" style="fill:rgb(91,5,152);"/>
                    </g>
                </g>
                <g transform="matrix(-0.572852,0,0,0.572852,4960.6,-87.6927)">
                    <g transform="matrix(0.725043,0,0,0.725043,736.63,575.362)">
                        <path d="M1296.13,1817.1C1294.7,1812.85 1293.92,1808.3 1293.92,1803.58C1293.92,1780.17 1312.92,1761.18 1336.32,1761.18C1359.73,1761.18 1378.72,1780.17 1378.72,1803.58C1378.72,1808.3 1377.95,1812.85 1376.52,1817.1C1377.95,1821.35 1378.72,1825.89 1378.72,1830.62C1378.72,1854.02 1359.73,1873.02 1336.32,1873.02C1312.92,1873.02 1293.92,1854.02 1293.92,1830.62C1293.92,1825.89 1294.7,1821.35 1296.13,1817.1Z" style="fill:rgb(180,81,250);"/>
                    </g>
                    <g transform="matrix(0.200529,0,0,0.285191,1388.09,1333.79)">
                        <path d="M1736.26,1941.93C1678.87,2016.86 1468.99,2004.76 1429.65,1941.93L1429.65,1982.64C1461.78,2033.7 1585.19,2047.19 1666.26,2026.63C1700.5,2017.95 1727.19,2003.2 1736.26,1982.64L1736.26,1941.93Z" style="fill:rgb(91,5,152);"/>
                    </g>
                </g>
                <g transform="matrix(-0.572852,0,0,0.572852,4894.68,-143.852)">
                    <g transform="matrix(0.725043,0,0,0.725043,736.63,575.362)">
                        <path d="M1296.13,1817.1C1294.7,1812.85 1293.92,1808.3 1293.92,1803.58C1293.92,1780.17 1312.92,1761.18 1336.32,1761.18C1359.73,1761.18 1378.72,1780.17 1378.72,1803.58C1378.72,1808.3 1377.95,1812.85 1376.52,1817.1C1377.95,1821.35 1378.72,1825.89 1378.72,1830.62C1378.72,1854.02 1359.73,1873.02 1336.32,1873.02C1312.92,1873.02 1293.92,1854.02 1293.92,1830.62C1293.92,1825.89 1294.7,1821.35 1296.13,1817.1Z" style="fill:rgb(180,81,250);"/>
                    </g>
                    <g transform="matrix(0.200529,0,0,0.285191,1388.09,1333.79)">
                        <path d="M1736.26,1941.93C1678.87,2016.86 1468.99,2004.76 1429.65,1941.93L1429.65,1982.64C1475.35,2055.27 1705.71,2051.87 1736.26,1982.64L1736.26,1941.93Z" style="fill:rgb(91,5,152);"/>
                    </g>
                </g>
                <g id="tree" transform="matrix(-0.572852,0,0,0.572852,4887.47,-236.949)">
                    <g transform="matrix(0.64864,0,0,0.64864,571.704,620.762)">
                        <path d="M1463.76,1631.49C1471.75,1547.5 1542.82,1481.71 1629.2,1481.71C1715.58,1481.71 1786.65,1547.5 1794.64,1631.49L1795.39,1631.49L1795.39,2126.37L1795.33,2126.37C1796.43,2151.35 1780.78,2176.3 1748.23,2195.09C1684.19,2232.06 1578.87,2231.29 1513.17,2193.36C1480.87,2174.71 1464.13,2150.53 1463.06,2126.37L1463.01,2126.37L1463.01,1631.49L1463.76,1631.49Z" style="fill:rgb(180,81,250);"/>
                    </g>
                    <g transform="matrix(0.70314,0,0,1,515.427,26.4716)">
                        <path d="M1736.26,1941.93C1678.87,2016.86 1468.99,2004.76 1429.65,1941.93L1429.65,1982.64C1475.35,2055.27 1705.71,2051.87 1736.26,1982.64L1736.26,1941.93Z" style="fill:rgb(91,5,152);"/>
                    </g>
                    <g transform="matrix(0.70314,0,0,1,515.427,-154.368)">
                        <path d="M1736.26,1941.93C1678.87,2016.86 1468.99,2004.76 1429.65,1941.93L1429.65,1982.64C1475.35,2055.27 1705.71,2051.87 1736.26,1982.64L1736.26,1941.93Z" style="fill:rgb(91,5,152);"/>
                    </g>
                </g>
                <g transform="matrix(-0.572852,0,0,0.572852,4883.31,-216.213)">
                    <g transform="matrix(0.725043,0,0,0.725043,509.717,467.326)">
                        <path d="M1296.13,1817.1C1294.7,1812.85 1293.92,1808.3 1293.92,1803.58C1293.92,1780.17 1312.92,1761.18 1336.32,1761.18C1359.73,1761.18 1378.72,1780.17 1378.72,1803.58C1378.72,1808.3 1377.95,1812.85 1376.52,1817.1C1377.95,1821.35 1378.72,1825.89 1378.72,1830.62C1378.72,1854.02 1359.73,1873.02 1336.32,1873.02C1312.92,1873.02 1293.92,1854.02 1293.92,1830.62C1293.92,1825.89 1294.7,1821.35 1296.13,1817.1Z" style="fill:rgb(180,81,250);"/>
                    </g>
                    <g transform="matrix(0.200529,0,0,0.285191,1161.18,1225.76)">
                        <path d="M1736.26,1941.93C1678.87,2016.86 1468.99,2004.76 1429.65,1941.93L1429.65,1982.64C1475.35,2055.27 1705.71,2051.87 1736.26,1982.64L1736.26,1941.93Z" style="fill:rgb(91,5,152);"/>
                    </g>
                </g>
                <g transform="matrix(-0.572852,0,0,0.572852,4766.63,-262.521)">
                    <circle cx="1478.61" cy="1771.73" r="30.742" style="fill:rgb(180,81,250);"/>
                    <clipPath id="_clip2">
                        <circle cx="1478.61" cy="1771.73" r="30.742"/>
                    </clipPath>
                    <g clip-path="url(#_clip2)">
                        <g transform="matrix(0.200529,0,0,0.285191,1161.18,1221.78)">
                            <path d="M1736.26,1941.93C1678.87,2016.86 1468.99,2004.76 1429.65,1941.93L1429.65,1982.64C1461.78,2033.7 1585.19,2047.19 1666.26,2026.63C1700.5,2017.95 1727.19,2003.2 1736.26,1982.64L1736.26,1941.93Z" style="fill:rgb(91,5,152);"/>
                        </g>
                    </g>
                    <circle cx="1478.61" cy="1771.73" r="30.742" style="fill:none;stroke:rgb(187,100,248);stroke-width:2.6px;"/>
                </g>
                <g transform="matrix(-0.572852,0,0,0.572852,4809.16,-122.936)">
                    <circle cx="1478.61" cy="1771.73" r="30.742" style="fill:rgb(180,81,250);"/>
                    <clipPath id="_clip3">
                        <circle cx="1478.61" cy="1771.73" r="30.742"/>
                    </clipPath>
                    <g clip-path="url(#_clip3)">
                        <g transform="matrix(0.200529,0,0,0.285191,1161.18,1221.78)">
                            <path d="M1736.26,1941.93C1678.87,2016.86 1468.99,2004.76 1429.65,1941.93L1429.65,1982.64C1461.78,2033.7 1585.19,2047.19 1666.26,2026.63C1700.5,2017.95 1727.19,2003.2 1736.26,1982.64L1736.26,1941.93Z" style="fill:rgb(91,5,152);"/>
                        </g>
                    </g>
                    <circle cx="1478.61" cy="1771.73" r="30.742" style="fill:none;stroke:rgb(187,100,248);stroke-width:2.6px;"/>
                </g>
                <g transform="matrix(-0.572852,0,0,0.572852,4832.57,-332.273)">
                    <circle cx="1478.61" cy="1771.73" r="30.742" style="fill:rgb(180,81,250);"/>
                    <clipPath id="_clip4">
                        <circle cx="1478.61" cy="1771.73" r="30.742"/>
                    </clipPath>
                    <g clip-path="url(#_clip4)">
                        <g transform="matrix(0.200529,0,0,0.285191,1161.18,1223.36)">
                            <path d="M1736.26,1941.93C1678.87,2016.86 1468.99,2004.76 1429.65,1941.93L1429.65,1982.64C1461.78,2033.7 1585.19,2047.19 1666.26,2026.63C1700.5,2017.95 1727.19,2003.2 1736.26,1982.64L1736.26,1941.93Z" style="fill:rgb(91,5,152);"/>
                        </g>
                    </g>
                    <circle cx="1478.61" cy="1771.73" r="30.742" style="fill:none;stroke:rgb(187,100,248);stroke-width:2.6px;"/>
                </g>
            </g>
        </g>
    </g>
</svg>
