<?xml version="1.0" encoding="UTF-8" standalone="no"?>
<!DOCTYPE svg PUBLIC "-//W3C//DTD SVG 1.1//EN" "http://www.w3.org/Graphics/SVG/1.1/DTD/svg11.dtd">
<svg width="100%" height="100%" viewBox="0 0 634 231" version="1.1" xmlns="http://www.w3.org/2000/svg" xmlns:xlink="http://www.w3.org/1999/xlink" xml:space="preserve" xmlns:serif="http://www.serif.com/" style="fill-rule:evenodd;clip-rule:evenodd;stroke-linecap:round;stroke-linejoin:round;stroke-miterlimit:1.5;">
    <g transform="matrix(1,0,0,1,-3399.38,-1188.1)">
        <g transform="matrix(1,0,0,1,1030.44,428.33)">
            <g transform="matrix(0.441886,-0.493377,-0.5505,-0.493047,1386.92,3707.24)">
                <g transform="matrix(-0.3504,0,0,0.3504,5791.83,891.22)">
                    <g transform="matrix(0.542842,0,0,0.661361,1598.18,87.1872)">
                        <path d="M3607.78,302.236C3626.63,257.792 3510.45,241.172 3534.2,299.737C3453.53,272.919 3470.68,380.521 3515.93,371.889C3500.44,412.185 3640.53,409.269 3611.34,360.436C3647.21,368.355 3662.23,291.957 3607.78,302.236Z" style="fill:rgb(120,57,129);stroke:rgb(169,66,176);stroke-width:24.27px;"/>
                    </g>
                    <ellipse cx="3525.7" cy="303.443" rx="2.404" ry="1.388" style="fill:rgb(141,3,150);fill-opacity:0.45;stroke:rgb(169,66,176);stroke-width:14.84px;"/>
                </g>
                <g transform="matrix(-0.562521,0,0,-0.44118,6581.91,1270.65)">
                    <g transform="matrix(0.542842,0,0,0.661361,1598.18,87.1872)">
                        <path d="M3607.78,302.236C3626.63,257.792 3510.45,241.172 3534.2,299.737C3453.53,272.919 3470.68,380.521 3515.93,371.889C3500.44,412.185 3640.53,409.269 3611.34,360.436C3647.21,368.355 3662.23,291.957 3607.78,302.236Z" style="fill:rgb(120,57,129);stroke:rgb(169,66,176);stroke-width:17.45px;"/>
                    </g>
                    <ellipse cx="3525.7" cy="303.443" rx="2.404" ry="1.388" style="fill:rgb(141,3,150);fill-opacity:0.45;stroke:rgb(169,66,176);stroke-width:10.42px;"/>
                </g>
                <g transform="matrix(-1,0,0,1,8315.14,0)">
                    <g transform="matrix(-3.13771e-17,-0.657732,0.657732,-3.13771e-17,1994.44,2898.94)">
                        <path d="M2650.91,2448.9C2631.14,2431.17 2618.57,2404.67 2618.57,2375.07C2618.57,2324.53 2635.22,2283 2681.83,2278.83C2682.1,2242.84 2723.58,2213.69 2774.62,2213.69C2797.61,2213.69 2818.66,2219.6 2834.88,2229.39C2845.26,2233.13 2854.65,2240.1 2862.4,2249.43C2872.01,2238.24 2884.26,2231.53 2897.61,2231.53C2917.41,2231.53 2934.82,2246.31 2944.73,2268.59C2947.58,2268.16 2950.49,2267.93 2953.45,2267.93C2985.07,2267.93 2990.75,2293.61 2990.75,2325.23C2990.75,2326.57 2990.7,2327.91 2990.61,2329.23C3007.57,2340.86 3018.7,2360.38 3018.7,2382.47C3018.7,2399.64 3011.98,2415.26 3001.03,2426.82C3011.92,2436.28 3008.42,2478.68 2989.98,2510.62C2971.54,2542.55 2947.83,2550.22 2915.87,2548.57C2885.64,2556.72 2820.08,2771.47 2791.96,2846.2C2788.58,2855.18 2783.73,2841.65 2779.73,2839.55C2776.91,2838.06 2774.52,2850.41 2773.39,2844.69C2757.73,2765.7 2727.23,2546.99 2723.58,2523.57C2721.86,2512.49 2721.61,2550.66 2668.89,2517.61C2656.06,2509.57 2645.67,2482.76 2645.67,2467.08C2645.67,2460.56 2647.55,2454.39 2650.91,2448.9Z" style="fill:rgb(120,57,129);stroke:rgb(169,66,176);stroke-width:8.11px;"/>
                    </g>
                    <path d="M3659.47,999.246C3650.36,1029.23 3628.41,1013.83 3616.73,1016.34C3625.58,1034.14 3597.13,1042.65 3589.57,1037.06C3608.68,1046.12 3624.55,1062.24 3599,1072.57C3638.55,1066.27 3652.27,1076.43 3651.39,1100.45" style="fill:none;stroke:rgb(169,66,176);stroke-width:3.65px;"/>
                    <path d="M3642.95,1076.41L3814.12,1072.29" style="fill:none;stroke:rgb(169,66,176);stroke-width:1.38px;"/>
                    <path d="M3611.48,1058.24L3834.04,1068.12" style="fill:none;stroke:rgb(169,66,176);stroke-width:1.38px;"/>
                    <g transform="matrix(1.23477,0.0186503,0.0186503,1.00148,-876.941,-69.6652)">
                        <path d="M3611.48,1038.57L3806.6,1059.99" style="fill:none;stroke:rgb(169,66,176);stroke-width:1.21px;"/>
                    </g>
                    <g transform="matrix(1.07596,0.0149446,0.0149446,1.00294,-300.211,-59.0633)">
                        <path d="M3642.95,1020.4L3785.88,1049.87" style="fill:none;stroke:rgb(169,66,176);stroke-width:1.31px;"/>
                    </g>
                </g>
            </g>
            <g transform="matrix(-0.441886,-0.493377,0.5505,-0.493047,3984.68,3707.24)">
                <g transform="matrix(-0.3504,0,0,0.3504,5791.83,891.22)">
                    <g transform="matrix(0.542842,0,0,0.661361,1598.18,87.1872)">
                        <path d="M3607.78,302.236C3626.63,257.792 3510.45,241.172 3534.2,299.737C3453.53,272.919 3470.68,380.521 3515.93,371.889C3500.44,412.185 3640.53,409.269 3611.34,360.436C3647.21,368.355 3662.23,291.957 3607.78,302.236Z" style="fill:rgb(120,57,129);stroke:rgb(169,66,176);stroke-width:24.27px;"/>
                    </g>
                    <ellipse cx="3525.7" cy="303.443" rx="2.404" ry="1.388" style="fill:rgb(141,3,150);fill-opacity:0.45;stroke:rgb(169,66,176);stroke-width:14.84px;"/>
                </g>
                <g transform="matrix(-0.562521,0,0,-0.44118,6581.91,1270.65)">
                    <g transform="matrix(0.542842,0,0,0.661361,1598.18,87.1872)">
                        <path d="M3607.78,302.236C3626.63,257.792 3510.45,241.172 3534.2,299.737C3453.53,272.919 3470.68,380.521 3515.93,371.889C3500.44,412.185 3640.53,409.269 3611.34,360.436C3647.21,368.355 3662.23,291.957 3607.78,302.236Z" style="fill:rgb(120,57,129);stroke:rgb(169,66,176);stroke-width:17.45px;"/>
                    </g>
                    <ellipse cx="3525.7" cy="303.443" rx="2.404" ry="1.388" style="fill:rgb(141,3,150);fill-opacity:0.45;stroke:rgb(169,66,176);stroke-width:10.42px;"/>
                </g>
                <g transform="matrix(-1,0,0,1,8315.14,0)">
                    <g transform="matrix(-3.13771e-17,-0.657732,0.657732,-3.13771e-17,1994.44,2898.94)">
                        <path d="M2650.91,2448.9C2631.14,2431.17 2618.57,2404.67 2618.57,2375.07C2618.57,2324.53 2635.22,2283 2681.83,2278.83C2682.1,2242.84 2723.58,2213.69 2774.62,2213.69C2797.61,2213.69 2818.66,2219.6 2834.88,2229.39C2845.26,2233.13 2854.65,2240.1 2862.4,2249.43C2872.01,2238.24 2884.26,2231.53 2897.61,2231.53C2917.41,2231.53 2934.82,2246.31 2944.73,2268.59C2947.58,2268.16 2950.49,2267.93 2953.45,2267.93C2985.07,2267.93 2990.75,2293.61 2990.75,2325.23C2990.75,2326.57 2990.7,2327.91 2990.61,2329.23C3007.57,2340.86 3018.7,2360.38 3018.7,2382.47C3018.7,2399.64 3011.98,2415.26 3001.03,2426.82C3011.92,2436.28 3008.42,2478.68 2989.98,2510.62C2971.54,2542.55 2947.83,2550.22 2915.87,2548.57C2885.64,2556.72 2820.08,2771.47 2791.96,2846.2C2788.58,2855.18 2783.73,2841.65 2779.73,2839.55C2776.91,2838.06 2774.52,2850.41 2773.39,2844.69C2757.73,2765.7 2727.23,2546.99 2723.58,2523.57C2721.86,2512.49 2721.61,2550.66 2668.89,2517.61C2656.06,2509.57 2645.67,2482.76 2645.67,2467.08C2645.67,2460.56 2647.55,2454.39 2650.91,2448.9Z" style="fill:rgb(120,57,129);stroke:rgb(169,66,176);stroke-width:8.11px;"/>
                    </g>
                    <path d="M3659.47,999.246C3650.36,1029.23 3628.41,1013.83 3616.73,1016.34C3625.58,1034.14 3597.13,1042.65 3589.57,1037.06C3608.68,1046.12 3624.55,1062.24 3599,1072.57C3638.55,1066.27 3652.27,1076.43 3651.39,1100.45" style="fill:none;stroke:rgb(169,66,176);stroke-width:3.65px;"/>
                    <path d="M3642.95,1076.41L3814.12,1072.29" style="fill:none;stroke:rgb(169,66,176);stroke-width:1.38px;"/>
                    <path d="M3611.48,1058.24L3834.04,1068.12" style="fill:none;stroke:rgb(169,66,176);stroke-width:1.38px;"/>
                    <g transform="matrix(1.23477,0.0186503,0.0186503,1.00148,-876.941,-69.6652)">
                        <path d="M3611.48,1038.57L3806.6,1059.99" style="fill:none;stroke:rgb(169,66,176);stroke-width:1.21px;"/>
                    </g>
                    <g transform="matrix(1.07596,0.0149446,0.0149446,1.00294,-300.211,-59.0633)">
                        <path d="M3642.95,1020.4L3785.88,1049.87" style="fill:none;stroke:rgb(169,66,176);stroke-width:1.31px;"/>
                    </g>
                </g>
            </g>
        </g>
    </g>
</svg>
