<?xml version="1.0" encoding="UTF-8" standalone="no"?>
<!DOCTYPE svg PUBLIC "-//W3C//DTD SVG 1.1//EN" "http://www.w3.org/Graphics/SVG/1.1/DTD/svg11.dtd">
<svg width="100%" height="100%" viewBox="0 0 231 231" version="1.1" xmlns="http://www.w3.org/2000/svg" xmlns:xlink="http://www.w3.org/1999/xlink" xml:space="preserve" xmlns:serif="http://www.serif.com/" style="fill-rule:evenodd;clip-rule:evenodd;stroke-linejoin:round;stroke-miterlimit:2;">
    <g transform="matrix(1,0,0,1,-2435.3,-1568.43)">
        <g transform="matrix(0.704916,0,0,0.704916,828.879,757.847)">
            <g id="Orb-Full" serif:id="Orb Full">
                <g transform="matrix(0.645262,-2.498e-16,2.498e-16,0.645262,1169.1,533.261)">
                    <path d="M1947.12,972.42C2126.84,947.093 2290.16,1245.93 2193.99,1209.57C2037.35,1150.35 1997.17,1267.97 1973.83,1429.73C1960.72,1520.51 1744.88,1347.12 1744.88,1225.61C1744.88,1104.1 1826.8,989.376 1947.12,972.42Z" style="fill:white;fill-opacity:0.09;"/>
                </g>
                <g transform="matrix(-0.54102,2.77556e-17,2.77556e-17,0.54102,3497.42,635.312)">
                    <path d="M1947.12,972.42C2126.84,947.093 2208.88,1107.84 2193.99,1209.57C2174.11,1345.35 2077.3,1382.23 1973.83,1429.73C1890.47,1468 1744.88,1347.12 1744.88,1225.61C1744.88,1104.1 1826.8,989.376 1947.12,972.42Z" style="fill:white;fill-opacity:0.09;"/>
                </g>
                <g transform="matrix(0.308548,0,0,0.190949,1537.73,1071.91)">
                    <path d="M3415.61,895.648C3415.61,895.648 3422.79,1506.21 3422.79,1506.27C3422.25,1644.96 3219.85,2040.06 2953.74,2040.06C2687.63,2040.06 2567.98,1854.72 2479.17,1629.22C2467.57,1599.74 2442.09,887.479 2480.42,887.479C2497.21,915.799 2881.98,65.982 3291.8,701.345C3359.71,806.631 3385.66,976.411 3415.61,895.648Z" style="fill:rgb(9,224,183);fill-opacity:0.58;"/>
                </g>
                <g transform="matrix(-0.308548,0,0,0.190949,3349.71,1071.91)">
                    <path d="M3415.61,895.648C3415.61,895.648 3422.79,1506.21 3422.79,1506.27C3422.25,1644.96 3212.8,1979.23 2953.74,2040.06C2694.39,2100.96 2633.18,1833.75 2479.17,1629.22C2452.76,1594.13 2500.61,710.579 2552.55,723.012C2778.11,437.596 3034.8,347.672 3190.11,543.422C3311.95,696.986 3385.66,976.411 3415.61,895.648Z" style="fill:rgb(9,224,183);fill-opacity:0.58;"/>
                </g>
                <g transform="matrix(0.477343,-1.73472e-17,1.73472e-17,0.477343,1888.39,107.328)">
                    <g transform="matrix(507.574,0,0,507.574,853.289,2708.66)">
                        <path d="M0.282,-0.067L0.282,-0.511C0.2,-0.448 0.144,-0.416 0.115,-0.416C0.102,-0.416 0.089,-0.421 0.079,-0.432C0.068,-0.443 0.063,-0.456 0.063,-0.47C0.063,-0.487 0.068,-0.499 0.079,-0.507C0.089,-0.515 0.107,-0.525 0.134,-0.537C0.173,-0.556 0.205,-0.575 0.228,-0.596C0.252,-0.616 0.273,-0.639 0.291,-0.665C0.309,-0.69 0.321,-0.706 0.327,-0.711C0.332,-0.717 0.343,-0.72 0.358,-0.72C0.375,-0.72 0.389,-0.714 0.399,-0.7C0.41,-0.687 0.415,-0.668 0.415,-0.645L0.415,-0.086C0.415,-0.021 0.393,0.012 0.348,0.012C0.328,0.012 0.312,0.006 0.3,-0.008C0.288,-0.021 0.282,-0.041 0.282,-0.067Z" style="fill:rgb(108,32,109);fill-rule:nonzero;"/>
                    </g>
                    <g transform="matrix(507.574,0,0,507.574,1154.91,2708.66)">
                        <path d="M0.547,-0.351C0.547,-0.298 0.544,-0.252 0.537,-0.213C0.531,-0.175 0.519,-0.14 0.501,-0.109C0.479,-0.07 0.45,-0.041 0.415,-0.02C0.38,0.001 0.341,0.011 0.298,0.011C0.248,0.011 0.204,-0.003 0.165,-0.031C0.126,-0.059 0.096,-0.097 0.076,-0.147C0.066,-0.174 0.059,-0.204 0.054,-0.237C0.049,-0.269 0.047,-0.305 0.047,-0.343C0.047,-0.392 0.049,-0.436 0.055,-0.476C0.06,-0.515 0.068,-0.549 0.079,-0.577C0.098,-0.624 0.126,-0.66 0.163,-0.684C0.199,-0.709 0.243,-0.721 0.294,-0.721C0.327,-0.721 0.358,-0.716 0.385,-0.705C0.413,-0.694 0.437,-0.678 0.457,-0.657C0.478,-0.636 0.495,-0.61 0.51,-0.579C0.535,-0.525 0.547,-0.449 0.547,-0.351ZM0.413,-0.361C0.413,-0.42 0.41,-0.469 0.402,-0.507C0.395,-0.545 0.383,-0.574 0.366,-0.593C0.349,-0.612 0.326,-0.622 0.296,-0.622C0.253,-0.622 0.223,-0.6 0.206,-0.557C0.19,-0.514 0.181,-0.447 0.181,-0.357C0.181,-0.296 0.185,-0.246 0.192,-0.207C0.199,-0.167 0.211,-0.138 0.228,-0.118C0.245,-0.098 0.268,-0.088 0.297,-0.088C0.327,-0.088 0.35,-0.098 0.367,-0.119C0.384,-0.14 0.396,-0.17 0.403,-0.208C0.41,-0.247 0.413,-0.298 0.413,-0.361Z" style="fill:rgb(108,32,109);fill-rule:nonzero;"/>
                    </g>
                </g>
                <g transform="matrix(-0.443733,0,0,-0.190949,3746.65,1662.57)">
                    <path d="M3099.74,1121.65C3201.74,1194.41 3271.45,1873.27 3271.45,1873.33C3270.91,2012.01 3203.27,2569.1 2938.52,2596.05C2698.06,2620.53 2623.04,2073.11 2576.89,1937.08C2558.09,1881.64 2718.24,1185.85 2806.74,1083.71C2954.25,913.454 2909.34,985.818 3099.74,1121.65Z" style="fill:rgb(30,223,185);fill-opacity:0.23;"/>
                </g>
                <g transform="matrix(0.207669,0.0531131,-0.0531131,0.207669,2018.81,915.468)">
                    <path d="M1961.54,904.701C2152.5,817.592 2357.19,998.745 2227.12,1058.04C2074.75,1127.5 1881.01,1225.44 1857.67,1387.21C1844.57,1477.99 1767.76,1223.65 1796.92,1118.43C1829.37,1001.33 1902.46,931.649 1961.54,904.701Z" style="fill:white;fill-opacity:0.09;"/>
                </g>
                <g transform="matrix(0.0423248,0.00216545,-0.00216545,0.0423248,2302.95,1158.21)">
                    <path d="M1961.54,904.701C2152.5,817.592 2266.19,942.281 2262.27,1085.17C2257.22,1269.26 2200.58,1264.79 2128.08,1282.79C2039.07,1304.89 1872.48,1269.47 1858.08,1161.23C1842.18,1041.78 1902.46,931.649 1961.54,904.701Z" style="fill:white;fill-opacity:0.15;"/>
                </g>
                <g transform="matrix(0.0218748,0.00111917,-0.00111917,0.0218748,2332.37,1196.98)">
                    <path d="M1961.54,904.701C2152.5,817.592 2266.19,942.281 2262.27,1085.17C2257.22,1269.26 2200.58,1264.79 2128.08,1282.79C2039.07,1304.89 1872.48,1269.47 1858.08,1161.23C1842.18,1041.78 1902.46,931.649 1961.54,904.701Z" style="fill:white;fill-opacity:0.15;"/>
                </g>
                <g transform="matrix(-0.0423605,-0.00129152,0.00129152,-0.0423605,2609.89,1455.9)">
                    <path d="M1961.54,904.701C2152.5,817.592 2357.19,998.745 2227.12,1058.04C2074.75,1127.5 1930.75,1143.57 1907.4,1305.33C1894.3,1396.11 1767.76,1223.65 1796.92,1118.43C1829.37,1001.33 1902.46,931.649 1961.54,904.701Z" style="fill:white;fill-opacity:0.15;"/>
                </g>
                <g transform="matrix(0.0423248,0.00216545,-0.00216545,0.0423248,2458.35,1324.92)">
                    <path d="M1961.54,904.701C2152.5,817.592 2266.19,942.281 2262.27,1085.17C2257.22,1269.26 2200.58,1264.79 2128.08,1282.79C2039.07,1304.89 1872.48,1269.47 1858.08,1161.23C1842.18,1041.78 1902.46,931.649 1961.54,904.701Z" style="fill:white;fill-opacity:0.15;"/>
                </g>
                <g transform="matrix(0.744195,0,0,0.744195,876.05,361.303)">
                    <path d="M2105.2,1059.67C2226.71,1059.67 2325.36,1158.33 2325.36,1279.84C2325.36,1401.35 2226.71,1500 2105.2,1500C1983.69,1500 1885.04,1401.35 1885.04,1279.84C1885.04,1158.33 1983.69,1059.67 2105.2,1059.67ZM2105.2,1088.94C1999.84,1088.94 1914.31,1174.48 1914.31,1279.84C1914.31,1385.19 1999.84,1470.73 2105.2,1470.73C2210.56,1470.73 2296.1,1385.19 2296.1,1279.84C2296.1,1174.48 2210.56,1088.94 2105.2,1088.94Z" style="fill:rgb(170,180,232);"/>
                </g>
            </g>
        </g>
    </g>
</svg>
