<?xml version="1.0" encoding="UTF-8" standalone="no"?>
<!DOCTYPE svg PUBLIC "-//W3C//DTD SVG 1.1//EN" "http://www.w3.org/Graphics/SVG/1.1/DTD/svg11.dtd">
<svg width="100%" height="100%" viewBox="0 0 231 231" version="1.1" xmlns="http://www.w3.org/2000/svg" xmlns:xlink="http://www.w3.org/1999/xlink" xml:space="preserve" xmlns:serif="http://www.serif.com/" style="fill-rule:evenodd;clip-rule:evenodd;stroke-linejoin:round;stroke-miterlimit:2;">
    <g transform="matrix(1,0,0,1,-2169.01,-1568.43)">
        <g transform="matrix(0.704916,0,0,0.704916,562.584,757.847)">
            <g id="Orb-Full" serif:id="Orb Full">
                <g transform="matrix(0.645262,-2.498e-16,2.498e-16,0.645262,1169.1,533.261)">
                    <path d="M1947.12,972.42C2126.84,947.093 2290.16,1245.93 2193.99,1209.57C2037.35,1150.35 1997.17,1267.97 1973.83,1429.73C1960.72,1520.51 1744.88,1347.12 1744.88,1225.61C1744.88,1104.1 1826.8,989.376 1947.12,972.42Z" style="fill:white;fill-opacity:0.09;"/>
                </g>
                <g transform="matrix(-0.54102,2.77556e-17,2.77556e-17,0.54102,3497.42,635.312)">
                    <path d="M1947.12,972.42C2126.84,947.093 2208.88,1107.84 2193.99,1209.57C2174.11,1345.35 2077.3,1382.23 1973.83,1429.73C1890.47,1468 1744.88,1347.12 1744.88,1225.61C1744.88,1104.1 1826.8,989.376 1947.12,972.42Z" style="fill:white;fill-opacity:0.09;"/>
                </g>
                <g transform="matrix(0.308548,0,0,0.190949,1537.73,1071.91)">
                    <path d="M3415.61,895.648C3415.61,895.648 3422.79,1506.21 3422.79,1506.27C3422.25,1644.96 3219.85,2040.06 2953.74,2040.06C2687.63,2040.06 2567.98,1854.72 2479.17,1629.22C2467.57,1599.74 2442.09,887.479 2480.42,887.479C2497.21,915.799 2881.98,65.982 3291.8,701.345C3359.71,806.631 3385.66,976.411 3415.61,895.648Z" style="fill:rgb(9,224,183);fill-opacity:0.58;"/>
                </g>
                <g transform="matrix(-0.308548,0,0,0.190949,3349.71,1071.91)">
                    <path d="M3415.61,895.648C3415.61,895.648 3422.79,1506.21 3422.79,1506.27C3422.25,1644.96 3212.8,1979.23 2953.74,2040.06C2694.39,2100.96 2633.18,1833.75 2479.17,1629.22C2452.76,1594.13 2500.61,710.579 2552.55,723.012C2778.11,437.596 3034.8,347.672 3190.11,543.422C3311.95,696.986 3385.66,976.411 3415.61,895.648Z" style="fill:rgb(9,224,183);fill-opacity:0.58;"/>
                </g>
                <g transform="matrix(0.477343,-1.73472e-17,1.73472e-17,0.477343,1963.07,107.328)">
                    <g transform="matrix(507.574,0,0,507.574,853.289,2708.66)">
                        <path d="M0.407,-0.321C0.386,-0.295 0.362,-0.276 0.335,-0.263C0.309,-0.251 0.279,-0.244 0.247,-0.244C0.216,-0.244 0.188,-0.25 0.161,-0.262C0.135,-0.274 0.112,-0.29 0.093,-0.312C0.073,-0.333 0.058,-0.358 0.048,-0.386C0.037,-0.415 0.032,-0.445 0.032,-0.476C0.032,-0.51 0.038,-0.541 0.05,-0.572C0.062,-0.602 0.078,-0.628 0.1,-0.65C0.122,-0.672 0.148,-0.689 0.178,-0.702C0.208,-0.714 0.241,-0.72 0.278,-0.72C0.32,-0.72 0.357,-0.713 0.39,-0.697C0.423,-0.682 0.451,-0.66 0.473,-0.631C0.496,-0.601 0.513,-0.565 0.525,-0.521C0.537,-0.476 0.543,-0.426 0.543,-0.37C0.543,-0.308 0.537,-0.253 0.524,-0.205C0.511,-0.157 0.493,-0.117 0.469,-0.085C0.444,-0.052 0.415,-0.028 0.381,-0.012C0.347,0.003 0.309,0.011 0.266,0.011C0.224,0.011 0.187,0.003 0.156,-0.013C0.125,-0.029 0.101,-0.049 0.084,-0.073C0.068,-0.097 0.06,-0.12 0.06,-0.142C0.06,-0.156 0.065,-0.168 0.075,-0.179C0.085,-0.189 0.098,-0.195 0.114,-0.195C0.128,-0.195 0.141,-0.191 0.152,-0.183C0.164,-0.175 0.172,-0.163 0.178,-0.147C0.185,-0.127 0.197,-0.112 0.214,-0.1C0.23,-0.088 0.249,-0.082 0.27,-0.082C0.289,-0.082 0.306,-0.087 0.323,-0.096C0.339,-0.106 0.354,-0.119 0.365,-0.136C0.389,-0.171 0.403,-0.233 0.407,-0.321ZM0.396,-0.47C0.396,-0.492 0.393,-0.513 0.387,-0.531C0.381,-0.55 0.372,-0.566 0.362,-0.58C0.351,-0.594 0.338,-0.604 0.323,-0.612C0.307,-0.62 0.291,-0.624 0.273,-0.624C0.242,-0.624 0.216,-0.611 0.194,-0.584C0.173,-0.558 0.162,-0.523 0.162,-0.479C0.162,-0.436 0.173,-0.401 0.194,-0.375C0.216,-0.35 0.243,-0.337 0.276,-0.337C0.296,-0.337 0.315,-0.342 0.334,-0.353C0.352,-0.363 0.367,-0.379 0.379,-0.399C0.39,-0.419 0.396,-0.443 0.396,-0.47Z" style="fill:rgb(108,32,109);fill-rule:nonzero;"/>
                    </g>
                </g>
                <g transform="matrix(-0.443733,0,0,-0.190949,3746.65,1662.57)">
                    <path d="M3099.74,1121.65C3201.74,1194.41 3271.45,1873.27 3271.45,1873.33C3270.91,2012.01 3203.27,2569.1 2938.52,2596.05C2698.06,2620.53 2623.04,2073.11 2576.89,1937.08C2558.09,1881.64 2718.24,1185.85 2806.74,1083.71C2954.25,913.454 2909.34,985.818 3099.74,1121.65Z" style="fill:rgb(30,223,185);fill-opacity:0.23;"/>
                </g>
                <g transform="matrix(0.207669,0.0531131,-0.0531131,0.207669,2018.81,915.468)">
                    <path d="M1961.54,904.701C2152.5,817.592 2357.19,998.745 2227.12,1058.04C2074.75,1127.5 1881.01,1225.44 1857.67,1387.21C1844.57,1477.99 1767.76,1223.65 1796.92,1118.43C1829.37,1001.33 1902.46,931.649 1961.54,904.701Z" style="fill:white;fill-opacity:0.09;"/>
                </g>
                <g transform="matrix(0.0423248,0.00216545,-0.00216545,0.0423248,2302.95,1158.21)">
                    <path d="M1961.54,904.701C2152.5,817.592 2266.19,942.281 2262.27,1085.17C2257.22,1269.26 2200.58,1264.79 2128.08,1282.79C2039.07,1304.89 1872.48,1269.47 1858.08,1161.23C1842.18,1041.78 1902.46,931.649 1961.54,904.701Z" style="fill:white;fill-opacity:0.15;"/>
                </g>
                <g transform="matrix(0.0218748,0.00111917,-0.00111917,0.0218748,2332.37,1196.98)">
                    <path d="M1961.54,904.701C2152.5,817.592 2266.19,942.281 2262.27,1085.17C2257.22,1269.26 2200.58,1264.79 2128.08,1282.79C2039.07,1304.89 1872.48,1269.47 1858.08,1161.23C1842.18,1041.78 1902.46,931.649 1961.54,904.701Z" style="fill:white;fill-opacity:0.15;"/>
                </g>
                <g transform="matrix(-0.0423605,-0.00129152,0.00129152,-0.0423605,2609.89,1455.9)">
                    <path d="M1961.54,904.701C2152.5,817.592 2357.19,998.745 2227.12,1058.04C2074.75,1127.5 1930.75,1143.57 1907.4,1305.33C1894.3,1396.11 1767.76,1223.65 1796.92,1118.43C1829.37,1001.33 1902.46,931.649 1961.54,904.701Z" style="fill:white;fill-opacity:0.15;"/>
                </g>
                <g transform="matrix(0.0423248,0.00216545,-0.00216545,0.0423248,2458.35,1324.92)">
                    <path d="M1961.54,904.701C2152.5,817.592 2266.19,942.281 2262.27,1085.17C2257.22,1269.26 2200.58,1264.79 2128.08,1282.79C2039.07,1304.89 1872.48,1269.47 1858.08,1161.23C1842.18,1041.78 1902.46,931.649 1961.54,904.701Z" style="fill:white;fill-opacity:0.15;"/>
                </g>
                <g transform="matrix(0.744195,0,0,0.744195,876.05,361.303)">
                    <path d="M2105.2,1059.67C2226.71,1059.67 2325.36,1158.33 2325.36,1279.84C2325.36,1401.35 2226.71,1500 2105.2,1500C1983.69,1500 1885.04,1401.35 1885.04,1279.84C1885.04,1158.33 1983.69,1059.67 2105.2,1059.67ZM2105.2,1088.94C1999.84,1088.94 1914.31,1174.48 1914.31,1279.84C1914.31,1385.19 1999.84,1470.73 2105.2,1470.73C2210.56,1470.73 2296.1,1385.19 2296.1,1279.84C2296.1,1174.48 2210.56,1088.94 2105.2,1088.94Z" style="fill:rgb(170,180,232);"/>
                </g>
            </g>
        </g>
    </g>
</svg>
