<?xml version="1.0" encoding="UTF-8" standalone="no"?>
<!DOCTYPE svg PUBLIC "-//W3C//DTD SVG 1.1//EN" "http://www.w3.org/Graphics/SVG/1.1/DTD/svg11.dtd">
<svg width="100%" height="100%" viewBox="0 0 231 231" version="1.1" xmlns="http://www.w3.org/2000/svg" xmlns:xlink="http://www.w3.org/1999/xlink" xml:space="preserve" xmlns:serif="http://www.serif.com/" style="fill-rule:evenodd;clip-rule:evenodd;stroke-linejoin:round;stroke-miterlimit:2;">
    <g transform="matrix(1,0,0,1,-588.666,-1568.43)">
        <g transform="matrix(0.704916,0,0,0.704916,-1017.76,757.847)">
            <g id="Orb-Full" serif:id="Orb Full">
                <g transform="matrix(0.645262,-2.498e-16,2.498e-16,0.645262,1169.1,533.261)">
                    <path d="M1947.12,972.42C2126.84,947.093 2290.16,1245.93 2193.99,1209.57C2037.35,1150.35 1997.17,1267.97 1973.83,1429.73C1960.72,1520.51 1744.88,1347.12 1744.88,1225.61C1744.88,1104.1 1826.8,989.376 1947.12,972.42Z" style="fill:white;fill-opacity:0.09;"/>
                </g>
                <g transform="matrix(-0.54102,2.77556e-17,2.77556e-17,0.54102,3497.42,635.312)">
                    <path d="M1947.12,972.42C2126.84,947.093 2208.88,1107.84 2193.99,1209.57C2174.11,1345.35 2077.3,1382.23 1973.83,1429.73C1890.47,1468 1744.88,1347.12 1744.88,1225.61C1744.88,1104.1 1826.8,989.376 1947.12,972.42Z" style="fill:white;fill-opacity:0.09;"/>
                </g>
                <g transform="matrix(0.308548,0,0,0.190949,1537.73,1071.91)">
                    <path d="M3415.61,895.648C3415.61,895.648 3422.79,1506.21 3422.79,1506.27C3422.25,1644.96 3219.85,2040.06 2953.74,2040.06C2687.63,2040.06 2567.98,1854.72 2479.17,1629.22C2467.57,1599.74 2442.09,887.479 2480.42,887.479C2497.21,915.799 2881.98,65.982 3291.8,701.345C3359.71,806.631 3385.66,976.411 3415.61,895.648Z" style="fill:rgb(9,224,183);fill-opacity:0.58;"/>
                </g>
                <g transform="matrix(-0.308548,0,0,0.190949,3349.71,1071.91)">
                    <path d="M3415.61,895.648C3415.61,895.648 3422.79,1506.21 3422.79,1506.27C3422.25,1644.96 3212.8,1979.23 2953.74,2040.06C2694.39,2100.96 2633.18,1833.75 2479.17,1629.22C2452.76,1594.13 2500.61,710.579 2552.55,723.012C2778.11,437.596 3034.8,347.672 3190.11,543.422C3311.95,696.986 3385.66,976.411 3415.61,895.648Z" style="fill:rgb(9,224,183);fill-opacity:0.58;"/>
                </g>
                <g transform="matrix(0.477343,-1.73472e-17,1.73472e-17,0.477343,1963.07,107.328)">
                    <g transform="matrix(507.574,0,0,507.574,853.289,2708.66)">
                        <path d="M0.274,-0.432C0.304,-0.432 0.33,-0.441 0.351,-0.458C0.373,-0.476 0.384,-0.501 0.384,-0.534C0.384,-0.559 0.375,-0.581 0.358,-0.599C0.341,-0.617 0.317,-0.626 0.288,-0.626C0.268,-0.626 0.252,-0.623 0.239,-0.618C0.226,-0.612 0.216,-0.605 0.208,-0.596C0.201,-0.587 0.194,-0.575 0.187,-0.561C0.181,-0.546 0.174,-0.533 0.169,-0.52C0.166,-0.513 0.16,-0.508 0.151,-0.504C0.143,-0.5 0.133,-0.498 0.122,-0.498C0.109,-0.498 0.097,-0.503 0.086,-0.514C0.075,-0.524 0.07,-0.539 0.07,-0.556C0.07,-0.573 0.075,-0.591 0.085,-0.61C0.095,-0.628 0.11,-0.646 0.13,-0.663C0.15,-0.68 0.174,-0.694 0.204,-0.704C0.233,-0.714 0.266,-0.719 0.302,-0.719C0.333,-0.719 0.362,-0.715 0.388,-0.706C0.414,-0.698 0.437,-0.685 0.456,-0.669C0.475,-0.653 0.49,-0.634 0.5,-0.612C0.509,-0.591 0.514,-0.568 0.514,-0.543C0.514,-0.51 0.507,-0.483 0.493,-0.459C0.479,-0.436 0.458,-0.413 0.432,-0.391C0.458,-0.377 0.479,-0.362 0.496,-0.344C0.514,-0.327 0.527,-0.307 0.536,-0.286C0.544,-0.265 0.549,-0.242 0.549,-0.217C0.549,-0.187 0.543,-0.159 0.531,-0.131C0.519,-0.103 0.502,-0.079 0.479,-0.057C0.455,-0.035 0.428,-0.018 0.396,-0.006C0.365,0.006 0.329,0.012 0.291,0.012C0.252,0.012 0.217,0.005 0.186,-0.009C0.155,-0.023 0.13,-0.04 0.11,-0.061C0.09,-0.082 0.074,-0.104 0.064,-0.126C0.054,-0.149 0.049,-0.167 0.049,-0.182C0.049,-0.201 0.055,-0.216 0.067,-0.228C0.079,-0.239 0.095,-0.245 0.113,-0.245C0.122,-0.245 0.131,-0.242 0.139,-0.237C0.148,-0.232 0.153,-0.225 0.156,-0.218C0.173,-0.173 0.191,-0.139 0.21,-0.117C0.23,-0.095 0.257,-0.084 0.292,-0.084C0.312,-0.084 0.332,-0.089 0.35,-0.099C0.369,-0.109 0.385,-0.124 0.397,-0.143C0.409,-0.163 0.415,-0.185 0.415,-0.211C0.415,-0.249 0.405,-0.279 0.384,-0.301C0.363,-0.322 0.334,-0.333 0.297,-0.333C0.29,-0.333 0.28,-0.332 0.267,-0.331C0.253,-0.33 0.244,-0.329 0.24,-0.329C0.222,-0.329 0.208,-0.334 0.199,-0.343C0.189,-0.351 0.184,-0.364 0.184,-0.38C0.184,-0.396 0.19,-0.408 0.202,-0.418C0.213,-0.427 0.231,-0.432 0.254,-0.432L0.274,-0.432Z" style="fill:rgb(108,32,109);fill-rule:nonzero;"/>
                    </g>
                </g>
                <g transform="matrix(-0.443733,0,0,-0.190949,3746.65,1662.57)">
                    <path d="M3099.74,1121.65C3201.74,1194.41 3271.45,1873.27 3271.45,1873.33C3270.91,2012.01 3203.27,2569.1 2938.52,2596.05C2698.06,2620.53 2623.04,2073.11 2576.89,1937.08C2558.09,1881.64 2718.24,1185.85 2806.74,1083.71C2954.25,913.454 2909.34,985.818 3099.74,1121.65Z" style="fill:rgb(30,223,185);fill-opacity:0.23;"/>
                </g>
                <g transform="matrix(0.207669,0.0531131,-0.0531131,0.207669,2018.81,915.468)">
                    <path d="M1961.54,904.701C2152.5,817.592 2357.19,998.745 2227.12,1058.04C2074.75,1127.5 1881.01,1225.44 1857.67,1387.21C1844.57,1477.99 1767.76,1223.65 1796.92,1118.43C1829.37,1001.33 1902.46,931.649 1961.54,904.701Z" style="fill:white;fill-opacity:0.09;"/>
                </g>
                <g transform="matrix(0.0423248,0.00216545,-0.00216545,0.0423248,2302.95,1158.21)">
                    <path d="M1961.54,904.701C2152.5,817.592 2266.19,942.281 2262.27,1085.17C2257.22,1269.26 2200.58,1264.79 2128.08,1282.79C2039.07,1304.89 1872.48,1269.47 1858.08,1161.23C1842.18,1041.78 1902.46,931.649 1961.54,904.701Z" style="fill:white;fill-opacity:0.15;"/>
                </g>
                <g transform="matrix(0.0218748,0.00111917,-0.00111917,0.0218748,2332.37,1196.98)">
                    <path d="M1961.54,904.701C2152.5,817.592 2266.19,942.281 2262.27,1085.17C2257.22,1269.26 2200.58,1264.79 2128.08,1282.79C2039.07,1304.89 1872.48,1269.47 1858.08,1161.23C1842.18,1041.78 1902.46,931.649 1961.54,904.701Z" style="fill:white;fill-opacity:0.15;"/>
                </g>
                <g transform="matrix(-0.0423605,-0.00129152,0.00129152,-0.0423605,2609.89,1455.9)">
                    <path d="M1961.54,904.701C2152.5,817.592 2357.19,998.745 2227.12,1058.04C2074.75,1127.5 1930.75,1143.57 1907.4,1305.33C1894.3,1396.11 1767.76,1223.65 1796.92,1118.43C1829.37,1001.33 1902.46,931.649 1961.54,904.701Z" style="fill:white;fill-opacity:0.15;"/>
                </g>
                <g transform="matrix(0.0423248,0.00216545,-0.00216545,0.0423248,2458.35,1324.92)">
                    <path d="M1961.54,904.701C2152.5,817.592 2266.19,942.281 2262.27,1085.17C2257.22,1269.26 2200.58,1264.79 2128.08,1282.79C2039.07,1304.89 1872.48,1269.47 1858.08,1161.23C1842.18,1041.78 1902.46,931.649 1961.54,904.701Z" style="fill:white;fill-opacity:0.15;"/>
                </g>
                <g transform="matrix(0.744195,0,0,0.744195,876.05,361.303)">
                    <path d="M2105.2,1059.67C2226.71,1059.67 2325.36,1158.33 2325.36,1279.84C2325.36,1401.35 2226.71,1500 2105.2,1500C1983.69,1500 1885.04,1401.35 1885.04,1279.84C1885.04,1158.33 1983.69,1059.67 2105.2,1059.67ZM2105.2,1088.94C1999.84,1088.94 1914.31,1174.48 1914.31,1279.84C1914.31,1385.19 1999.84,1470.73 2105.2,1470.73C2210.56,1470.73 2296.1,1385.19 2296.1,1279.84C2296.1,1174.48 2210.56,1088.94 2105.2,1088.94Z" style="fill:rgb(170,180,232);"/>
                </g>
            </g>
        </g>
    </g>
</svg>
