<?xml version="1.0" encoding="UTF-8" standalone="no"?>
<!DOCTYPE svg PUBLIC "-//W3C//DTD SVG 1.1//EN" "http://www.w3.org/Graphics/SVG/1.1/DTD/svg11.dtd">
<svg width="100%" height="100%" viewBox="0 0 280 273" version="1.1" xmlns="http://www.w3.org/2000/svg" xmlns:xlink="http://www.w3.org/1999/xlink" xml:space="preserve" xmlns:serif="http://www.serif.com/" style="fill-rule:evenodd;clip-rule:evenodd;stroke-linejoin:round;stroke-miterlimit:2;">
    <g transform="matrix(1,0,0,1,-3606.54,-1366.69)">
        <g transform="matrix(1,0,0,1,-199.766,304.34)">
            <g transform="matrix(0.728594,0,0,0.728594,1369.16,398.115)">
                <clipPath id="_clip1">
                    <path d="M3536.64,975.756C3576.99,898.396 3657.68,898.396 3698.03,937.076C3738.37,975.756 3738.37,1053.12 3698.03,1130.48C3669.78,1188.49 3597.16,1246.51 3536.64,1285.19C3476.13,1246.51 3403.5,1188.49 3375.26,1130.48C3334.92,1053.12 3334.92,975.756 3375.26,937.076C3415.61,898.396 3496.3,898.396 3536.64,975.756Z"/>
                </clipPath>
                <g clip-path="url(#_clip1)">
                    <g opacity="0.75">
                        <path d="M3536.64,975.756C3576.99,898.396 3657.68,898.396 3698.03,937.076C3738.37,975.756 3738.37,1053.12 3698.03,1130.48C3669.78,1188.49 3597.16,1246.51 3536.64,1285.19C3476.13,1246.51 3403.5,1188.49 3375.26,1130.48C3334.92,1053.12 3334.92,975.756 3375.26,937.076C3415.61,898.396 3496.3,898.396 3536.64,975.756Z" style="fill:url(#_Linear2);"/>
                        <clipPath id="_clip3">
                            <path d="M3536.64,975.756C3576.99,898.396 3657.68,898.396 3698.03,937.076C3738.37,975.756 3738.37,1053.12 3698.03,1130.48C3669.78,1188.49 3597.16,1246.51 3536.64,1285.19C3476.13,1246.51 3403.5,1188.49 3375.26,1130.48C3334.92,1053.12 3334.92,975.756 3375.26,937.076C3415.61,898.396 3496.3,898.396 3536.64,975.756Z"/>
                        </clipPath>
                        <g clip-path="url(#_clip3)">
                            <g transform="matrix(2.65281,2.28568e-15,3.80947e-16,1.37251,-7526.21,-470.47)">
                                <rect x="4076.6" y="976.903" width="194.021" height="329.955" style="fill:url(#_Linear4);"/>
                            </g>
                            <g transform="matrix(2.13478,-1.22584,2.98797,5.20348,-6365.68,289.487)">
                                <rect x="3228.78" y="821.723" width="352.39" height="206.441" style="fill:url(#_Linear5);"/>
                            </g>
                        </g>
                    </g>
                </g>
            </g>
            <g transform="matrix(0.728594,0,0,0.728594,1369.16,398.115)">
                <path d="M3536.64,975.756C3576.99,898.396 3657.68,898.396 3698.03,937.076C3738.37,975.756 3738.37,1053.12 3698.03,1130.48C3669.78,1188.49 3597.16,1246.51 3536.64,1285.19C3476.13,1246.51 3496.3,898.396 3536.64,975.756Z" style="fill:url(#_Linear6);"/>
            </g>
            <g transform="matrix(0.600941,0,0,0.600941,1820.62,537.486)">
                <path d="M3536.64,975.756C3576.99,898.396 3657.68,898.396 3698.03,937.076C3738.37,975.756 3738.37,1053.12 3698.03,1130.48C3669.78,1188.49 3597.16,1246.51 3536.64,1285.19C3476.13,1246.51 3403.5,1188.49 3375.26,1130.48C3334.92,1053.12 3334.92,975.756 3375.26,937.076C3415.61,898.396 3496.3,898.396 3536.64,975.756Z" style="fill-opacity:0.75;"/>
            </g>
            <g transform="matrix(0.665395,0,0,0.665395,1592.67,467.115)">
                <path d="M3536.64,987.736C3576.99,898.396 3535.77,1007.55 3576.12,1046.23C3616.47,1084.91 3584.57,1156.54 3544.22,1233.89C3515.98,1291.91 3563.38,1263.72 3536.64,1285.19C3476.13,1246.51 3403.5,1188.49 3375.26,1130.48C3334.92,1053.12 3334.92,975.756 3375.26,937.076C3415.61,898.396 3496.3,898.396 3536.64,987.736Z" style="fill:url(#_Linear7);"/>
                <clipPath id="_clip8">
                    <path d="M3536.64,987.736C3576.99,898.396 3535.77,1007.55 3576.12,1046.23C3616.47,1084.91 3584.57,1156.54 3544.22,1233.89C3515.98,1291.91 3563.38,1263.72 3536.64,1285.19C3476.13,1246.51 3403.5,1188.49 3375.26,1130.48C3334.92,1053.12 3334.92,975.756 3375.26,937.076C3415.61,898.396 3496.3,898.396 3536.64,987.736Z"/>
                </clipPath>
                <g clip-path="url(#_clip8)">
                    <g transform="matrix(2.13478,-1.22584,2.98797,5.20348,-6639.06,284.718)">
                        <rect x="3228.78" y="821.723" width="352.39" height="206.441" style="fill:url(#_Linear9);"/>
                    </g>
                    <g>
                        <g transform="matrix(0.746968,0,0,0.739937,894.884,283.935)">
                            <g style="filter:url(#_Effect10);">
                                <path d="M3536.64,993.573C3576.99,898.396 3657.68,898.396 3698.03,937.076C3738.37,975.756 3738.37,1053.12 3698.03,1130.48C3669.78,1188.49 3597.16,1246.51 3536.64,1285.19C3476.13,1246.51 3403.5,1188.49 3375.26,1130.48C3334.92,1053.12 3334.92,975.756 3375.26,937.076C3415.61,898.396 3496.3,898.396 3536.64,993.573Z" style="fill:url(#_Linear11);"/>
                                <clipPath id="_clip12">
                                    <path d="M3536.64,993.573C3576.99,898.396 3657.68,898.396 3698.03,937.076C3738.37,975.756 3738.37,1053.12 3698.03,1130.48C3669.78,1188.49 3597.16,1246.51 3536.64,1285.19C3476.13,1246.51 3403.5,1188.49 3375.26,1130.48C3334.92,1053.12 3334.92,975.756 3375.26,937.076C3415.61,898.396 3496.3,898.396 3536.64,993.573Z"/>
                                </clipPath>
                                <g clip-path="url(#_clip12)">
                                    <g transform="matrix(2.13478,-1.22584,2.98797,5.20348,-6365.68,289.487)">
                                        <rect x="3228.78" y="821.723" width="352.39" height="206.441" style="fill:url(#_Linear13);"/>
                                    </g>
                                </g>
                            </g>
                        </g>
                    </g>
                    <g>
                        <g transform="matrix(0.746968,0,0,0.739937,894.884,283.935)">
                            <g style="filter:url(#_Effect14);">
                                <path d="M3536.64,993.573C3576.99,898.396 3657.68,898.396 3698.03,937.076C3738.37,975.756 3738.37,1053.12 3698.03,1130.48C3669.78,1188.49 3597.16,1246.51 3536.64,1285.19C3476.13,1246.51 3403.5,1188.49 3375.26,1130.48C3334.92,1053.12 3334.92,975.756 3375.26,937.076C3415.61,898.396 3496.3,898.396 3536.64,993.573Z" style="fill:url(#_Linear15);"/>
                                <clipPath id="_clip16">
                                    <path d="M3536.64,993.573C3576.99,898.396 3657.68,898.396 3698.03,937.076C3738.37,975.756 3738.37,1053.12 3698.03,1130.48C3669.78,1188.49 3597.16,1246.51 3536.64,1285.19C3476.13,1246.51 3403.5,1188.49 3375.26,1130.48C3334.92,1053.12 3334.92,975.756 3375.26,937.076C3415.61,898.396 3496.3,898.396 3536.64,993.573Z"/>
                                </clipPath>
                                <g clip-path="url(#_clip16)">
                                    <g transform="matrix(2.13478,-1.22584,2.98797,5.20348,-6365.68,289.487)">
                                        <rect x="3228.78" y="821.723" width="352.39" height="206.441" style="fill:url(#_Linear17);"/>
                                    </g>
                                </g>
                            </g>
                        </g>
                    </g>
                    <g transform="matrix(-1.57288,0,0,0.83611,8758.75,157.96)">
                        <clipPath id="_clip18">
                            <path d="M3260.36,980.102C3246.93,980.102 3236.02,1016.57 3236.02,1061.49C3236.02,1106.4 3246.93,1142.87 3260.36,1142.87C3256.33,1123.88 3253.06,1093.95 3253.06,1061.49C3253.06,1029.02 3256.33,999.092 3260.36,980.102Z"/>
                        </clipPath>
                        <g clip-path="url(#_clip18)">
                            <g opacity="0.65">
                                <path d="M3260.36,980.102C3246.93,980.102 3236.02,1016.57 3236.02,1061.49C3236.02,1106.4 3246.93,1142.87 3260.36,1142.87C3256.33,1123.88 3253.06,1093.95 3253.06,1061.49C3253.06,1029.02 3256.33,999.092 3260.36,980.102Z" style="fill:url(#_Linear19);"/>
                                <clipPath id="_clip20">
                                    <path d="M3260.36,980.102C3246.93,980.102 3236.02,1016.57 3236.02,1061.49C3236.02,1106.4 3246.93,1142.87 3260.36,1142.87C3256.33,1123.88 3253.06,1093.95 3253.06,1061.49C3253.06,1029.02 3256.33,999.092 3260.36,980.102Z"/>
                                </clipPath>
                                <g clip-path="url(#_clip20)">
                                    <g transform="matrix(1,0,0,1,8.54913,-2.71079)">
                                        <path d="M3260.36,980.102C3246.93,980.102 3236.02,1016.57 3236.02,1061.49C3236.02,1106.4 3246.93,1142.87 3260.36,1142.87C3256.33,1123.88 3253.06,1093.95 3253.06,1061.49C3253.06,1029.02 3256.33,999.092 3260.36,980.102Z" style="fill-opacity:0.35;"/>
                                    </g>
                                </g>
                            </g>
                        </g>
                    </g>
                    <g transform="matrix(0.386102,0.239144,-0.24636,0.397752,2563.27,-193.851)">
                        <clipPath id="_clip21">
                            <path d="M3260.36,980.102C3246.93,980.102 3236.02,1016.57 3236.02,1061.49C3236.02,1106.4 3246.93,1142.87 3260.36,1142.87C3256.33,1123.88 3253.06,1093.95 3253.06,1061.49C3253.06,1029.02 3256.33,999.092 3260.36,980.102Z"/>
                        </clipPath>
                        <g clip-path="url(#_clip21)">
                            <g opacity="0.65">
                                <path d="M3260.36,980.102C3246.93,980.102 3236.02,1016.57 3236.02,1061.49C3236.02,1106.4 3246.93,1142.87 3260.36,1142.87C3256.33,1123.88 3253.06,1093.95 3253.06,1061.49C3253.06,1029.02 3256.33,999.092 3260.36,980.102Z" style="fill:url(#_Linear22);"/>
                                <clipPath id="_clip23">
                                    <path d="M3260.36,980.102C3246.93,980.102 3236.02,1016.57 3236.02,1061.49C3236.02,1106.4 3246.93,1142.87 3260.36,1142.87C3256.33,1123.88 3253.06,1093.95 3253.06,1061.49C3253.06,1029.02 3256.33,999.092 3260.36,980.102Z"/>
                                </clipPath>
                                <g clip-path="url(#_clip23)">
                                    <g transform="matrix(1,0,0,1,8.54913,-2.71079)">
                                        <path d="M3260.36,980.102C3246.93,980.102 3236.02,1016.57 3236.02,1061.49C3236.02,1106.4 3246.93,1142.87 3260.36,1142.87C3256.33,1123.88 3253.06,1093.95 3253.06,1061.49C3253.06,1029.02 3256.33,999.092 3260.36,980.102Z" style="fill-opacity:0.35;"/>
                                    </g>
                                </g>
                            </g>
                        </g>
                    </g>
                    <g transform="matrix(3.12262,0,0,3.16062,-8139.84,-2469.88)">
                        <circle cx="3753.65" cy="1087.58" r="3.036" style="fill:white;fill-opacity:0.35;"/>
                    </g>
                    <g transform="matrix(1.6708,0,0,1.69114,-2680.77,-877.236)">
                        <circle cx="3753.65" cy="1087.58" r="3.036" style="fill:white;fill-opacity:0.35;"/>
                    </g>
                </g>
            </g>
            <g transform="matrix(1.04659,0,0,0.556343,473.86,572.929)">
                <clipPath id="_clip24">
                    <path d="M3260.36,980.102C3246.93,980.102 3236.02,1016.57 3236.02,1061.49C3236.02,1106.4 3246.93,1142.87 3260.36,1142.87C3256.33,1123.88 3253.06,1093.95 3253.06,1061.49C3253.06,1029.02 3256.33,999.092 3260.36,980.102Z"/>
                </clipPath>
                <g clip-path="url(#_clip24)">
                    <g opacity="0.65">
                        <path d="M3260.36,980.102C3246.93,980.102 3236.02,1016.57 3236.02,1061.49C3236.02,1106.4 3246.93,1142.87 3260.36,1142.87C3256.33,1123.88 3253.06,1093.95 3253.06,1061.49C3253.06,1029.02 3256.33,999.092 3260.36,980.102Z" style="fill:url(#_Linear25);"/>
                        <clipPath id="_clip26">
                            <path d="M3260.36,980.102C3246.93,980.102 3236.02,1016.57 3236.02,1061.49C3236.02,1106.4 3246.93,1142.87 3260.36,1142.87C3256.33,1123.88 3253.06,1093.95 3253.06,1061.49C3253.06,1029.02 3256.33,999.092 3260.36,980.102Z"/>
                        </clipPath>
                        <g clip-path="url(#_clip26)">
                            <g transform="matrix(1,0,0,1,8.54913,-2.71079)">
                                <path d="M3260.36,980.102C3246.93,980.102 3236.02,1016.57 3236.02,1061.49C3236.02,1106.4 3246.93,1142.87 3260.36,1142.87C3256.33,1123.88 3253.06,1093.95 3253.06,1061.49C3253.06,1029.02 3256.33,999.092 3260.36,980.102Z" style="fill-opacity:0.35;"/>
                            </g>
                        </g>
                    </g>
                </g>
            </g>
            <g transform="matrix(0.663641,0,0,0.426715,1739.69,714.451)">
                <clipPath id="_clip27">
                    <path d="M3260.36,980.102C3246.93,980.102 3236.02,1016.57 3236.02,1061.49C3236.02,1106.4 3246.93,1142.87 3260.36,1142.87C3256.33,1123.88 3253.06,1093.95 3253.06,1061.49C3253.06,1029.02 3256.33,999.092 3260.36,980.102Z"/>
                </clipPath>
                <g clip-path="url(#_clip27)">
                    <g opacity="0.65">
                        <path d="M3260.36,980.102C3246.93,980.102 3236.02,1016.57 3236.02,1061.49C3236.02,1106.4 3246.93,1142.87 3260.36,1142.87C3256.33,1123.88 3253.06,1093.95 3253.06,1061.49C3253.06,1029.02 3256.33,999.092 3260.36,980.102Z" style="fill:url(#_Linear28);"/>
                        <clipPath id="_clip29">
                            <path d="M3260.36,980.102C3246.93,980.102 3236.02,1016.57 3236.02,1061.49C3236.02,1106.4 3246.93,1142.87 3260.36,1142.87C3256.33,1123.88 3253.06,1093.95 3253.06,1061.49C3253.06,1029.02 3256.33,999.092 3260.36,980.102Z"/>
                        </clipPath>
                        <g clip-path="url(#_clip29)">
                            <g transform="matrix(1,0,0,1,8.54913,-2.71079)">
                                <path d="M3260.36,980.102C3246.93,980.102 3236.02,1016.57 3236.02,1061.49C3236.02,1106.4 3246.93,1142.87 3260.36,1142.87C3256.33,1123.88 3253.06,1093.95 3253.06,1061.49C3253.06,1029.02 3256.33,999.092 3260.36,980.102Z" style="fill-opacity:0.35;"/>
                            </g>
                        </g>
                    </g>
                </g>
            </g>
            <g transform="matrix(4.2802,-1.31965,1.33571,4.3323,-13656.2,1365.63)">
                <circle cx="3753.65" cy="1087.58" r="3.036" style="fill:white;fill-opacity:0.35;"/>
            </g>
            <g transform="matrix(2.29019,-0.7061,0.714694,2.31806,-5504.62,1242.17)">
                <circle cx="3753.65" cy="1087.58" r="3.036" style="fill:white;fill-opacity:0.35;"/>
            </g>
        </g>
    </g>
    <defs>
        <linearGradient id="_Linear2" x1="0" y1="0" x2="1" y2="0" gradientUnits="userSpaceOnUse" gradientTransform="matrix(369.337,340.558,-340.558,369.337,3285.57,868.913)"><stop offset="0" style="stop-color:black;stop-opacity:1"/><stop offset="1" style="stop-color:black;stop-opacity:0"/></linearGradient>
        <linearGradient id="_Linear4" x1="0" y1="0" x2="1" y2="0" gradientUnits="userSpaceOnUse" gradientTransform="matrix(172.216,413.202,-247.451,292.873,4098.41,967.15)"><stop offset="0" style="stop-color:rgb(119,58,226);stop-opacity:1"/><stop offset="1" style="stop-color:rgb(5,170,238);stop-opacity:1"/></linearGradient>
        <linearGradient id="_Linear5" x1="0" y1="0" x2="1" y2="-0.93158" gradientUnits="userSpaceOnUse" gradientTransform="matrix(55.6616,205.798,-205.798,55.6616,3353.11,753.99)"><stop offset="0" style="stop-color:white;stop-opacity:1"/><stop offset="1" style="stop-color:white;stop-opacity:0"/></linearGradient>
        <linearGradient id="_Linear6" x1="0" y1="0" x2="1" y2="0" gradientUnits="userSpaceOnUse" gradientTransform="matrix(369.337,340.558,-340.558,369.337,3285.57,868.913)"><stop offset="0" style="stop-color:black;stop-opacity:0.75"/><stop offset="1" style="stop-color:black;stop-opacity:0"/></linearGradient>
        <linearGradient id="_Linear7" x1="0" y1="0" x2="1" y2="0" gradientUnits="userSpaceOnUse" gradientTransform="matrix(355.202,585.039,-590.406,358.46,3479.56,905.903)"><stop offset="0" style="stop-color:rgb(119,58,226);stop-opacity:1"/><stop offset="1" style="stop-color:rgb(5,170,238);stop-opacity:1"/></linearGradient>
        <linearGradient id="_Linear9" x1="0" y1="0" x2="1" y2="-0.93158" gradientUnits="userSpaceOnUse" gradientTransform="matrix(55.6616,205.798,-205.798,55.6616,3353.11,753.99)"><stop offset="0" style="stop-color:white;stop-opacity:1"/><stop offset="1" style="stop-color:white;stop-opacity:0"/></linearGradient>
        <filter id="_Effect10" filterUnits="userSpaceOnUse" x="3172.28" y="724.037" width="728.718" height="735.517">
            <feGaussianBlur in="SourceGraphic" stdDeviation="28.9222"/>
        </filter>
        <linearGradient id="_Linear11" x1="0" y1="0" x2="1" y2="0" gradientUnits="userSpaceOnUse" gradientTransform="matrix(383.281,0,0,386.797,3345,1091.79)"><stop offset="0" style="stop-color:rgb(119,58,226);stop-opacity:1"/><stop offset="1" style="stop-color:rgb(5,170,238);stop-opacity:1"/></linearGradient>
        <linearGradient id="_Linear13" x1="0" y1="0" x2="1" y2="-0.917644" gradientUnits="userSpaceOnUse" gradientTransform="matrix(55.6616,205.798,-205.798,55.6616,3353.11,753.99)"><stop offset="0" style="stop-color:white;stop-opacity:1"/><stop offset="1" style="stop-color:white;stop-opacity:0"/></linearGradient>
        <filter id="_Effect14" filterUnits="userSpaceOnUse" x="3172.28" y="724.037" width="728.718" height="735.517">
            <feGaussianBlur in="SourceGraphic" stdDeviation="28.9222"/>
        </filter>
        <linearGradient id="_Linear15" x1="0" y1="0" x2="1" y2="0" gradientUnits="userSpaceOnUse" gradientTransform="matrix(383.281,0,0,386.797,3345,1091.79)"><stop offset="0" style="stop-color:rgb(119,58,226);stop-opacity:1"/><stop offset="1" style="stop-color:rgb(5,170,238);stop-opacity:1"/></linearGradient>
        <linearGradient id="_Linear17" x1="0" y1="0" x2="1" y2="-0.917644" gradientUnits="userSpaceOnUse" gradientTransform="matrix(55.6616,205.798,-205.798,55.6616,3353.11,753.99)"><stop offset="0" style="stop-color:white;stop-opacity:1"/><stop offset="1" style="stop-color:white;stop-opacity:0"/></linearGradient>
        <linearGradient id="_Linear19" x1="0" y1="0" x2="1" y2="0" gradientUnits="userSpaceOnUse" gradientTransform="matrix(45.0984,246.195,-74.9613,150.846,3253.11,983.261)"><stop offset="0" style="stop-color:rgb(119,58,226);stop-opacity:1"/><stop offset="1" style="stop-color:rgb(5,170,238);stop-opacity:1"/></linearGradient>
        <linearGradient id="_Linear22" x1="0" y1="0" x2="1" y2="0" gradientUnits="userSpaceOnUse" gradientTransform="matrix(45.0984,246.195,-74.9613,150.846,3253.11,983.261)"><stop offset="0" style="stop-color:rgb(119,58,226);stop-opacity:1"/><stop offset="1" style="stop-color:rgb(5,170,238);stop-opacity:1"/></linearGradient>
        <linearGradient id="_Linear25" x1="0" y1="0" x2="1" y2="0" gradientUnits="userSpaceOnUse" gradientTransform="matrix(45.0984,246.195,-74.9613,150.846,3253.11,983.261)"><stop offset="0" style="stop-color:rgb(119,58,226);stop-opacity:1"/><stop offset="1" style="stop-color:rgb(5,170,238);stop-opacity:1"/></linearGradient>
        <linearGradient id="_Linear28" x1="0" y1="0" x2="1" y2="0" gradientUnits="userSpaceOnUse" gradientTransform="matrix(45.0984,246.195,-74.9613,150.846,3253.11,983.261)"><stop offset="0" style="stop-color:rgb(119,58,226);stop-opacity:1"/><stop offset="1" style="stop-color:rgb(5,170,238);stop-opacity:1"/></linearGradient>
    </defs>
</svg>
