<?xml version="1.0" encoding="UTF-8" standalone="no"?>
<!DOCTYPE svg PUBLIC "-//W3C//DTD SVG 1.1//EN" "http://www.w3.org/Graphics/SVG/1.1/DTD/svg11.dtd">
<svg width="100%" height="100%" viewBox="0 0 8872 6141" version="1.1" xmlns="http://www.w3.org/2000/svg" xmlns:xlink="http://www.w3.org/1999/xlink" xml:space="preserve" xmlns:serif="http://www.serif.com/" style="fill-rule:evenodd;clip-rule:evenodd;stroke-linecap:round;stroke-linejoin:round;stroke-miterlimit:1.5;">
    <g transform="matrix(1,0,0,1,-1322.58,-1795.51)">
        <g transform="matrix(1,0,0,1,1324.18,1821.95)">
            <g id="bg-lines" serif:id="bg lines">
                <path d="M0,3008C0,3008 225.339,3138.1 332.554,3200C366.851,3219.8 409.107,3219.8 443.405,3200C508.58,3162.37 615.485,3100.65 675.688,3065.89C703.438,3049.87 737.628,3049.87 765.378,3065.89C766.836,3066.73 768.19,3067.51 769.409,3068.22C773.462,3070.56 778.456,3070.56 782.509,3068.22C790.413,3063.66 803.992,3055.82 814.834,3049.55C825.076,3043.64 837.693,3043.64 847.934,3049.55C864.267,3058.99 914.523,3088 942.236,3104C976.533,3123.8 1018.79,3123.8 1053.09,3104C1053.09,3104 1053.09,3104 1053.09,3104C1087.38,3084.2 1129.64,3084.2 1163.94,3104C1185.39,3116.39 1209.62,3130.38 1229.94,3142.11C1257.69,3158.13 1291.88,3158.13 1319.63,3142.11C1321.09,3141.27 1322.45,3140.49 1323.66,3139.78C1327.72,3137.44 1332.71,3137.44 1336.77,3139.78C1344.67,3144.35 1358.25,3152.18 1369.09,3158.45C1379.33,3164.36 1391.95,3164.36 1402.19,3158.45C1409.25,3154.37 1417.46,3149.63 1424.52,3145.56C1434.76,3139.64 1447.38,3139.64 1457.62,3145.56C1464.67,3149.63 1472.89,3154.37 1479.94,3158.45C1490.18,3164.36 1502.8,3164.36 1513.04,3158.45C1555.1,3134.16 1948.68,2906.93 2061.33,2841.89C2089.08,2825.87 2123.27,2825.87 2151.02,2841.89C2152.48,2842.73 2153.83,2843.51 2155.05,2844.22C2159.1,2846.56 2164.1,2846.56 2168.15,2844.22C2176.05,2839.66 2189.63,2831.82 2200.47,2825.55C2210.72,2819.64 2223.33,2819.64 2233.58,2825.55C2244.05,2831.6 2258.25,2839.8 2272.45,2848C2306.75,2867.8 2349,2867.8 2383.3,2848C2427.42,2822.53 2487.31,2787.95 2521.87,2768C2527.58,2764.7 2531.11,2758.6 2531.11,2752C2531.11,2745.4 2527.58,2739.3 2521.87,2736C2521.87,2736 2521.87,2736 2521.86,2736C2516.15,2732.7 2512.63,2726.6 2512.63,2720C2512.63,2713.4 2516.15,2707.3 2521.86,2704C2521.87,2704 2521.87,2704 2521.87,2704C2527.58,2700.7 2531.11,2694.6 2531.11,2688C2531.11,2681.4 2527.58,2675.3 2521.87,2672C2521.87,2672 2521.87,2672 2521.86,2672C2516.15,2668.7 2512.63,2662.6 2512.63,2656C2512.63,2649.4 2516.15,2643.3 2521.86,2640C2521.87,2640 2521.87,2640 2521.87,2640C2527.58,2636.7 2531.11,2630.6 2531.11,2624C2531.11,2617.4 2527.58,2611.3 2521.87,2608C2521.87,2608 2521.87,2608 2521.86,2608C2516.15,2604.7 2512.63,2598.6 2512.63,2592C2512.63,2585.4 2516.15,2579.3 2521.86,2576C2521.87,2576 2521.87,2576 2521.87,2576C2527.58,2572.7 2531.11,2566.6 2531.11,2560C2531.11,2553.4 2527.58,2547.3 2521.87,2544C2514.04,2539.48 2505.01,2534.27 2495.43,2528.74C2472.75,2515.64 2458.58,2491.65 2458.07,2465.47C2457.55,2439.29 2470.77,2414.76 2492.91,2400.78C2493.72,2400.27 2494.15,2400 2494.15,2400C2494.15,2400 2606.23,2335.29 2671.01,2297.89C2698.76,2281.87 2732.95,2281.87 2760.7,2297.89C2762.16,2298.73 2763.51,2299.51 2764.73,2300.22C2768.78,2302.56 2773.78,2302.56 2777.83,2300.22C2789.45,2293.51 2814.6,2278.99 2837.29,2265.89C2865.04,2249.87 2899.23,2249.87 2926.98,2265.89C2928.43,2266.73 2929.79,2267.51 2931.01,2268.22C2935.06,2270.56 2940.05,2270.56 2944.11,2268.22C2958.79,2259.74 2995.07,2238.8 3020.7,2224C3026.41,2220.7 3029.93,2214.6 3029.93,2208C3029.93,2201.4 3026.41,2195.3 3020.7,2192C3020.7,2192 3020.7,2192 3020.7,2192C3014.98,2188.7 3011.46,2182.6 3011.46,2176C3011.46,2169.4 3014.98,2163.3 3020.7,2160C3020.7,2160 3020.7,2160 3020.7,2160C3026.41,2156.7 3029.93,2150.6 3029.93,2144C3029.93,2137.4 3026.41,2131.3 3020.7,2128C2973.41,2100.7 2882.13,2048 2882.13,2048C2882.12,2047.99 2864.76,2037.97 2849.47,2029.14C2844.78,2026.43 2841.89,2021.42 2841.89,2016C2841.89,2010.58 2844.78,2005.57 2849.47,2002.86C2852.74,2000.97 2856.1,1999.03 2859.36,1997.14C2864.06,1994.43 2866.95,1989.42 2866.95,1984C2866.95,1978.58 2864.06,1973.57 2859.36,1970.86C2834.24,1956.35 2795.2,1933.81 2778.87,1924.38C2774.17,1921.67 2768.39,1921.67 2763.69,1924.38C2753.11,1930.49 2734.03,1941.51 2723.45,1947.62C2718.75,1950.33 2712.96,1950.33 2708.27,1947.62C2688.46,1936.18 2633.99,1904.74 2594.39,1881.87C2585.14,1876.53 2579.45,1866.67 2579.45,1856C2579.45,1845.33 2585.14,1835.47 2594.39,1830.13C2595.86,1829.28 2597.22,1828.49 2598.45,1827.78C2602.51,1825.44 2607.5,1825.44 2611.55,1827.78C2619.46,1832.35 2633.04,1840.18 2643.88,1846.44C2654.12,1852.36 2666.74,1852.36 2676.98,1846.44C2684.04,1842.37 2692.25,1837.63 2699.31,1833.56C2709.55,1827.64 2722.16,1827.64 2732.41,1833.56C2739.46,1837.63 2747.68,1842.37 2754.73,1846.44C2764.97,1852.36 2777.59,1852.36 2787.83,1846.44C2804.16,1837.02 2826.71,1824 2826.71,1824C2838.14,1817.4 2845.18,1805.2 2845.18,1792C2845.18,1778.8 2838.14,1766.6 2826.71,1760C2817.08,1754.44 2807.46,1748.89 2798.99,1744C2793.28,1740.7 2789.76,1734.6 2789.76,1728C2789.76,1721.4 2793.28,1715.3 2798.99,1712C2798.99,1712 2798.99,1712 2799,1712C2804.71,1708.7 2808.23,1702.6 2808.23,1696C2808.23,1689.4 2804.71,1683.3 2799,1680C2782.07,1670.23 2760.49,1657.77 2743.57,1648C2737.85,1644.7 2734.33,1638.6 2734.33,1632C2734.33,1625.4 2737.85,1619.3 2743.57,1616C2743.57,1616 2743.57,1616 2743.57,1616C2749.29,1612.7 2752.81,1606.6 2752.81,1600C2752.81,1593.4 2749.29,1587.3 2743.57,1584C2731.99,1577.31 2718.23,1569.37 2705.28,1561.89C2677.53,1545.87 2643.34,1545.87 2615.59,1561.89C2614.13,1562.73 2612.77,1563.52 2611.55,1564.22C2607.5,1566.56 2602.51,1566.56 2598.45,1564.22C2590.55,1559.65 2576.97,1551.82 2566.13,1545.56C2555.89,1539.64 2543.27,1539.64 2533.03,1545.56C2525.97,1549.63 2517.76,1554.37 2510.7,1558.44C2500.46,1564.36 2487.84,1564.36 2477.6,1558.44C2439.82,1536.63 2346.86,1482.96 2300.16,1456C2294.45,1452.7 2290.93,1446.6 2290.93,1440C2290.93,1433.4 2294.45,1427.3 2300.16,1424C2300.16,1424 2300.16,1424 2300.16,1424C2305.88,1420.7 2309.4,1414.6 2309.4,1408C2309.4,1401.4 2305.88,1395.3 2300.16,1392C2267.33,1373.04 2166.72,1314.96 2133.89,1296C2128.17,1292.7 2124.65,1286.6 2124.65,1280C2124.65,1273.4 2128.17,1267.3 2133.89,1264C2133.89,1264 2133.89,1264 2133.89,1264C2139.6,1260.7 2143.12,1254.6 2143.12,1248C2143.12,1241.4 2139.6,1235.3 2133.89,1232C2125.42,1227.11 2115.8,1221.56 2106.17,1216C2071.88,1196.2 2029.62,1196.2 1995.32,1216C1995.32,1216 1995.32,1216 1995.32,1216C1961.03,1235.8 1918.77,1235.8 1884.47,1216C1880.92,1213.95 1877.38,1211.9 1873.89,1209.89C1846.14,1193.87 1811.95,1193.87 1784.2,1209.89C1782.74,1210.73 1781.39,1211.52 1780.17,1212.22C1776.12,1214.56 1771.12,1214.56 1767.07,1212.22C1745.34,1199.67 1674.73,1158.9 1635.05,1136C1629.34,1132.7 1625.82,1126.6 1625.82,1120C1625.82,1113.4 1629.34,1107.3 1635.05,1104C1635.06,1104 1635.06,1104 1635.06,1104C1640.77,1100.7 1644.3,1094.6 1644.3,1088C1644.3,1081.4 1640.77,1075.3 1635.06,1072C1635.06,1072 1635.06,1072 1635.05,1072C1629.34,1068.7 1625.82,1062.6 1625.82,1056C1625.82,1049.4 1629.34,1043.3 1635.05,1040C1635.06,1040 1635.06,1040 1635.06,1040C1640.77,1036.7 1644.3,1030.6 1644.3,1024C1644.3,1017.4 1640.77,1011.3 1635.06,1008C1622.91,1000.99 1607.63,992.167 1591.01,982.57C1560.08,964.713 1541.03,931.713 1541.03,896C1541.03,860.287 1560.08,827.287 1591.01,809.43C1591.01,809.43 1591.01,809.43 1591.01,809.429C1594.38,807.484 1596.45,803.89 1596.45,800C1596.45,796.11 1594.38,792.516 1591.01,790.571C1587.42,788.499 1583.53,786.249 1579.63,783.999C1573.91,780.699 1570.39,774.6 1570.39,768C1570.39,761.4 1573.91,755.301 1579.63,752.001C1579.63,752 1579.63,752 1579.63,751.999C1585.35,748.699 1588.87,742.6 1588.87,736C1588.87,729.4 1585.35,723.301 1579.63,720.001C1579.63,720 1579.63,720 1579.63,719.999C1573.91,716.699 1570.39,710.6 1570.39,704C1570.39,697.4 1573.91,691.301 1579.63,688.001C1579.63,688 1579.63,688 1579.63,687.999C1585.35,684.699 1588.87,678.6 1588.87,672C1588.87,665.4 1585.35,659.301 1579.63,656.001C1554.32,641.384 1515.4,618.916 1479.05,597.929C1459.78,586.805 1447.91,566.248 1447.91,544C1447.91,521.752 1459.78,501.195 1479.05,490.071C1481.56,488.619 1483.88,487.283 1485.94,486.091C1492.47,482.322 1500.51,482.322 1507.04,486.091C1518.34,492.614 1535.91,502.76 1545.37,508.218C1549.42,510.558 1554.41,510.558 1558.47,508.218C1559.27,507.757 1560.13,507.258 1561.06,506.723C1593.47,488.01 1613.44,453.426 1613.44,416C1613.44,378.574 1593.47,343.99 1561.06,325.277C1480.65,278.853 1387.83,225.262 1330.21,192C1318.78,185.399 1311.74,173.201 1311.74,160C1311.74,146.799 1318.78,134.601 1330.21,128C1330.21,128 1330.21,128 1330.22,128C1341.65,121.399 1348.69,109.201 1348.69,96C1348.69,82.799 1341.65,70.601 1330.22,64C1313.07,54.101 1295.92,44.201 1285.34,38.091C1278.81,34.322 1270.77,34.322 1264.24,38.091C1242.4,50.699 1191.13,80.3 1153.36,102.109C1125.61,118.13 1091.42,118.13 1063.67,102.109C1062.21,101.267 1060.86,100.485 1059.64,99.782C1055.58,97.442 1050.59,97.442 1046.54,99.782C1029.27,109.749 981.175,137.518 942.236,160C907.938,179.802 865.682,179.802 831.385,160C758.562,117.956 633.64,45.832 579.979,14.851C563.128,5.122 544.012,-0 524.554,-0L110.851,0C81.451,-0 53.256,11.679 32.468,32.468C11.679,53.256 0,81.451 -0,110.851L0,3008" style="fill:none;stroke:black;stroke-width:3.2px;"/>
                <path d="M2751.54,1652.39C2751.54,1652.39 2755.41,1654.66 2759.72,1657.19C2766.89,1661.39 2775.76,1661.42 2782.95,1657.26C2804.61,1644.76 2850.79,1618.1 2871.59,1606.09C2878.11,1602.32 2886.15,1602.32 2892.67,1606.09C2947.99,1638.02 3204.26,1785.98 3259.57,1817.91C3266.09,1821.68 3274.13,1821.68 3280.65,1817.91C3301.82,1805.69 3349.26,1778.31 3370.42,1766.09C3376.95,1762.32 3384.98,1762.32 3391.5,1766.09C3441.36,1794.87 3653.12,1917.13 3702.98,1945.91C3709.5,1949.68 3717.53,1949.68 3724.06,1945.91C3745.13,1933.75 3792.24,1906.55 3813.55,1894.25C3820.22,1890.4 3828.46,1890.49 3835.04,1894.5C3856.19,1907.36 3903.19,1935.96 3924.43,1948.88C3931.07,1952.92 3939.4,1952.98 3946.1,1949.03C3990.52,1922.83 4157.86,1824.14 4201.75,1798.25C4208.3,1794.39 4216.42,1794.35 4223,1798.15C4232.86,1803.84 4247.42,1812.25 4257.23,1817.91C4263.76,1821.68 4271.79,1821.68 4278.31,1817.91C4328.32,1789.04 4542.63,1665.31 4624.13,1618.26C4630.65,1614.49 4634.67,1607.53 4634.67,1600C4634.67,1592.47 4630.65,1585.51 4624.13,1581.74C4581.98,1557.41 4507.82,1514.59 4465.67,1490.26C4459.15,1486.49 4455.13,1479.53 4455.13,1472C4455.13,1464.47 4459.15,1457.51 4465.67,1453.74C4496.57,1435.9 4543.13,1409.02 4572.62,1392C4578.33,1388.7 4581.85,1382.6 4581.85,1376C4581.85,1369.4 4578.33,1363.3 4572.62,1360C4572.61,1360 4572.61,1360 4572.61,1360C4566.9,1356.7 4563.38,1350.6 4563.38,1344C4563.38,1337.4 4566.9,1331.3 4572.61,1328C4589.54,1318.23 4611.11,1305.77 4628.04,1296C4633.76,1292.7 4637.28,1286.6 4637.28,1280C4637.28,1273.4 4633.76,1267.3 4628.04,1264C4628.04,1264 4628.04,1264 4628.04,1264C4622.32,1260.7 4618.8,1254.6 4618.8,1248C4618.8,1241.4 4622.32,1235.3 4628.04,1232C4722.65,1177.38 5032.26,998.622 5126.87,943.999C5132.59,940.699 5136.11,934.6 5136.11,928C5136.11,921.4 5132.59,915.301 5126.87,912.001C5126.87,912 5126.87,912 5126.87,911.999C5121.15,908.699 5117.63,902.6 5117.63,896C5117.63,889.4 5121.15,883.301 5126.87,880.001C5126.87,880 5126.87,880 5126.87,879.999C5132.59,876.699 5136.11,870.6 5136.11,864C5136.11,857.4 5132.59,851.301 5126.87,848.001C5103.33,834.406 5070.79,815.624 5054.27,806.086C5047.75,802.32 5039.71,802.32 5033.19,806.086C5023.34,811.775 5008.7,820.225 4998.85,825.914C4992.32,829.68 4984.29,829.68 4977.77,825.914C4973.89,823.677 4969.28,821.013 4964.5,818.257C4957.98,814.492 4953.96,807.532 4953.96,800C4953.96,792.468 4957.98,785.508 4964.5,781.743C4979.43,773.128 4997.19,762.872 5012.11,754.257C5018.63,750.492 5022.65,743.532 5022.65,736C5022.65,728.468 5018.63,721.508 5012.11,717.743C4974.14,695.821 4912.51,660.238 4888,646.086C4881.47,642.32 4873.44,642.32 4866.91,646.086C4845.75,658.305 4798.31,685.695 4777.15,697.914C4770.62,701.68 4762.59,701.68 4756.06,697.914C4746.21,692.225 4731.57,683.775 4721.72,678.086C4715.2,674.32 4707.16,674.32 4700.64,678.086C4690.78,683.775 4676.15,692.225 4666.29,697.914C4659.77,701.68 4651.73,701.68 4645.21,697.914C4615.27,680.628 4529.96,631.372 4500.02,614.086C4493.49,610.32 4485.46,610.32 4478.94,614.086C4469.08,619.775 4454.44,628.225 4444.59,633.914C4438.07,637.68 4430.03,637.68 4423.51,633.914C4407.89,624.894 4377.94,607.606 4354.82,594.257C4348.3,590.492 4344.28,583.532 4344.28,576C4344.28,568.468 4348.3,561.508 4354.82,557.743C4369.74,549.128 4387.51,538.872 4402.43,530.257C4408.95,526.492 4412.97,519.532 4412.97,512C4412.97,504.468 4408.95,497.508 4402.43,493.743C4379.31,480.394 4349.36,463.106 4333.74,454.086C4327.22,450.32 4319.18,450.32 4312.66,454.086C4302.8,459.775 4288.17,468.225 4278.31,473.914C4271.79,477.68 4263.76,477.68 4257.23,473.914C4247.38,468.225 4232.74,459.775 4222.89,454.086C4216.37,450.32 4208.33,450.32 4201.81,454.086C4191.95,459.775 4177.32,468.225 4167.46,473.914C4160.94,477.68 4152.9,477.68 4146.38,473.914C4136.53,468.225 4121.89,459.775 4112.04,454.086C4105.51,450.32 4097.48,450.32 4090.95,454.086C4053.59,475.659 3927.7,548.341 3890.34,569.914C3883.81,573.68 3875.78,573.68 3869.25,569.914C3859.4,564.225 3844.76,555.775 3834.91,550.086C3828.39,546.32 3820.35,546.32 3813.83,550.086C3797.31,559.624 3764.77,578.406 3741.23,592.001C3735.51,595.301 3731.99,601.4 3731.99,608C3731.99,614.6 3735.51,620.699 3741.23,623.999C3741.23,624 3741.23,624 3741.23,624.001C3746.95,627.301 3750.47,633.4 3750.47,640C3750.47,646.6 3746.95,652.699 3741.23,655.999C3735.11,659.534 3728.99,663.069 3724.06,665.914C3717.53,669.68 3709.5,669.68 3702.98,665.914C3678.46,651.762 3616.83,616.179 3578.86,594.257C3572.34,590.492 3568.32,583.532 3568.32,576C3568.32,568.468 3572.34,561.508 3578.86,557.743C3640.76,522.005 3775.25,444.361 3813.83,422.086C3820.35,418.32 3828.39,418.32 3834.91,422.086C3844.76,427.775 3859.4,436.225 3869.25,441.914C3875.78,445.68 3883.81,445.68 3890.34,441.914C3923.14,422.972 4024.19,364.632 4073.49,336.173C4079.2,332.871 4082.74,326.776 4082.76,320.173C4082.78,313.569 4079.28,307.453 4073.59,304.115C4073.58,304.115 4073.58,304.115 4073.58,304.115C4067.89,300.777 4064.39,294.661 4064.41,288.057C4064.43,281.454 4067.97,275.359 4073.68,272.057C4090.63,262.275 4112.25,249.791 4129.21,239.999C4134.93,236.699 4138.45,230.6 4138.45,224C4138.45,217.4 4134.93,211.301 4129.21,208.001C4129.21,208 4129.21,208 4129.21,207.999C4123.49,204.699 4119.97,198.6 4119.97,192C4119.97,185.4 4123.49,179.301 4129.21,176.001C4171.8,151.409 4252.89,104.591 4295.49,79.999C4301.2,76.699 4304.73,70.6 4304.73,64C4304.73,57.4 4301.2,51.301 4295.49,48.001C4295.49,48 4295.48,48 4295.48,47.999C4289.77,44.699 4286.25,38.6 4286.25,32C4286.25,25.4 4289.77,19.301 4295.48,16.001C4309.34,8.001 4366.23,-24.843 4366.23,-24.843" style="fill:none;stroke:black;stroke-width:3.2px;"/>
                <path d="M5022.81,1004.08C5022.81,1004.08 5026.73,1001.82 5031.18,999.246C5038.95,994.762 5048.52,994.762 5056.28,999.246C5104.7,1027.2 5280.05,1128.44 5348.57,1168C5354.29,1171.3 5357.81,1177.4 5357.81,1184C5357.81,1190.6 5354.29,1196.7 5348.57,1200C5348.57,1200 5348.57,1200 5348.57,1200C5342.86,1203.3 5339.33,1209.4 5339.33,1216C5339.33,1222.6 5342.86,1228.7 5348.57,1232C5365.5,1241.77 5387.07,1254.23 5404,1264C5409.72,1267.3 5413.24,1273.4 5413.24,1280C5413.24,1286.6 5409.72,1292.7 5404,1296C5404,1296 5404,1296 5404,1296C5398.28,1299.3 5394.76,1305.4 5394.76,1312C5394.76,1318.6 5398.28,1324.7 5404,1328C5446.59,1352.59 5527.68,1399.41 5570.28,1424C5575.99,1427.3 5579.51,1433.4 5579.51,1440C5579.51,1446.6 5575.99,1452.7 5570.28,1456C5570.28,1456 5570.28,1456 5570.27,1456C5564.56,1459.3 5561.04,1465.4 5561.04,1472C5561.04,1478.6 5564.56,1484.7 5570.27,1488C5606.31,1508.81 5667.87,1544.34 5695.14,1560.09C5703.62,1564.99 5714.06,1564.99 5722.54,1560.09C5743.85,1547.79 5784.68,1524.21 5805.99,1511.91C5814.47,1507.02 5824.91,1507.02 5833.39,1511.91C5860.66,1527.66 5922.22,1563.19 5958.26,1584C5963.97,1587.3 5967.49,1593.4 5967.49,1600C5967.49,1606.6 5963.97,1612.7 5958.26,1616C5958.26,1616 5958.25,1616 5958.25,1616C5952.54,1619.3 5949.02,1625.4 5949.02,1632C5949.02,1638.6 5952.54,1644.7 5958.25,1648C5958.25,1648 5958.26,1648 5958.26,1648C5963.97,1651.3 5967.49,1657.4 5967.49,1664C5967.49,1670.6 5963.97,1676.7 5958.26,1680C5958.26,1680 5958.25,1680 5958.25,1680C5952.54,1683.3 5949.02,1689.4 5949.02,1696C5949.02,1702.6 5952.54,1708.7 5958.25,1712C6016.7,1745.74 6150.75,1823.14 6193.97,1848.09C6202.45,1852.99 6212.89,1852.99 6221.37,1848.09C6242.68,1835.79 6283.52,1812.21 6304.82,1799.91C6313.3,1795.02 6323.74,1795.02 6332.22,1799.91C6371.94,1822.84 6486.81,1889.16 6526.52,1912.09C6535,1916.99 6545.45,1916.99 6553.92,1912.09C6575.23,1899.79 6616.07,1876.21 6637.38,1863.91C6645.85,1859.02 6656.3,1859.02 6664.78,1863.91C6673.31,1868.84 6684.26,1875.16 6692.8,1880.09C6701.28,1884.99 6711.72,1884.99 6720.2,1880.09C6751.47,1862.04 6827.81,1817.96 6859.08,1799.91C6867.56,1795.02 6878,1795.02 6886.48,1799.91C6895.02,1804.84 6905.96,1811.16 6914.5,1816.09C6922.98,1820.99 6933.43,1820.99 6941.9,1816.09C6950.44,1811.16 6961.39,1804.84 6969.93,1799.91C6978.41,1795.02 6988.85,1795.02 6997.33,1799.91C7030,1818.77 7113.52,1866.99 7164.23,1896.27C7172.71,1901.17 7177.93,1910.21 7177.93,1920C7177.93,1929.79 7172.71,1938.83 7164.23,1943.73C7124.46,1966.69 7064.5,2001.31 7024.73,2024.27C7016.25,2029.17 7011.03,2038.21 7011.03,2048C7011.03,2057.79 7016.25,2066.83 7024.73,2071.73C7024.94,2071.85 7025.15,2071.97 7025.36,2072.09C7033.83,2076.99 7044.28,2076.99 7052.75,2072.09C7061.29,2067.16 7072.24,2060.84 7080.78,2055.91C7089.26,2051.01 7099.7,2051.01 7108.18,2055.91C7147.89,2078.84 7262.77,2145.16 7302.48,2168.09C7310.96,2172.99 7321.4,2172.99 7329.88,2168.09C7338.42,2163.16 7349.37,2156.84 7357.91,2151.91C7366.39,2147.01 7376.83,2147.01 7385.31,2151.91C7417.98,2170.77 7501.5,2218.99 7552.21,2248.27C7560.69,2253.17 7565.91,2262.21 7565.91,2272C7565.91,2281.79 7560.69,2290.83 7552.21,2295.73C7512.44,2318.69 7452.48,2353.31 7412.71,2376.27C7404.23,2381.17 7399.01,2390.21 7399.01,2400C7399.01,2409.79 7404.23,2418.83 7412.71,2423.73C7438.32,2438.52 7471.17,2457.48 7496.79,2472.27C7505.26,2477.17 7510.49,2486.21 7510.49,2496C7510.49,2505.79 7505.26,2514.83 7496.79,2519.73C7487.43,2525.13 7477.49,2530.87 7468.13,2536.27C7459.66,2541.17 7454.43,2550.21 7454.43,2560C7454.43,2569.79 7459.66,2578.83 7468.13,2583.73C7493.75,2598.52 7526.59,2617.48 7552.21,2632.27C7560.69,2637.17 7565.91,2646.21 7565.91,2656C7565.91,2665.79 7560.69,2674.83 7552.21,2679.73C7542.86,2685.13 7532.91,2690.87 7523.56,2696.27C7515.08,2701.17 7509.86,2710.21 7509.86,2720C7509.86,2729.79 7515.08,2738.83 7523.56,2743.73C7628.59,2804.37 7903.11,2962.86 7967.59,3000.09C7976.07,3004.99 7986.51,3004.99 7994.99,3000.09C8016.3,2987.79 8057.14,2964.21 8078.44,2951.91C8086.92,2947.01 8097.36,2947.01 8105.84,2951.91C8137.11,2969.96 8213.45,3014.04 8244.72,3032.09C8253.2,3036.99 8263.64,3036.99 8272.12,3032.09C8303.39,3014.04 8379.73,2969.96 8411,2951.91C8419.47,2947.01 8429.92,2947.01 8438.4,2951.91C8459.7,2964.21 8500.54,2987.79 8521.85,3000.09C8530.32,3004.99 8540.77,3004.99 8549.25,3000.09C8580.52,2982.04 8656.85,2937.96 8688.12,2919.91C8696.6,2915.01 8707.05,2915.01 8715.52,2919.91C8731.53,2929.15 8757.51,2944.15 8770.64,2951.73C8775.92,2954.78 8782.07,2955.98 8788.12,2955.14C8811,2951.95 8868.1,2944 8868.1,2944" style="fill:none;stroke:black;stroke-width:3.2px;"/>
                <g transform="matrix(1,0,0,1,1384.51,-3979.59)">
                    <path d="M3973.28,5162.39L3973.28,5216.53" style="fill:none;stroke:black;stroke-width:3.2px;"/>
                </g>
                <g transform="matrix(1,0,0,1,1439.87,-3884.1)">
                    <path d="M3973.28,5162.39L3973.28,5216.53" style="fill:none;stroke:black;stroke-width:3.2px;"/>
                </g>
                <g transform="matrix(1,0,0,1,1606.28,-3722.99)">
                    <path d="M3973.28,5162.39L3973.28,5216.53" style="fill:none;stroke:black;stroke-width:3.2px;"/>
                </g>
                <g transform="matrix(1,0,0,1,3537.3,-1782.32)">
                    <path d="M3973.28,4284.85L3973.28,4390.46" style="fill:none;stroke:black;stroke-width:3.2px;"/>
                </g>
                <g transform="matrix(1,0,0,1,3204.12,-2369.35)">
                    <path d="M3973.28,4284.85L3973.28,4463.45" style="fill:none;stroke:black;stroke-width:3.2px;"/>
                </g>
                <g transform="matrix(1,0,0,1,1162.63,-3364.01)">
                    <path d="M3973.28,4284.85L3973.28,4409.23" style="fill:none;stroke:black;stroke-width:3.2px;"/>
                </g>
                <g transform="matrix(1,0,0,1,1048.84,-3555.91)">
                    <path d="M3973.28,4290.13L3973.28,4368.66" style="fill:none;stroke:black;stroke-width:3.2px;"/>
                </g>
                <g transform="matrix(1,0,0,1,-93.8961,-3841.2)">
                    <path d="M3973.28,4287.49L3973.28,4413.32" style="fill:none;stroke:black;stroke-width:3.2px;"/>
                </g>
                <g transform="matrix(1,0,0,1,331.324,-4219.31)">
                    <path d="M3973.28,4284.85L3973.28,4678.84" style="fill:none;stroke:black;stroke-width:3.2px;"/>
                </g>
                <g transform="matrix(1,0,0,1,164.849,-4057.46)">
                    <path d="M3973.28,4284.85L3973.28,4526.26" style="fill:none;stroke:black;stroke-width:3.2px;"/>
                </g>
                <g transform="matrix(1,0,0,1,109.358,-3969.06)">
                    <path d="M3973.28,4288.57L3973.28,4425.78" style="fill:none;stroke:black;stroke-width:3.2px;"/>
                </g>
                <g transform="matrix(1,0,0,1,3593.92,-2015.52)">
                    <path d="M3973.28,4284.85L3973.28,4788.23" style="fill:none;stroke:black;stroke-width:3.2px;"/>
                </g>
                <g transform="matrix(1,0,0,1,-1.10853,3.32026)">
                    <path d="M3973.28,4284.85L3973.28,5481.37" style="fill:none;stroke:black;stroke-width:3.2px;"/>
                </g>
                <g transform="matrix(1,0,0,1,-721.812,290.589)">
                    <path d="M3973.28,4284.85L3973.28,5481.37" style="fill:none;stroke:black;stroke-width:3.2px;"/>
                </g>
                <g transform="matrix(1,0,0,1,-1141.04,544.297)">
                    <path d="M3973.28,4284.85L3973.28,5481.37" style="fill:none;stroke:black;stroke-width:3.2px;"/>
                </g>
                <g transform="matrix(1,0,0,1,-1072.41,480.137)">
                    <path d="M3973.28,4284.85L3973.28,5481.37" style="fill:none;stroke:black;stroke-width:3.2px;"/>
                </g>
                <g transform="matrix(1,0,0,1,534.702,-93.5681)">
                    <path d="M3973.28,4284.85L3973.28,5481.37" style="fill:none;stroke:black;stroke-width:3.2px;"/>
                </g>
                <g transform="matrix(1,0,0,1,922.689,3.62412)">
                    <path d="M3973.28,4284.85L3973.28,5481.37" style="fill:none;stroke:black;stroke-width:3.2px;"/>
                </g>
                <g transform="matrix(1,0,0,1,2142.23,196.348)">
                    <path d="M3973.28,4284.85L3973.28,5481.37" style="fill:none;stroke:black;stroke-width:3.2px;"/>
                </g>
                <g transform="matrix(1,0,0,1,-259.986,155.295)">
                    <path d="M3973.28,4284.85L3973.28,5481.37" style="fill:none;stroke:black;stroke-width:3.2px;"/>
                </g>
                <g transform="matrix(1,0,0,1,-536.668,247.921)">
                    <path d="M3973.28,4284.85L3973.28,5481.37" style="fill:none;stroke:black;stroke-width:3.2px;"/>
                </g>
                <g transform="matrix(1,0,0,1,-870.219,329.304)">
                    <path d="M3973.28,4284.85L3973.28,5481.37" style="fill:none;stroke:black;stroke-width:3.2px;"/>
                </g>
                <g transform="matrix(1,0,0,1,-933.13,348.661)">
                    <path d="M3973.28,4284.85L3973.28,5481.37" style="fill:none;stroke:black;stroke-width:3.2px;"/>
                </g>
                <g transform="matrix(1,0,0,1,309.071,-146.717)">
                    <path d="M3973.28,4284.85L3973.28,5481.37" style="fill:none;stroke:black;stroke-width:3.2px;"/>
                </g>
                <g transform="matrix(1,0,0,1,471.512,-170.298)">
                    <path d="M3973.28,4284.85L3973.28,5481.37" style="fill:none;stroke:black;stroke-width:3.2px;"/>
                </g>
                <g transform="matrix(1,0,0,1,-1381.17,555.745)">
                    <path d="M3973.28,4284.85L3973.28,5481.37" style="fill:none;stroke:black;stroke-width:3.2px;"/>
                </g>
                <g transform="matrix(1,0,0,1,-1665.49,631.36)">
                    <path d="M3973.28,4284.85L3973.28,5481.37" style="fill:none;stroke:black;stroke-width:3.2px;"/>
                </g>
                <g transform="matrix(1,0,0,1,-1509.21,594.057)">
                    <path d="M3973.28,4284.85L3973.28,5481.37" style="fill:none;stroke:black;stroke-width:3.2px;"/>
                </g>
                <g transform="matrix(1,0,0,1,703.522,-12.982)">
                    <path d="M3973.28,4284.85L3973.28,5481.37" style="fill:none;stroke:black;stroke-width:3.2px;"/>
                </g>
                <g transform="matrix(1,0,0,1,837.109,-74.7342)">
                    <path d="M3973.28,4284.85L3973.28,5481.37" style="fill:none;stroke:black;stroke-width:3.2px;"/>
                </g>
                <g transform="matrix(1,0,0,1,1107.34,80.2829)">
                    <path d="M3973.28,4284.85L3973.28,5481.37" style="fill:none;stroke:black;stroke-width:3.2px;"/>
                </g>
                <g transform="matrix(1,0,0,1,1420.6,110.522)">
                    <path d="M3973.28,4284.85L3973.28,5481.37" style="fill:none;stroke:black;stroke-width:3.2px;"/>
                </g>
                <g transform="matrix(1,0,0,1,1880.9,143.397)">
                    <path d="M3973.28,4284.85L3973.28,5481.37" style="fill:none;stroke:black;stroke-width:3.2px;"/>
                </g>
                <g transform="matrix(1,0,0,1,1661.56,56.9141)">
                    <path d="M3973.28,4284.85L3973.28,5481.37" style="fill:none;stroke:black;stroke-width:3.2px;"/>
                </g>
                <g transform="matrix(1,0,0,1,2393.01,298.551)">
                    <path d="M3973.28,4284.85L3973.28,5481.37" style="fill:none;stroke:black;stroke-width:3.2px;"/>
                </g>
                <g transform="matrix(1,0,0,1,1973.6,92.8788)">
                    <path d="M3973.28,4284.85L3973.28,5481.37" style="fill:none;stroke:black;stroke-width:3.2px;"/>
                </g>
                <g transform="matrix(1,0,0,1,2874.93,246.125)">
                    <path d="M3973.28,4284.85L3973.28,5481.37" style="fill:none;stroke:black;stroke-width:3.2px;"/>
                </g>
                <g transform="matrix(1,0,0,1,2645.58,152.728)">
                    <path d="M3973.28,4284.85L3973.28,5481.37" style="fill:none;stroke:black;stroke-width:3.2px;"/>
                </g>
                <g transform="matrix(1,0,0,1,2966.16,234.026)">
                    <path d="M3973.28,4284.85L3973.28,5481.37" style="fill:none;stroke:black;stroke-width:3.2px;"/>
                </g>
                <g transform="matrix(1,0,0,1,3004.2,255.984)">
                    <path d="M3973.28,4284.85L3973.28,5481.37" style="fill:none;stroke:black;stroke-width:3.2px;"/>
                </g>
                <g transform="matrix(1,0,0,1,3323.04,209.355)">
                    <path d="M3973.28,4284.85L3973.28,5481.37" style="fill:none;stroke:black;stroke-width:3.2px;"/>
                </g>
                <g transform="matrix(1,0,0,1,3188.19,179.109)">
                    <path d="M3973.28,4284.85L3973.28,5481.37" style="fill:none;stroke:black;stroke-width:3.2px;"/>
                </g>
                <g transform="matrix(1,0,0,1,3694.35,-5.01899)">
                    <path d="M3973.28,4284.85L3973.28,5481.37" style="fill:none;stroke:black;stroke-width:3.2px;"/>
                </g>
                <g transform="matrix(1,0,0,1,3873.3,50.5793)">
                    <path d="M3973.28,4284.85L3973.28,5481.37" style="fill:none;stroke:black;stroke-width:3.2px;"/>
                </g>
                <g transform="matrix(1,0,0,1,4045.95,-11.1728)">
                    <path d="M3973.28,4284.85L3973.28,5481.37" style="fill:none;stroke:black;stroke-width:3.2px;"/>
                </g>
                <g transform="matrix(1,0,0,1,4280.36,37.9768)">
                    <path d="M3973.28,4284.85L3973.28,5481.37" style="fill:none;stroke:black;stroke-width:3.2px;"/>
                </g>
                <g transform="matrix(1,0,0,1,4533.67,-74.1852)">
                    <path d="M3973.28,4284.85L3973.28,5481.37" style="fill:none;stroke:black;stroke-width:3.2px;"/>
                </g>
                <g transform="matrix(1,0,0,1,4708.38,-17.8315)">
                    <path d="M3973.28,4284.85L3973.28,5481.37" style="fill:none;stroke:black;stroke-width:3.2px;"/>
                </g>
                <path d="M2480.05,2792.14C2480.05,2792.14 2482.64,2790.65 2485.6,2788.94C2490.89,2785.88 2497.41,2785.88 2502.7,2788.94C2526.02,2802.4 2591.59,2840.25 2630.45,2862.69C2649,2873.4 2671.86,2873.4 2690.41,2862.69C2693.82,2860.72 2697.19,2858.78 2700.31,2856.98C2709.93,2851.42 2721.78,2851.42 2731.41,2856.98C2738.68,2861.18 2747.34,2866.18 2754.73,2870.45C2764.97,2876.36 2777.59,2876.36 2787.83,2870.45C2794.89,2866.37 2803.1,2861.63 2810.16,2857.55C2820.4,2851.64 2833.02,2851.64 2843.26,2857.55C2859.59,2866.99 2987.87,2941.04 3020.7,2960C3026.41,2963.3 3029.93,2969.4 3029.93,2976C3029.93,2982.6 3026.41,2988.7 3020.7,2992C3020.7,2992 3020.7,2992 3020.7,2992C3014.98,2995.3 3011.46,3001.4 3011.46,3008C3011.46,3014.6 3014.98,3020.7 3020.7,3024C3073.79,3054.66 3189.3,3121.35 3242.4,3152C3248.12,3155.3 3251.64,3161.4 3251.64,3168C3251.64,3174.6 3248.12,3180.7 3242.4,3184C3242.4,3184 3242.4,3184 3242.4,3184C3236.68,3187.3 3233.16,3193.4 3233.16,3200C3233.16,3206.6 3236.68,3212.7 3242.4,3216C3257.55,3224.74 3276.57,3235.73 3293.24,3245.35C3317.43,3259.32 3347.43,3258.45 3370.77,3243.12C3382.44,3235.45 3395.1,3227.13 3406.17,3219.86C3424.7,3207.68 3448.51,3206.99 3467.7,3218.08C3471.03,3220 3474.28,3221.88 3477.26,3223.6C3486.27,3228.8 3497.36,3228.8 3506.36,3223.6C3513.83,3219.29 3522.96,3214.02 3530.69,3209.56C3540.93,3203.64 3553.55,3203.64 3563.79,3209.56C3570.85,3213.63 3579.06,3218.37 3586.12,3222.45C3596.36,3228.36 3608.97,3228.36 3619.22,3222.45C3626.27,3218.37 3634.49,3213.63 3641.54,3209.56C3651.78,3203.64 3664.4,3203.64 3674.64,3209.56C3681.7,3213.63 3689.91,3218.37 3696.97,3222.45C3707.21,3228.36 3719.83,3228.36 3730.07,3222.45C3737.12,3218.37 3745.34,3213.63 3752.39,3209.56C3762.63,3203.64 3775.25,3203.64 3785.49,3209.56C3823.28,3231.37 3916.24,3285.04 3962.93,3312C3968.65,3315.3 3972.17,3321.4 3972.17,3328C3972.17,3334.6 3968.65,3340.7 3962.93,3344C3962.93,3344 3962.93,3344 3962.93,3344C3957.22,3347.3 3953.69,3353.4 3953.69,3360C3953.69,3366.6 3957.22,3372.7 3962.93,3376C3993.69,3393.76 4043.03,3422.24 4073.79,3440C4079.5,3443.3 4083.02,3449.4 4083.02,3456C4083.02,3462.6 4079.5,3468.7 4073.79,3472C4073.78,3472 4073.78,3472 4073.78,3472C4068.07,3475.3 4064.55,3481.4 4064.55,3488C4064.55,3494.6 4068.07,3500.7 4073.78,3504C4073.78,3504 4073.78,3504 4073.79,3504C4079.5,3507.3 4083.02,3513.4 4083.02,3520C4083.02,3526.6 4079.5,3532.7 4073.79,3536C4073.78,3536 4073.78,3536 4073.78,3536C4068.07,3539.3 4064.55,3545.4 4064.55,3552C4064.55,3558.6 4068.07,3564.7 4073.78,3568C4073.78,3568 4073.78,3568 4073.79,3568C4079.5,3571.3 4083.02,3577.4 4083.02,3584C4083.02,3590.6 4079.5,3596.7 4073.79,3600C4056.86,3609.77 4035.28,3622.23 4018.36,3632C4012.64,3635.3 4009.12,3641.4 4009.12,3648C4009.12,3654.6 4012.64,3660.7 4018.36,3664C4018.36,3664 4018.36,3664 4018.36,3664C4024.08,3667.3 4027.6,3673.4 4027.6,3680C4027.6,3686.6 4024.08,3692.7 4018.36,3696C4018.36,3696 4018.36,3696 4018.36,3696C4012.64,3699.3 4009.12,3705.4 4009.12,3712C4009.12,3718.6 4012.64,3724.7 4018.36,3728C4021.86,3730.02 4025.36,3732.04 4028.63,3733.93C4032.23,3736.01 4034.45,3739.85 4034.45,3744C4034.45,3748.15 4032.23,3751.99 4028.63,3754.07C4028.63,3754.07 4028.63,3754.07 4028.63,3754.07C4009.36,3765.2 3997.49,3785.75 3997.49,3808C3997.49,3830.25 4009.36,3850.81 4028.63,3861.93C4028.63,3861.93 4028.63,3861.93 4028.63,3861.93C4032.23,3864.01 4034.45,3867.85 4034.45,3872C4034.45,3876.15 4032.23,3879.99 4028.63,3882.07C4025.36,3883.96 4021.86,3885.98 4018.36,3888C4012.64,3891.3 4009.12,3897.4 4009.12,3904C4009.12,3910.6 4012.64,3916.7 4018.36,3920C4018.36,3920 4018.36,3920 4018.36,3920C4024.08,3923.3 4027.6,3929.4 4027.6,3936C4027.6,3942.6 4024.08,3948.7 4018.36,3952C4018.36,3952 4018.36,3952 4018.36,3952C4012.64,3955.3 4009.12,3961.4 4009.12,3968C4009.12,3974.6 4012.64,3980.7 4018.36,3984C4018.36,3984 4018.36,3984 4018.36,3984C4024.08,3987.3 4027.6,3993.4 4027.6,4000C4027.6,4006.6 4024.08,4012.7 4018.36,4016C4018.36,4016 4018.36,4016 4018.36,4016C4012.64,4019.3 4009.12,4025.4 4009.12,4032C4009.12,4038.6 4012.64,4044.7 4018.36,4048C4018.36,4048 4018.36,4048 4018.36,4048C4024.08,4051.3 4027.6,4057.4 4027.6,4064C4027.6,4070.6 4024.08,4076.7 4018.36,4080C4018.36,4080 4018.36,4080 4018.36,4080C4012.64,4083.3 4009.12,4089.4 4009.12,4096C4009.12,4102.6 4012.64,4108.7 4018.36,4112C4032.21,4120 4046.07,4128 4046.07,4128C4057.5,4134.6 4064.55,4146.8 4064.55,4160C4064.55,4173.2 4057.5,4185.4 4046.07,4192C4046.07,4192 3995.76,4221.04 3962.93,4240C3957.22,4243.3 3953.69,4249.4 3953.69,4256C3953.69,4262.6 3957.22,4268.7 3962.93,4272C3962.93,4272 3962.93,4272 3962.93,4272C3968.65,4275.3 3972.17,4281.4 3972.17,4288C3972.17,4294.6 3968.65,4300.7 3962.93,4304C3903.46,4338.34 3755.09,4424 3741.23,4432C3724.08,4441.9 3702.95,4441.9 3685.81,4432C3681.99,4429.8 3678.17,4427.59 3674.64,4425.56C3664.4,4419.64 3651.78,4419.64 3641.54,4425.56C3606.11,4446.01 3522.16,4494.48 3473.34,4522.67C3450.47,4535.87 3422.3,4535.87 3399.44,4522.67C3389,4516.64 3377.68,4510.1 3367.37,4504.15C3345.74,4491.66 3319.27,4490.95 3296.99,4502.25C3279.74,4511 3259.33,4521.36 3243.14,4529.57C3237.49,4532.44 3233.85,4538.17 3233.68,4544.51C3233.51,4550.86 3236.83,4556.78 3242.32,4559.95C3242.32,4559.95 3242.32,4559.95 3242.32,4559.96C3248.06,4563.27 3251.59,4569.38 3251.59,4576C3251.59,4582.62 3248.06,4588.73 3242.32,4592.04C3226.15,4601.38 3205.77,4613.15 3189.24,4622.69C3170.69,4633.4 3147.83,4633.4 3129.28,4622.69C3125.87,4620.72 3122.5,4618.78 3119.39,4616.98C3109.76,4611.42 3097.91,4611.42 3088.28,4616.98C3081.01,4621.18 3072.35,4626.18 3064.96,4630.44C3054.72,4636.36 3042.1,4636.36 3031.86,4630.44C3024.8,4626.37 3016.59,4621.63 3009.53,4617.56C2999.29,4611.64 2986.68,4611.64 2976.43,4617.56C2954.6,4630.16 2915.09,4652.97 2882.13,4672C2870.7,4678.6 2863.66,4690.8 2863.66,4704C2863.66,4717.2 2870.7,4729.4 2882.13,4736C2882.13,4736 2882.13,4736 2882.13,4736C2893.57,4742.6 2900.61,4754.8 2900.61,4768C2900.61,4781.2 2893.57,4793.4 2882.13,4800C2862.61,4811.27 2843.09,4822.54 2833.26,4828.22C2829.2,4830.56 2824.21,4830.56 2820.16,4828.22C2812.01,4823.51 2797.83,4815.33 2786.83,4808.98C2777.21,4803.42 2765.35,4803.42 2755.73,4808.98C2738.85,4818.72 2711.49,4834.52 2690.41,4846.69C2671.86,4857.4 2649,4857.4 2630.45,4846.69C2627.04,4844.72 2623.67,4842.78 2620.55,4840.98C2610.93,4835.42 2599.08,4835.42 2589.45,4840.98C2572.58,4850.72 2545.22,4866.52 2524.13,4878.69C2505.58,4889.4 2482.72,4889.4 2464.17,4878.69C2460.76,4876.72 2457.39,4874.78 2454.28,4872.98C2444.66,4867.42 2432.8,4867.42 2423.18,4872.98C2406.3,4882.72 2378.94,4898.52 2357.86,4910.69C2339.3,4921.4 2316.45,4921.4 2297.9,4910.69C2294.48,4908.72 2291.11,4906.78 2288,4904.98C2278.38,4899.42 2266.52,4899.42 2256.9,4904.98C2234.85,4917.71 2197.15,4939.48 2197.15,4939.48" style="fill:none;stroke:black;stroke-width:3.2px;"/>
                <path d="M4046.07,4192C4046.07,4192 4118.63,4150.11 4167.89,4121.67C4195.4,4105.78 4229.3,4105.78 4256.81,4121.67C4264.03,4125.84 4271.51,4130.16 4278.74,4134.33C4306.25,4150.22 4340.15,4150.22 4367.66,4134.33C4374.88,4130.16 4382.36,4125.84 4389.59,4121.67C4417.1,4105.78 4451,4105.78 4478.51,4121.67C4491.58,4129.22 4505.49,4137.25 4517.19,4144C4522.91,4147.3 4526.43,4153.4 4526.43,4160C4526.43,4166.6 4522.91,4172.7 4517.19,4176C4517.19,4176 4517.19,4176 4517.19,4176C4511.47,4179.3 4507.95,4185.4 4507.95,4192C4507.95,4198.6 4511.47,4204.7 4517.19,4208C4542.82,4222.8 4581.36,4245.05 4611.29,4262.33C4638.8,4278.22 4672.7,4278.22 4700.22,4262.33C4724.16,4248.5 4753.62,4231.5 4777.57,4217.67C4805.08,4201.78 4838.98,4201.78 4866.49,4217.67C4879.56,4225.22 4893.47,4233.25 4905.17,4240C4910.89,4243.3 4914.41,4249.4 4914.41,4256C4914.41,4262.6 4910.89,4268.7 4905.17,4272C4905.17,4272 4905.17,4272 4905.17,4272C4899.45,4275.3 4895.93,4281.4 4895.93,4288C4895.93,4294.6 4899.45,4300.7 4905.17,4304C4930.8,4318.8 4969.34,4341.05 4999.27,4358.33C5026.78,4374.22 5060.68,4374.22 5088.19,4358.33C5112.14,4344.5 5141.6,4327.5 5165.55,4313.67C5193.06,4297.78 5226.96,4297.78 5254.47,4313.67C5293.06,4335.95 5348.66,4368.05 5387.25,4390.33C5414.76,4406.22 5448.66,4406.22 5476.17,4390.33C5500.12,4376.5 5529.58,4359.5 5553.53,4345.67C5581.04,4329.78 5614.94,4329.78 5642.45,4345.67C5681.04,4367.95 5736.64,4400.05 5775.23,4422.33C5802.74,4438.22 5836.64,4438.22 5864.15,4422.33C5888.1,4408.5 5917.56,4391.5 5941.51,4377.67C5969.02,4361.78 6002.92,4361.78 6030.43,4377.67C6060.36,4394.95 6098.9,4417.2 6124.53,4432C6130.25,4435.3 6133.77,4441.4 6133.77,4448C6133.77,4454.6 6130.25,4460.7 6124.53,4464C6124.53,4464 6124.53,4464 6124.53,4464C6118.81,4467.3 6115.29,4473.4 6115.29,4480C6115.29,4486.6 6118.81,4492.7 6124.53,4496C6162.05,4517.66 6229.42,4556.56 6274.06,4582.33C6301.57,4598.22 6335.47,4598.22 6362.98,4582.33C6426.62,4545.59 6542.98,4478.41 6606.61,4441.67C6634.13,4425.78 6668.02,4425.78 6695.54,4441.67C6737.72,4466.03 6800.22,4502.11 6838.62,4524.28C6859.76,4536.48 6885.8,4536.48 6906.93,4524.28C6910,4522.51 6912.97,4520.8 6915.65,4519.25C6923.42,4514.76 6932.99,4514.76 6940.75,4519.25C6948.54,4523.74 6958.64,4529.57 6967.08,4534.44C6977.32,4540.36 6989.94,4540.36 7000.18,4534.44C7016.51,4525.02 7039.05,4512 7039.05,4512C7039.07,4511.99 7074.61,4491.47 7105.44,4473.67C7132.96,4457.78 7166.86,4457.78 7194.37,4473.67C7201.59,4477.84 7209.07,4482.16 7216.3,4486.33C7243.81,4502.22 7277.71,4502.22 7305.22,4486.33C7390.19,4437.27 7574.73,4330.73 7659.7,4281.67C7687.21,4265.78 7721.11,4265.78 7748.62,4281.67C7772.57,4295.5 7802.03,4312.5 7825.98,4326.33C7853.49,4342.22 7887.39,4342.22 7914.9,4326.33C7938.85,4312.5 7968.31,4295.5 7992.25,4281.67C8019.77,4265.78 8053.66,4265.78 8081.18,4281.67C8105.13,4295.5 8134.58,4312.5 8158.53,4326.33C8186.04,4342.22 8219.94,4342.22 8247.45,4326.33C8299.15,4296.48 8383.97,4247.52 8435.66,4217.67C8463.17,4201.78 8497.07,4201.78 8524.58,4217.67C8548.53,4231.5 8577.99,4248.5 8601.94,4262.33C8629.45,4278.22 8663.35,4278.22 8690.86,4262.33C8729.32,4240.12 8778.79,4211.56 8778.79,4211.56" style="fill:none;stroke:black;stroke-width:3.2px;"/>
                <g transform="matrix(1,0,0,1,1994.05,-3565.23)">
                    <path d="M3973.28,5162.39L3973.28,5282.66" style="fill:none;stroke:black;stroke-width:3.2px;"/>
                </g>
            </g>
        </g>
    </g>
</svg>
