<?xml version="1.0" encoding="UTF-8" standalone="no"?>
<!DOCTYPE svg PUBLIC "-//W3C//DTD SVG 1.1//EN" "http://www.w3.org/Graphics/SVG/1.1/DTD/svg11.dtd">
<svg width="100%" height="100%" viewBox="0 0 483 727" version="1.1" xmlns="http://www.w3.org/2000/svg" xmlns:xlink="http://www.w3.org/1999/xlink" xml:space="preserve" xmlns:serif="http://www.serif.com/" style="fill-rule:evenodd;clip-rule:evenodd;stroke-linecap:round;stroke-linejoin:round;stroke-miterlimit:1.5;">
    <g transform="matrix(1,0,0,1,-2715.65,-977.483)">
        <g transform="matrix(1.12785,0,0,1.12785,2060.16,1696.93)">
            <g id="Biclops">
                <g transform="matrix(0.712036,0,0,0.712036,13.0393,-713.563)">
                    <g transform="matrix(1,0,0,1,27.7128,-368)">
                        <path d="M831.384,864L1163.94,672L1191.65,688L1136.23,1040L914.523,1168L886.81,1152L831.384,864Z" style="fill:rgb(168,63,63);"/>
                    </g>
                    <g transform="matrix(1,0,0,1,55.4256,-352)">
                        <path d="M831.384,864L1163.94,672L1108.51,1024L886.81,1152L831.384,864Z" style="fill:rgb(192,66,66);"/>
                    </g>
                    <g transform="matrix(1,0,0,1,132.814,435.32)">
                        <path d="M665.108,448L1013.86,246.651L1235.56,374.651L886.81,576L665.108,448Z" style="fill:rgb(168,63,63);"/>
                    </g>
                    <g transform="matrix(1,0,0,0.545455,511.662,164.228)">
                        <path d="M665.108,330.667L665.108,917.333L856.709,1183.86L886.81,1152L886.81,565.333L665.108,330.667Z" style="fill:rgb(168,63,63);"/>
                    </g>
                    <g transform="matrix(1,0,0,0.545455,481.561,181.607)">
                        <path d="M665.108,330.667L665.108,917.333L886.81,1152L886.81,565.333L665.108,330.667Z" style="fill:rgb(192,66,66);"/>
                    </g>
                </g>
                <g transform="matrix(0.712036,0,0,0.712036,-659.176,-1544.4)">
                    <g>
                        <g transform="matrix(-0.469309,-0.337722,-0.34494,0.459489,3416.03,703.803)">
                            <circle cx="1116.55" cy="2739.59" r="89.777" style="fill:rgb(251,200,253);"/>
                            <clipPath id="_clip1">
                                <circle cx="1116.55" cy="2739.59" r="89.777"/>
                            </clipPath>
                            <g clip-path="url(#_clip1)">
                                <g transform="matrix(-0.73533,-0.136553,-0.48289,0.564989,3254.9,1397.55)">
                                    <ellipse cx="1077.21" cy="2733.44" rx="33.632" ry="55.061" style="fill:rgb(80,138,136);"/>
                                </g>
                            </g>
                        </g>
                        <g transform="matrix(0.682527,-0.12398,0.124925,0.687728,-192.449,1448.78)">
                            <ellipse cx="2942.61" cy="755.947" rx="7.415" ry="10.875" style="fill:url(#_Linear2);"/>
                        </g>
                        <g transform="matrix(0.562616,0,0,0.582641,256.531,1433.21)">
                            <ellipse cx="2930.96" cy="283.067" rx="4.623" ry="4.24" style="fill:rgb(249,253,255);fill-opacity:0.75;"/>
                        </g>
                    </g>
                    <g transform="matrix(-0.949828,0,0,0.929952,3243.78,-19.5705)">
                        <path d="M1046.9,2126.61C1046.67,2121.77 1047.02,2116.93 1047.97,2112.12L1083.58,1631.49L1084.46,1631.49C1092.34,1561.59 1151.94,1507.19 1224.19,1507.19C1296.44,1507.19 1356.04,1561.59 1363.92,1631.49L1364.8,1631.49L1401.55,2126.37L1401.49,2126.37C1402.66,2153.03 1385.95,2179.66 1351.22,2199.71C1282.88,2239.17 1170.47,2238.34 1100.37,2197.86C1066.41,2178.26 1048.57,2152.93 1046.95,2127.54L1046.83,2127.54L1046.9,2126.61Z" style="fill:rgb(92,41,174);"/>
                        <clipPath id="_clip3">
                            <path d="M1046.9,2126.61C1046.67,2121.77 1047.02,2116.93 1047.97,2112.12L1083.58,1631.49L1084.46,1631.49C1092.34,1561.59 1151.94,1507.19 1224.19,1507.19C1296.44,1507.19 1356.04,1561.59 1363.92,1631.49L1364.8,1631.49L1401.55,2126.37L1401.49,2126.37C1402.66,2153.03 1385.95,2179.66 1351.22,2199.71C1282.88,2239.17 1170.47,2238.34 1100.37,2197.86C1066.41,2178.26 1048.57,2152.93 1046.95,2127.54L1046.83,2127.54L1046.9,2126.61Z"/>
                        </clipPath>
                        <g clip-path="url(#_clip3)">
                            <g transform="matrix(-3.76204,0,0,15.3336,11549.2,-4956.25)">
                                <rect x="2683.15" y="406.362" width="76.305" height="66.587" style="fill:url(#_Linear4);"/>
                            </g>
                            <g transform="matrix(-1.69234,3.92371,10.1309,4.55833,1373.7,-10811.4)">
                                <rect x="2738.16" y="393.709" width="76.047" height="81.282" style="fill:url(#_Linear5);"/>
                            </g>
                            <g transform="matrix(-5.0026,-0.459227,-0.990973,11.2616,15565.9,-1710.22)">
                                <rect x="2738.16" y="393.709" width="76.047" height="81.282" style="fill:url(#_Linear6);"/>
                            </g>
                            <g transform="matrix(0.0204315,2.63933,7.16695,-0.0578774,-1969.18,-5368.71)">
                                <path d="M2937.73,395.252L2803.26,400.174C2857.63,417.185 2863.04,454.495 2800.47,474.499L2937.73,475.632L2937.73,395.252Z" style="fill:url(#_Linear7);"/>
                            </g>
                            <g transform="matrix(-1.05282,0,0,1.07532,2028.3,1302.48)">
                                <path d="M630.439,733.909C630.551,714.849 644.294,707.131 661.206,716.691C678.118,726.251 691.862,749.506 691.973,768.693C691.973,768.771 691.973,768.849 691.973,768.928L691.973,853.199C676.657,850.228 645.963,838.663 630.371,826.331L630.371,733.87L630.439,733.909Z" style="fill:rgb(92,41,174);"/>
                                <clipPath id="_clip8">
                                    <path d="M630.439,733.909C630.551,714.849 644.294,707.131 661.206,716.691C678.118,726.251 691.862,749.506 691.973,768.693C691.973,768.771 691.973,768.849 691.973,768.928L691.973,853.199C676.657,850.228 645.963,838.663 630.371,826.331L630.371,733.87L630.439,733.909Z"/>
                                </clipPath>
                                <g clip-path="url(#_clip8)">
                                    <g transform="matrix(1,0,0,1,17.3672,-10.027)">
                                        <path d="M630.439,733.909C630.551,714.849 644.294,707.131 661.206,716.691C678.118,726.251 691.862,749.506 691.973,768.693C691.973,768.771 691.973,768.849 691.973,768.928L691.973,853.199C676.657,850.228 645.963,838.663 630.371,826.331L630.371,733.87L630.439,733.909Z" style="fill:rgb(73,38,129);"/>
                                    </g>
                                </g>
                            </g>
                        </g>
                    </g>
                    <g transform="matrix(1,0,0,1,46.873,60.2235)">
                        <g transform="matrix(-0.469309,-0.337722,-0.34494,0.459489,3565.15,737.757)">
                            <circle cx="1116.55" cy="2739.59" r="89.777" style="fill:rgb(251,200,253);"/>
                        </g>
                        <g transform="matrix(0.3922,0.185593,0.0317373,0.422689,1560.05,283.796)">
                            <ellipse cx="1077.21" cy="2733.44" rx="33.632" ry="55.061" style="fill:rgb(80,138,136);"/>
                        </g>
                        <g transform="matrix(0.78698,-0.11167,0.0991956,0.699071,-325.463,1441.65)">
                            <ellipse cx="2942.61" cy="755.947" rx="7.415" ry="10.875" style="fill:url(#_Linear9);"/>
                        </g>
                        <g transform="matrix(0.429251,-0.458159,0.506336,0.474388,657.454,2848.35)">
                            <ellipse cx="2930.96" cy="283.067" rx="4.623" ry="4.24" style="fill:rgb(249,253,255);fill-opacity:0.78;"/>
                        </g>
                    </g>
                </g>
                <g transform="matrix(0.135148,0,0,0.135148,775.958,-917.211)">
                    <g transform="matrix(1.31256,0.757804,-1.30436,0.753074,2845.7,-75.4879)">
                        <circle cx="954.346" cy="2868.69" r="143.753" style="fill:rgb(201,140,245);"/>
                    </g>
                    <g transform="matrix(0.866025,0.5,-0.86062,0.496879,2000.52,856.332)">
                        <circle cx="954.346" cy="2868.69" r="143.753" style="fill:rgb(211,167,242);"/>
                    </g>
                    <g transform="matrix(1,0,0,1,-486.339,-38.3936)">
                        <path d="M677.411,2254.94C685.401,2170.95 756.475,2105.16 842.852,2105.16C929.229,2105.16 1000.3,2170.95 1008.29,2254.94L1009.04,2254.94L1009.04,2749.82L1008.99,2749.82C1010.09,2774.8 994.43,2799.75 961.879,2818.54C897.843,2855.51 792.52,2854.74 726.827,2816.81C694.527,2798.16 677.783,2773.98 676.718,2749.82L676.664,2749.82L676.664,2254.94L677.411,2254.94Z" style="fill:rgb(180,81,250);"/>
                    </g>
                    <g transform="matrix(0.601648,0,0,0.601648,142.479,954.92)">
                        <g transform="matrix(-0.866025,-0.5,0.86062,-0.496879,-514.028,3722.11)">
                            <path d="M979.79,1829.96L700.183,1718.38L811.066,1998.69L979.79,1998.69L979.79,1829.96Z" style="fill:rgb(199,129,249);"/>
                            <clipPath id="_clip10">
                                <path d="M979.79,1829.96L700.183,1718.38L811.066,1998.69L979.79,1998.69L979.79,1829.96Z"/>
                            </clipPath>
                            <g clip-path="url(#_clip10)">
                                <g transform="matrix(-0.57735,0.580977,-1,-1.00628,3385.24,3091.98)">
                                    <path d="M1143.19,2025.04L1142.73,1745.7" style="fill:none;stroke:rgb(180,81,250);stroke-width:10.9px;"/>
                                </g>
                            </g>
                        </g>
                        <g transform="matrix(-0.866025,-0.5,0.86062,-0.496879,-514.028,3722.11)">
                            <path d="M979.79,1829.96L811.509,1829.96L811.066,1998.69L979.263,1998.69L979.79,1829.96Z" style="fill:rgb(200,123,255);stroke:rgb(180,81,250);stroke-width:15.47px;"/>
                        </g>
                    </g>
                    <g transform="matrix(0.866025,0.5,-0.86062,0.496879,1230.06,1315.28)">
                        <path d="M979.79,1829.96L700.183,1718.38L811.066,1998.69L979.79,1998.69L979.79,1829.96Z" style="fill:rgb(102,41,147);"/>
                        <clipPath id="_clip11">
                            <path d="M979.79,1829.96L700.183,1718.38L811.066,1998.69L979.79,1998.69L979.79,1829.96Z"/>
                        </clipPath>
                        <g clip-path="url(#_clip11)">
                            <g transform="matrix(-0.57735,0.580977,-1.81459,-1.82599,5034.82,4751.92)">
                                <path d="M1143.19,2025.04L1143.19,1871.53" style="fill:none;stroke:rgb(180,81,250);stroke-width:4.48px;"/>
                            </g>
                        </g>
                    </g>
                    <g transform="matrix(0.521042,0.300824,-0.51779,0.298946,882.814,1460.11)">
                        <path d="M979.79,1829.96L700.183,1718.38L811.066,1998.69L979.79,1998.69L979.79,1829.96Z" style="fill:rgb(211,167,242);"/>
                        <clipPath id="_clip12">
                            <path d="M979.79,1829.96L700.183,1718.38L811.066,1998.69L979.79,1998.69L979.79,1829.96Z"/>
                        </clipPath>
                        <g clip-path="url(#_clip12)">
                            <g transform="matrix(-0.57735,0.580977,-1.81459,-1.82599,5034.82,4751.92)">
                                <path d="M1143.19,2025.04L1142.27,1871.24" style="fill:none;stroke:rgb(180,81,250);stroke-width:7.44px;"/>
                            </g>
                        </g>
                    </g>
                    <g transform="matrix(1.31256,0.757804,-1.30436,0.753074,2845.7,-75.4879)">
                        <circle cx="954.346" cy="2868.69" r="143.753" style="fill:rgb(201,140,245);"/>
                    </g>
                    <g transform="matrix(0.866025,0.5,-0.86062,0.496879,2000.52,856.332)">
                        <circle cx="954.346" cy="2868.69" r="143.753" style="fill:rgb(211,167,242);"/>
                    </g>
                    <g transform="matrix(1,0,0,1,-486.339,-38.3936)">
                        <path d="M677.411,2254.94C685.401,2170.95 756.475,2105.16 842.852,2105.16C929.229,2105.16 1000.3,2170.95 1008.29,2254.94L1009.04,2254.94L1009.04,2749.82L1008.99,2749.82C1010.09,2774.8 994.43,2799.75 961.879,2818.54C897.843,2855.51 792.52,2854.74 726.827,2816.81C694.527,2798.16 677.783,2773.98 676.718,2749.82L676.664,2749.82L676.664,2254.94L677.411,2254.94Z" style="fill:rgb(180,81,250);"/>
                    </g>
                    <g transform="matrix(0.601648,0,0,0.601648,142.479,938.524)">
                        <g transform="matrix(-0.866025,-0.5,0.86062,-0.496879,-514.028,3722.11)">
                            <path d="M979.79,1829.96L700.183,1718.38L811.066,1998.69L979.79,1998.69L979.79,1829.96Z" style="fill:rgb(199,129,249);"/>
                            <clipPath id="_clip13">
                                <path d="M979.79,1829.96L700.183,1718.38L811.066,1998.69L979.79,1998.69L979.79,1829.96Z"/>
                            </clipPath>
                            <g clip-path="url(#_clip13)">
                                <g transform="matrix(-0.57735,0.580977,-1,-1.00628,3385.24,3091.98)">
                                    <path d="M1143.19,2025.04L1142.73,1745.7" style="fill:none;stroke:rgb(180,81,250);stroke-width:10.9px;"/>
                                </g>
                            </g>
                        </g>
                        <g transform="matrix(-0.866025,-0.5,0.86062,-0.496879,-514.028,3722.11)">
                            <path d="M979.79,1829.96L811.509,1829.96L811.066,1998.69L979.263,1998.69L979.79,1829.96Z" style="fill:rgb(200,123,255);stroke:rgb(180,81,250);stroke-width:15.47px;"/>
                        </g>
                    </g>
                    <g transform="matrix(0.866025,0.5,-0.86062,0.496879,1230.06,1315.28)">
                        <path d="M979.79,1829.96L700.183,1718.38L811.066,1998.69L979.79,1998.69L979.79,1829.96Z" style="fill:rgb(102,41,147);"/>
                        <clipPath id="_clip14">
                            <path d="M979.79,1829.96L700.183,1718.38L811.066,1998.69L979.79,1998.69L979.79,1829.96Z"/>
                        </clipPath>
                        <g clip-path="url(#_clip14)">
                            <g transform="matrix(-0.57735,0.580977,-1.81459,-1.82599,5034.82,4751.92)">
                                <path d="M1143.19,2025.04L1143.19,1871.53" style="fill:none;stroke:rgb(180,81,250);stroke-width:4.48px;"/>
                            </g>
                        </g>
                    </g>
                    <g transform="matrix(0.521042,0.300824,-0.51779,0.298946,882.814,1436.05)">
                        <path d="M979.79,1829.96L700.183,1718.38L811.066,1998.69L979.79,1998.69L979.79,1829.96Z" style="fill:rgb(211,167,242);"/>
                        <clipPath id="_clip15">
                            <path d="M979.79,1829.96L700.183,1718.38L811.066,1998.69L979.79,1998.69L979.79,1829.96Z"/>
                        </clipPath>
                        <g clip-path="url(#_clip15)">
                            <g transform="matrix(-0.57735,0.580977,-1.81459,-1.82599,5034.82,4751.92)">
                                <path d="M1143.19,2025.04L1142.27,1871.24" style="fill:none;stroke:rgb(180,81,250);stroke-width:7.44px;"/>
                            </g>
                        </g>
                    </g>
                </g>
            </g>
        </g>
    </g>
    <defs>
        <linearGradient id="_Linear2" x1="0" y1="0" x2="1" y2="-0.139131" gradientUnits="userSpaceOnUse" gradientTransform="matrix(-12.7128,11.6308,-13.5008,-10.952,2942.37,755.961)"><stop offset="0" style="stop-color:rgb(74,89,97);stop-opacity:1"/><stop offset="1" style="stop-color:rgb(74,89,97);stop-opacity:0"/></linearGradient>
        <linearGradient id="_Linear4" x1="0" y1="0" x2="1" y2="-0.152536" gradientUnits="userSpaceOnUse" gradientTransform="matrix(56.2419,6.04847,-10.812,31.4629,2703.21,437.612)"><stop offset="0" style="stop-color:rgb(143,166,209);stop-opacity:1"/><stop offset="1" style="stop-color:rgb(143,166,209);stop-opacity:0"/></linearGradient>
        <linearGradient id="_Linear5" x1="0" y1="0" x2="1" y2="0.380181" gradientUnits="userSpaceOnUse" gradientTransform="matrix(-45.806,11.9776,-9.75986,-23.8369,2829.35,428.207)"><stop offset="0" style="stop-color:rgb(80,30,152);stop-opacity:1"/><stop offset="1" style="stop-color:rgb(80,30,152);stop-opacity:0"/></linearGradient>
        <linearGradient id="_Linear6" x1="0" y1="0" x2="1" y2="0.506515" gradientUnits="userSpaceOnUse" gradientTransform="matrix(-65.442,-0.228321,6.15582,-12.2636,2816.37,433.811)"><stop offset="0" style="stop-color:rgb(80,30,152);stop-opacity:1"/><stop offset="1" style="stop-color:rgb(80,30,152);stop-opacity:0"/></linearGradient>
        <linearGradient id="_Linear7" x1="0" y1="0" x2="1" y2="0" gradientUnits="userSpaceOnUse" gradientTransform="matrix(-35.0923,2.23573,-6.20075,-12.6528,2879.42,434.403)"><stop offset="0" style="stop-color:rgb(160,120,231);stop-opacity:0.3"/><stop offset="1" style="stop-color:rgb(160,120,231);stop-opacity:0"/></linearGradient>
        <linearGradient id="_Linear9" x1="0" y1="0" x2="1" y2="0.261829" gradientUnits="userSpaceOnUse" gradientTransform="matrix(13.3359,12.1922,-14.2384,11.4194,2942.72,756.064)"><stop offset="0" style="stop-color:rgb(74,89,97);stop-opacity:1"/><stop offset="1" style="stop-color:rgb(74,89,97);stop-opacity:0"/></linearGradient>
    </defs>
</svg>
