<?xml version="1.0" encoding="UTF-8" standalone="no"?>
<!DOCTYPE svg PUBLIC "-//W3C//DTD SVG 1.1//EN" "http://www.w3.org/Graphics/SVG/1.1/DTD/svg11.dtd">
<svg width="100%" height="100%" viewBox="0 0 360 453" version="1.1" xmlns="http://www.w3.org/2000/svg" xmlns:xlink="http://www.w3.org/1999/xlink" xml:space="preserve" xmlns:serif="http://www.serif.com/" style="fill-rule:evenodd;clip-rule:evenodd;stroke-linecap:round;stroke-linejoin:round;stroke-miterlimit:1.5;">
    <g transform="matrix(1,0,0,1,-1744.97,-675.765)">
        <g transform="matrix(-1.22765,0.16605,0.16605,1.22765,5210.71,-867.261)">
            <g id="crystal2">
                <g id="Crystal" transform="matrix(0.34568,-0.0109865,0.0109865,0.34568,1869.59,895.669)">
                    <g transform="matrix(0.999672,0.0256283,-0.0256283,0.999672,731.408,-154.146)">
                        <path d="M2005.4,174.661L2215.7,358.972L2118.78,1035.72L2005.4,1101.18L1889.9,1035.72L1795.1,358.972L2005.4,174.661Z" style="fill:rgb(42,74,180);fill-opacity:0.93;stroke:rgb(227,227,227);stroke-opacity:0.55;stroke-width:3.2px;"/>
                    </g>
                    <g transform="matrix(0.999672,0.0256283,-0.0256283,0.999672,731.408,-154.146)">
                        <path d="M1795.1,359.058L2005.4,443.401L2215.7,358.494" style="fill:none;stroke:rgb(227,227,227);stroke-opacity:0.55;stroke-width:3.2px;"/>
                    </g>
                    <g transform="matrix(0.999672,0.0256283,-0.0256283,0.999672,731.408,-154.146)">
                        <path d="M2005.4,174.661L2005.4,1101.18" style="fill:none;stroke:rgb(227,227,227);stroke-opacity:0.55;stroke-width:3.2px;"/>
                    </g>
                </g>
                <g id="Crystal1" serif:id="Crystal" transform="matrix(0.256043,0.0247826,-0.0294338,0.304097,2211.81,835.174)">
                    <g transform="matrix(0.999672,0.0256283,-0.0256283,0.999672,731.408,-154.146)">
                        <path d="M2005.4,174.661L2215.7,358.972L2118.78,1035.72L2005.4,1101.18L1889.9,1035.72L1795.1,358.972L2005.4,174.661Z" style="fill:rgb(42,74,180);fill-opacity:0.93;stroke:rgb(227,227,227);stroke-opacity:0.55;stroke-width:3.2px;"/>
                    </g>
                    <g transform="matrix(0.999672,0.0256283,-0.0256283,0.999672,731.408,-154.146)">
                        <path d="M1795.1,359.058L2005.4,443.401L2215.7,358.494" style="fill:none;stroke:rgb(227,227,227);stroke-opacity:0.55;stroke-width:3.2px;"/>
                    </g>
                    <g transform="matrix(0.999672,0.0256283,-0.0256283,0.999672,731.408,-154.146)">
                        <path d="M2005.4,174.661L2005.4,1101.18" style="fill:none;stroke:rgb(227,227,227);stroke-opacity:0.55;stroke-width:3.2px;"/>
                    </g>
                </g>
                <g id="Crystal2" serif:id="Crystal" transform="matrix(0.0369694,0.062831,-0.0928256,0.054618,2848.97,994.854)">
                    <g transform="matrix(0.999672,0.0256283,-0.0256283,0.999672,731.408,-154.146)">
                        <path d="M2005.4,174.661L2215.7,358.972L2118.78,1035.72L2005.4,1101.18L1889.9,1035.72L1795.1,358.972L2005.4,174.661Z" style="fill:rgb(42,74,180);fill-opacity:0.93;stroke:rgb(227,227,227);stroke-opacity:0.55;stroke-width:3.2px;"/>
                    </g>
                    <g transform="matrix(0.999672,0.0256283,-0.0256283,0.999672,731.408,-154.146)">
                        <path d="M1795.1,359.058L2005.4,443.401L2215.7,358.494" style="fill:none;stroke:rgb(227,227,227);stroke-opacity:0.55;stroke-width:3.2px;"/>
                    </g>
                    <g transform="matrix(0.999672,0.0256283,-0.0256283,0.999672,731.408,-154.146)">
                        <path d="M2005.4,174.661L2005.4,1101.18" style="fill:none;stroke:rgb(227,227,227);stroke-opacity:0.55;stroke-width:3.2px;"/>
                    </g>
                </g>
                <g id="Crystal3" serif:id="Crystal" transform="matrix(0.123828,0.0751185,-0.0749587,0.123564,2604.9,885.488)">
                    <g transform="matrix(0.999672,0.0256283,-0.0256283,0.999672,731.408,-154.146)">
                        <path d="M2005.4,174.661L2215.7,358.972L2118.78,1035.72L2005.4,1101.18L1889.9,1035.72L1795.1,358.972L2005.4,174.661Z" style="fill:rgb(42,74,180);fill-opacity:0.93;stroke:rgb(227,227,227);stroke-opacity:0.55;stroke-width:3.2px;"/>
                    </g>
                    <g transform="matrix(0.999672,0.0256283,-0.0256283,0.999672,731.408,-154.146)">
                        <path d="M1795.1,359.058L2005.4,443.401L2215.7,358.494" style="fill:none;stroke:rgb(227,227,227);stroke-opacity:0.55;stroke-width:3.2px;"/>
                    </g>
                    <g transform="matrix(0.999672,0.0256283,-0.0256283,0.999672,731.408,-154.146)">
                        <path d="M2005.4,174.661L2005.4,1101.18" style="fill:none;stroke:rgb(227,227,227);stroke-opacity:0.55;stroke-width:3.2px;"/>
                    </g>
                </g>
                <g id="Crystal4" serif:id="Crystal" transform="matrix(0.0618718,0.0361284,-0.0306543,0.0524971,2742.8,1070.28)">
                    <g transform="matrix(0.999672,0.0256283,-0.0256283,0.999672,731.408,-154.146)">
                        <path d="M2005.4,174.661L2215.7,358.972L2118.78,1035.72L2005.4,1101.18L1889.9,1035.72L1795.1,358.972L2005.4,174.661Z" style="fill:rgb(42,74,180);fill-opacity:0.93;stroke:rgb(227,227,227);stroke-opacity:0.55;stroke-width:3.2px;"/>
                    </g>
                    <g transform="matrix(0.999672,0.0256283,-0.0256283,0.999672,731.408,-154.146)">
                        <path d="M1795.1,359.058L2005.4,443.401L2215.7,358.494" style="fill:none;stroke:rgb(227,227,227);stroke-opacity:0.55;stroke-width:3.2px;"/>
                    </g>
                    <g transform="matrix(0.999672,0.0256283,-0.0256283,0.999672,731.408,-154.146)">
                        <path d="M2005.4,174.661L2005.4,1101.18" style="fill:none;stroke:rgb(227,227,227);stroke-opacity:0.55;stroke-width:3.2px;"/>
                    </g>
                </g>
                <g id="Crystal5" serif:id="Crystal" transform="matrix(0.306057,-0.118765,0.126241,0.325321,1861.17,1192.45)">
                    <g transform="matrix(0.999672,0.0256283,-0.0256283,0.999672,731.408,-154.146)">
                        <path d="M2005.4,174.661L2215.7,358.972L2118.78,1035.72L2005.4,1101.18L1889.9,1035.72L1795.1,358.972L2005.4,174.661Z" style="fill:rgb(42,74,180);fill-opacity:0.93;stroke:rgb(227,227,227);stroke-opacity:0.55;stroke-width:3.2px;"/>
                    </g>
                    <g transform="matrix(0.999672,0.0256283,-0.0256283,0.999672,731.408,-154.146)">
                        <path d="M1795.1,359.058L2005.4,443.401L2215.7,358.494" style="fill:none;stroke:rgb(227,227,227);stroke-opacity:0.55;stroke-width:3.2px;"/>
                    </g>
                    <g transform="matrix(0.999672,0.0256283,-0.0256283,0.999672,731.408,-154.146)">
                        <path d="M2005.4,174.661L2005.4,1101.18" style="fill:none;stroke:rgb(227,227,227);stroke-opacity:0.55;stroke-width:3.2px;"/>
                    </g>
                </g>
                <g id="Crystal6" serif:id="Crystal" transform="matrix(-0.227983,0.0166686,0.0166686,0.227983,3371.01,944.387)">
                    <g transform="matrix(0.999672,0.0256283,-0.0256283,0.999672,731.408,-154.146)">
                        <path d="M2005.4,174.661L2215.7,358.972L2118.78,1035.72L2005.4,1101.18L1889.9,1035.72L1795.1,358.972L2005.4,174.661Z" style="fill:rgb(42,74,180);fill-opacity:0.93;stroke:rgb(227,227,227);stroke-opacity:0.55;stroke-width:3.2px;"/>
                    </g>
                    <g transform="matrix(0.999672,0.0256283,-0.0256283,0.999672,731.408,-154.146)">
                        <path d="M1795.1,359.058L2005.4,443.401L2215.7,358.494" style="fill:none;stroke:rgb(227,227,227);stroke-opacity:0.55;stroke-width:3.2px;"/>
                    </g>
                    <g transform="matrix(0.999672,0.0256283,-0.0256283,0.999672,731.408,-154.146)">
                        <path d="M2005.4,174.661L2005.4,1101.18" style="fill:none;stroke:rgb(227,227,227);stroke-opacity:0.55;stroke-width:3.2px;"/>
                    </g>
                </g>
                <g id="Crystal7" serif:id="Crystal" transform="matrix(-0.0369694,0.062831,0.0928256,0.054618,2858.86,1006.86)">
                    <g transform="matrix(0.999672,0.0256283,-0.0256283,0.999672,731.408,-154.146)">
                        <path d="M2005.4,174.661L2215.7,358.972L2118.78,1035.72L2005.4,1101.18L1889.9,1035.72L1795.1,358.972L2005.4,174.661Z" style="fill:rgb(42,74,180);fill-opacity:0.93;stroke:rgb(227,227,227);stroke-opacity:0.55;stroke-width:3.2px;"/>
                    </g>
                    <g transform="matrix(0.999672,0.0256283,-0.0256283,0.999672,731.408,-154.146)">
                        <path d="M1795.1,359.058L2005.4,443.401L2215.7,358.494" style="fill:none;stroke:rgb(227,227,227);stroke-opacity:0.55;stroke-width:3.2px;"/>
                    </g>
                    <g transform="matrix(0.999672,0.0256283,-0.0256283,0.999672,731.408,-154.146)">
                        <path d="M2005.4,174.661L2005.4,1101.18" style="fill:none;stroke:rgb(227,227,227);stroke-opacity:0.55;stroke-width:3.2px;"/>
                    </g>
                </g>
                <g id="Crystal8" serif:id="Crystal" transform="matrix(-0.123828,0.0751185,0.0749587,0.123564,3102.94,897.497)">
                    <g transform="matrix(0.999672,0.0256283,-0.0256283,0.999672,731.408,-154.146)">
                        <path d="M2005.4,174.661L2215.7,358.972L2118.78,1035.72L2005.4,1101.18L1889.9,1035.72L1795.1,358.972L2005.4,174.661Z" style="fill:rgb(42,74,180);fill-opacity:0.93;stroke:rgb(227,227,227);stroke-opacity:0.55;stroke-width:3.2px;"/>
                    </g>
                    <g transform="matrix(0.999672,0.0256283,-0.0256283,0.999672,731.408,-154.146)">
                        <path d="M1795.1,359.058L2005.4,443.401L2215.7,358.494" style="fill:none;stroke:rgb(227,227,227);stroke-opacity:0.55;stroke-width:3.2px;"/>
                    </g>
                    <g transform="matrix(0.999672,0.0256283,-0.0256283,0.999672,731.408,-154.146)">
                        <path d="M2005.4,174.661L2005.4,1101.18" style="fill:none;stroke:rgb(227,227,227);stroke-opacity:0.55;stroke-width:3.2px;"/>
                    </g>
                </g>
                <g id="Crystal9" serif:id="Crystal" transform="matrix(0.22651,0.0307781,-0.0307781,0.22651,2289.67,908.028)">
                    <g transform="matrix(0.999672,0.0256283,-0.0256283,0.999672,731.408,-154.146)">
                        <path d="M2005.4,174.661L2215.7,358.972L2118.78,1035.72L2005.4,1101.18L1889.9,1035.72L1795.1,358.972L2005.4,174.661Z" style="fill:rgb(42,74,180);fill-opacity:0.93;stroke:rgb(227,227,227);stroke-opacity:0.55;stroke-width:3.2px;"/>
                    </g>
                    <g transform="matrix(0.999672,0.0256283,-0.0256283,0.999672,731.408,-154.146)">
                        <path d="M1795.1,359.058L2005.4,443.401L2215.7,358.494" style="fill:none;stroke:rgb(227,227,227);stroke-opacity:0.55;stroke-width:3.2px;"/>
                    </g>
                    <g transform="matrix(0.999672,0.0256283,-0.0256283,0.999672,731.408,-154.146)">
                        <path d="M2005.4,174.661L2005.4,1101.18" style="fill:none;stroke:rgb(227,227,227);stroke-opacity:0.55;stroke-width:3.2px;"/>
                    </g>
                </g>
                <g id="Crystal10" serif:id="Crystal" transform="matrix(0.207028,-0.0327891,0.0327891,0.207028,2262.05,1121.01)">
                    <g transform="matrix(0.999672,0.0256283,-0.0256283,0.999672,731.408,-154.146)">
                        <path d="M2005.4,174.661L2215.7,358.972L2118.78,1035.72L2005.4,1101.18L1889.9,1035.72L1795.1,358.972L2005.4,174.661Z" style="fill:rgb(42,74,180);fill-opacity:0.93;stroke:rgb(227,227,227);stroke-opacity:0.55;stroke-width:3.2px;"/>
                    </g>
                    <g transform="matrix(0.999672,0.0256283,-0.0256283,0.999672,731.408,-154.146)">
                        <path d="M1795.1,359.058L2005.4,443.401L2215.7,358.494" style="fill:none;stroke:rgb(227,227,227);stroke-opacity:0.55;stroke-width:3.2px;"/>
                    </g>
                    <g transform="matrix(0.999672,0.0256283,-0.0256283,0.999672,731.408,-154.146)">
                        <path d="M2005.4,174.661L2005.4,1101.18" style="fill:none;stroke:rgb(227,227,227);stroke-opacity:0.55;stroke-width:3.2px;"/>
                    </g>
                </g>
                <g id="Crystal11" serif:id="Crystal" transform="matrix(-0.0618718,0.0361284,0.0306543,0.0524971,2965.04,1082.29)">
                    <g transform="matrix(0.999672,0.0256283,-0.0256283,0.999672,731.408,-154.146)">
                        <path d="M2005.4,174.661L2215.7,358.972L2118.78,1035.72L2005.4,1101.18L1889.9,1035.72L1795.1,358.972L2005.4,174.661Z" style="fill:rgb(42,74,180);fill-opacity:0.93;stroke:rgb(227,227,227);stroke-opacity:0.55;stroke-width:3.2px;"/>
                    </g>
                    <g transform="matrix(0.999672,0.0256283,-0.0256283,0.999672,731.408,-154.146)">
                        <path d="M1795.1,359.058L2005.4,443.401L2215.7,358.494" style="fill:none;stroke:rgb(227,227,227);stroke-opacity:0.55;stroke-width:3.2px;"/>
                    </g>
                    <g transform="matrix(0.999672,0.0256283,-0.0256283,0.999672,731.408,-154.146)">
                        <path d="M2005.4,174.661L2005.4,1101.18" style="fill:none;stroke:rgb(227,227,227);stroke-opacity:0.55;stroke-width:3.2px;"/>
                    </g>
                </g>
                <g id="Crystal12" serif:id="Crystal" transform="matrix(0.0603952,0.0163924,-0.0139087,0.0512443,2724.35,1134.12)">
                    <g transform="matrix(0.999672,0.0256283,-0.0256283,0.999672,731.408,-154.146)">
                        <path d="M2005.4,174.661L2215.7,358.972L2118.78,1035.72L2005.4,1101.18L1889.9,1035.72L1795.1,358.972L2005.4,174.661Z" style="fill:rgb(42,74,180);fill-opacity:0.93;stroke:rgb(227,227,227);stroke-opacity:0.55;stroke-width:3.2px;"/>
                    </g>
                    <g transform="matrix(0.999672,0.0256283,-0.0256283,0.999672,731.408,-154.146)">
                        <path d="M1795.1,359.058L2005.4,443.401L2215.7,358.494" style="fill:none;stroke:rgb(227,227,227);stroke-opacity:0.55;stroke-width:3.2px;"/>
                    </g>
                    <g transform="matrix(0.999672,0.0256283,-0.0256283,0.999672,731.408,-154.146)">
                        <path d="M2005.4,174.661L2005.4,1101.18" style="fill:none;stroke:rgb(227,227,227);stroke-opacity:0.55;stroke-width:3.2px;"/>
                    </g>
                </g>
            </g>
        </g>
    </g>
</svg>
