<?xml version="1.0" encoding="UTF-8" standalone="no"?>
<!DOCTYPE svg PUBLIC "-//W3C//DTD SVG 1.1//EN" "http://www.w3.org/Graphics/SVG/1.1/DTD/svg11.dtd">
<svg width="100%" height="100%" viewBox="0 0 658 820" version="1.1" xmlns="http://www.w3.org/2000/svg" xmlns:xlink="http://www.w3.org/1999/xlink" xml:space="preserve" xmlns:serif="http://www.serif.com/" style="fill-rule:evenodd;clip-rule:evenodd;stroke-linecap:round;stroke-linejoin:round;stroke-miterlimit:1.5;">
    <g transform="matrix(1,0,0,1,-3394.61,-977.483)">
        <g transform="matrix(1.12785,0,0,1.12785,3563.81,1798.88)">
            <g id="cyclops">
                <g transform="matrix(-0.356018,0.616641,-0.48263,-0.278646,888.95,-775.539)">
                    <rect x="1081.69" y="279.859" width="43.306" height="508.503" style="fill:rgb(85,40,117);"/>
                </g>
                <g transform="matrix(-0.356018,0.616641,-0.48263,-0.278646,888.95,-842.839)">
                    <rect x="1081.69" y="279.859" width="43.306" height="508.503" style="fill:rgb(85,40,117);"/>
                </g>
                <g transform="matrix(-0.356018,0.616641,-0.48263,-0.278646,888.95,-793.493)">
                    <rect x="1081.69" y="279.859" width="43.306" height="508.503" style="fill:rgb(120,71,155);"/>
                </g>
                <g transform="matrix(-0.356018,0.616641,-0.48263,-0.278646,888.95,-860.794)">
                    <rect x="1081.69" y="279.859" width="43.306" height="508.503" style="fill:rgb(120,71,155);"/>
                </g>
                <g transform="matrix(-0.676312,0,0,0.662159,851.738,-1648.2)">
                    <path d="M1046.9,2126.61C1046.67,2121.77 1047.02,2116.93 1047.97,2112.12L1083.58,1631.49L1084.46,1631.49C1092.34,1561.59 1151.94,1507.19 1224.19,1507.19C1296.44,1507.19 1356.04,1561.59 1363.92,1631.49L1364.8,1631.49L1401.55,2126.37L1401.49,2126.37C1402.66,2153.03 1385.95,2179.66 1351.22,2199.71C1282.88,2239.17 1170.47,2238.34 1100.37,2197.86C1066.41,2178.26 1048.57,2152.93 1046.95,2127.54L1046.83,2127.54L1046.9,2126.61Z" style="fill:rgb(92,41,174);"/>
                    <clipPath id="_clip1">
                        <path d="M1046.9,2126.61C1046.67,2121.77 1047.02,2116.93 1047.97,2112.12L1083.58,1631.49L1084.46,1631.49C1092.34,1561.59 1151.94,1507.19 1224.19,1507.19C1296.44,1507.19 1356.04,1561.59 1363.92,1631.49L1364.8,1631.49L1401.55,2126.37L1401.49,2126.37C1402.66,2153.03 1385.95,2179.66 1351.22,2199.71C1282.88,2239.17 1170.47,2238.34 1100.37,2197.86C1066.41,2178.26 1048.57,2152.93 1046.95,2127.54L1046.83,2127.54L1046.9,2126.61Z"/>
                    </clipPath>
                    <g clip-path="url(#_clip1)">
                        <g transform="matrix(-3.76204,0,0,15.3336,11549.2,-4956.25)">
                            <rect x="2683.15" y="406.362" width="76.305" height="66.587" style="fill:url(#_Linear2);"/>
                        </g>
                        <g transform="matrix(-1.69234,3.92371,10.1309,4.55833,1373.7,-10811.4)">
                            <rect x="2738.16" y="393.709" width="76.047" height="81.282" style="fill:url(#_Linear3);"/>
                        </g>
                        <g transform="matrix(-5.0026,-0.459227,-0.990973,11.2616,15565.9,-1710.22)">
                            <rect x="2738.16" y="393.709" width="76.047" height="81.282" style="fill:url(#_Linear4);"/>
                        </g>
                        <g transform="matrix(0.0204315,2.63933,7.16695,-0.0578774,-1969.18,-5368.71)">
                            <path d="M2937.73,395.252L2803.26,400.174C2857.63,417.185 2863.04,454.495 2800.47,474.499L2937.73,475.632L2937.73,395.252Z" style="fill:url(#_Linear5);"/>
                        </g>
                        <g transform="matrix(-1.05282,0,0,1.07532,2575.16,1302.48)">
                            <path d="M1360.07,768.928C1360.07,768.849 1360.08,768.771 1360.08,768.693C1360.19,749.506 1373.93,726.251 1390.84,716.691C1407.75,707.131 1421.5,714.849 1421.61,733.909L1421.68,733.87L1421.68,817.622C1401.14,842.17 1380.61,854.019 1360.07,852.444L1360.07,768.928Z" style="fill:rgb(92,41,174);"/>
                            <clipPath id="_clip6">
                                <path d="M1360.07,768.928C1360.07,768.849 1360.08,768.771 1360.08,768.693C1360.19,749.506 1373.93,726.251 1390.84,716.691C1407.75,707.131 1421.5,714.849 1421.61,733.909L1421.68,733.87L1421.68,817.622C1401.14,842.17 1380.61,854.019 1360.07,852.444L1360.07,768.928Z"/>
                            </clipPath>
                            <g clip-path="url(#_clip6)">
                                <g transform="matrix(1,0,0,1,-28.9336,-16.7048)">
                                    <path d="M1360.07,768.928C1360.07,768.849 1360.08,768.771 1360.08,768.693C1360.19,749.506 1373.93,726.251 1390.84,716.691C1407.75,707.131 1421.5,714.849 1421.61,733.909L1421.68,733.87L1421.68,835.68C1394.77,851.261 1380.61,854.019 1360.07,852.444L1360.07,768.928Z" style="fill:rgb(73,38,129);"/>
                                </g>
                            </g>
                        </g>
                    </g>
                </g>
                <g transform="matrix(0.780157,-0.450424,0,0.966428,-1109.92,-233.479)">
                    <circle cx="1529.24" cy="467.575" r="42.171" style="fill:rgb(92,41,174);"/>
                    <clipPath id="_clip7">
                        <circle cx="1529.24" cy="467.575" r="42.171"/>
                    </clipPath>
                    <g clip-path="url(#_clip7)">
                        <g transform="matrix(1,0,0,1,-16.49,-15.371)">
                            <circle cx="1529.24" cy="467.575" r="42.171" style="fill:rgb(56,14,122);"/>
                        </g>
                        <g transform="matrix(1,0,0,1,-16.49,-15.371)">
                            <circle cx="1529.24" cy="467.575" r="42.171" style="fill:rgb(56,14,122);"/>
                        </g>
                        <g transform="matrix(1,0,0,1,11.0033,12.3878)">
                            <g transform="matrix(1,0,0,1,-29.7795,-27.7587)">
                                <path d="M1524.66,415.882C1549.7,419.662 1571.41,444.3 1571.41,467.575C1571.41,490.85 1552.51,509.747 1529.24,509.747C1505.96,509.747 1480.81,489.452 1476.84,464.546C1472.26,435.878 1489.54,410.578 1524.66,415.882Z" style="fill:rgb(251,200,253);"/>
                            </g>
                            <g transform="matrix(2.21544,1.1985,-0.443399,1.55171,-4669.59,-4247.75)">
                                <ellipse cx="2942.61" cy="755.947" rx="7.415" ry="10.875" style="fill:rgb(80,138,136);"/>
                            </g>
                            <g transform="matrix(2.21544,1.1985,-0.443399,1.55171,-4669.59,-4247.75)">
                                <ellipse cx="2942.61" cy="755.947" rx="7.415" ry="10.875" style="fill:rgb(80,138,136);"/>
                            </g>
                            <g transform="matrix(1.76337,0.941259,-0.255844,1.00315,-3476.02,-3074.03)">
                                <ellipse cx="2942.61" cy="755.947" rx="7.415" ry="10.875" style="fill:url(#_Linear8);"/>
                            </g>
                            <g transform="matrix(1.05288,0.136193,0.757162,1.02087,-1785.86,-247.891)">
                                <ellipse cx="2930.96" cy="283.067" rx="4.623" ry="4.24" style="fill:rgb(249,253,255);fill-opacity:0.78;"/>
                            </g>
                        </g>
                    </g>
                </g>
                <g transform="matrix(0.135148,0,0,0.135148,-22.6359,-1007.61)">
                    <g transform="matrix(1.31256,0.757804,-1.30436,0.753074,2845.7,-75.4879)">
                        <circle cx="954.346" cy="2868.69" r="143.753" style="fill:rgb(201,140,245);"/>
                    </g>
                    <g transform="matrix(0.866025,0.5,-0.86062,0.496879,2000.52,856.332)">
                        <circle cx="954.346" cy="2868.69" r="143.753" style="fill:rgb(211,167,242);"/>
                    </g>
                    <g transform="matrix(1,0,0,1,-486.339,-38.3936)">
                        <path d="M677.411,2254.94C685.401,2170.95 756.475,2105.16 842.852,2105.16C929.229,2105.16 1000.3,2170.95 1008.29,2254.94L1009.04,2254.94L1009.04,2749.82L1008.99,2749.82C1010.09,2774.8 994.43,2799.75 961.879,2818.54C897.843,2855.51 792.52,2854.74 726.827,2816.81C694.527,2798.16 677.783,2773.98 676.718,2749.82L676.664,2749.82L676.664,2254.94L677.411,2254.94Z" style="fill:rgb(180,81,250);"/>
                    </g>
                    <g transform="matrix(0.601648,0,0,0.601648,142.479,954.92)">
                        <g transform="matrix(-0.866025,-0.5,0.86062,-0.496879,-514.028,3722.11)">
                            <path d="M979.79,1829.96L700.183,1718.38L811.066,1998.69L979.79,1998.69L979.79,1829.96Z" style="fill:rgb(199,129,249);"/>
                            <clipPath id="_clip9">
                                <path d="M979.79,1829.96L700.183,1718.38L811.066,1998.69L979.79,1998.69L979.79,1829.96Z"/>
                            </clipPath>
                            <g clip-path="url(#_clip9)">
                                <g transform="matrix(-0.57735,0.580977,-1,-1.00628,3385.24,3091.98)">
                                    <path d="M1143.19,2025.04L1142.73,1745.7" style="fill:none;stroke:rgb(180,81,250);stroke-width:10.9px;"/>
                                </g>
                            </g>
                        </g>
                        <g transform="matrix(-0.866025,-0.5,0.86062,-0.496879,-514.028,3722.11)">
                            <path d="M979.79,1829.96L811.509,1829.96L811.066,1998.69L979.263,1998.69L979.79,1829.96Z" style="fill:rgb(200,123,255);stroke:rgb(180,81,250);stroke-width:15.47px;"/>
                        </g>
                    </g>
                    <g transform="matrix(0.866025,0.5,-0.86062,0.496879,1230.06,1315.28)">
                        <path d="M979.79,1829.96L700.183,1718.38L811.066,1998.69L979.79,1998.69L979.79,1829.96Z" style="fill:rgb(102,41,147);"/>
                        <clipPath id="_clip10">
                            <path d="M979.79,1829.96L700.183,1718.38L811.066,1998.69L979.79,1998.69L979.79,1829.96Z"/>
                        </clipPath>
                        <g clip-path="url(#_clip10)">
                            <g transform="matrix(-0.57735,0.580977,-1.81459,-1.82599,5034.82,4751.92)">
                                <path d="M1143.19,2025.04L1143.19,1871.53" style="fill:none;stroke:rgb(180,81,250);stroke-width:4.48px;"/>
                            </g>
                        </g>
                    </g>
                    <g transform="matrix(0.521042,0.300824,-0.51779,0.298946,882.814,1460.11)">
                        <path d="M979.79,1829.96L700.183,1718.38L811.066,1998.69L979.79,1998.69L979.79,1829.96Z" style="fill:rgb(211,167,242);"/>
                        <clipPath id="_clip11">
                            <path d="M979.79,1829.96L700.183,1718.38L811.066,1998.69L979.79,1998.69L979.79,1829.96Z"/>
                        </clipPath>
                        <g clip-path="url(#_clip11)">
                            <g transform="matrix(-0.57735,0.580977,-1.81459,-1.82599,5034.82,4751.92)">
                                <path d="M1143.19,2025.04L1142.27,1871.24" style="fill:none;stroke:rgb(180,81,250);stroke-width:7.44px;"/>
                            </g>
                        </g>
                    </g>
                    <g transform="matrix(1.31256,0.757804,-1.30436,0.753074,2845.7,-75.4879)">
                        <circle cx="954.346" cy="2868.69" r="143.753" style="fill:rgb(201,140,245);"/>
                    </g>
                    <g transform="matrix(0.866025,0.5,-0.86062,0.496879,2000.52,856.332)">
                        <circle cx="954.346" cy="2868.69" r="143.753" style="fill:rgb(211,167,242);"/>
                    </g>
                    <g transform="matrix(1,0,0,1,-486.339,-38.3936)">
                        <path d="M677.411,2254.94C685.401,2170.95 756.475,2105.16 842.852,2105.16C929.229,2105.16 1000.3,2170.95 1008.29,2254.94L1009.04,2254.94L1009.04,2749.82L1008.99,2749.82C1010.09,2774.8 994.43,2799.75 961.879,2818.54C897.843,2855.51 792.52,2854.74 726.827,2816.81C694.527,2798.16 677.783,2773.98 676.718,2749.82L676.664,2749.82L676.664,2254.94L677.411,2254.94Z" style="fill:rgb(180,81,250);"/>
                    </g>
                    <g transform="matrix(0.601648,0,0,0.601648,142.479,938.524)">
                        <g transform="matrix(-0.866025,-0.5,0.86062,-0.496879,-514.028,3722.11)">
                            <path d="M979.79,1829.96L700.183,1718.38L811.066,1998.69L979.79,1998.69L979.79,1829.96Z" style="fill:rgb(199,129,249);"/>
                            <clipPath id="_clip12">
                                <path d="M979.79,1829.96L700.183,1718.38L811.066,1998.69L979.79,1998.69L979.79,1829.96Z"/>
                            </clipPath>
                            <g clip-path="url(#_clip12)">
                                <g transform="matrix(-0.57735,0.580977,-1,-1.00628,3385.24,3091.98)">
                                    <path d="M1143.19,2025.04L1142.73,1745.7" style="fill:none;stroke:rgb(180,81,250);stroke-width:10.9px;"/>
                                </g>
                            </g>
                        </g>
                        <g transform="matrix(-0.866025,-0.5,0.86062,-0.496879,-514.028,3722.11)">
                            <path d="M979.79,1829.96L811.509,1829.96L811.066,1998.69L979.263,1998.69L979.79,1829.96Z" style="fill:rgb(200,123,255);stroke:rgb(180,81,250);stroke-width:15.47px;"/>
                        </g>
                    </g>
                    <g transform="matrix(0.866025,0.5,-0.86062,0.496879,1230.06,1315.28)">
                        <path d="M979.79,1829.96L700.183,1718.38L811.066,1998.69L979.79,1998.69L979.79,1829.96Z" style="fill:rgb(102,41,147);"/>
                        <clipPath id="_clip13">
                            <path d="M979.79,1829.96L700.183,1718.38L811.066,1998.69L979.79,1998.69L979.79,1829.96Z"/>
                        </clipPath>
                        <g clip-path="url(#_clip13)">
                            <g transform="matrix(-0.57735,0.580977,-1.81459,-1.82599,5034.82,4751.92)">
                                <path d="M1143.19,2025.04L1143.19,1871.53" style="fill:none;stroke:rgb(180,81,250);stroke-width:4.48px;"/>
                            </g>
                        </g>
                    </g>
                    <g transform="matrix(0.521042,0.300824,-0.51779,0.298946,882.814,1436.05)">
                        <path d="M979.79,1829.96L700.183,1718.38L811.066,1998.69L979.79,1998.69L979.79,1829.96Z" style="fill:rgb(211,167,242);"/>
                        <clipPath id="_clip14">
                            <path d="M979.79,1829.96L700.183,1718.38L811.066,1998.69L979.79,1998.69L979.79,1829.96Z"/>
                        </clipPath>
                        <g clip-path="url(#_clip14)">
                            <g transform="matrix(-0.57735,0.580977,-1.81459,-1.82599,5034.82,4751.92)">
                                <path d="M1143.19,2025.04L1142.27,1871.24" style="fill:none;stroke:rgb(180,81,250);stroke-width:7.44px;"/>
                            </g>
                        </g>
                    </g>
                </g>
                <g transform="matrix(0.712036,0,0,0.712036,-1795.66,-752.23)">
                    <g transform="matrix(1,0,0,1,-13.6575,-6.12123)">
                        <path d="M3100.55,634.729C3077.36,592.291 2991.67,600.051 2978.73,632.011C2964.03,668.352 2934.3,761.483 2947.06,809.163C2947.33,810.159 2947.69,811.114 2947.91,812.089C2964.59,886.737 3115.58,887.498 3130.75,811.289C3130.98,810.152 3131.34,809.009 3131.6,807.808C3141.16,763.891 3119.09,668.673 3100.55,634.729Z" style="fill:rgb(92,41,174);"/>
                        <clipPath id="_clip15">
                            <path d="M3100.55,634.729C3077.36,592.291 2991.67,600.051 2978.73,632.011C2964.03,668.352 2934.3,761.483 2947.06,809.163C2947.33,810.159 2947.69,811.114 2947.91,812.089C2964.59,886.737 3115.58,887.498 3130.75,811.289C3130.98,810.152 3131.34,809.009 3131.6,807.808C3141.16,763.891 3119.09,668.673 3100.55,634.729Z"/>
                        </clipPath>
                        <g clip-path="url(#_clip15)">
                            <g transform="matrix(2.26266,0,0,5.98497,-3129.11,-1957.84)">
                                <rect x="2683.15" y="406.362" width="76.305" height="66.587" style="fill:url(#_Linear16);"/>
                            </g>
                            <g transform="matrix(1.26664,0,0,1.50669,-806.221,-306.557)">
                                <path d="M3076.94,615.118C3061.56,604.642 3046.88,605.265 3030.09,605.265C2996.64,605.265 2981.53,622.567 2987.21,634.822C2993.94,649.355 3017.45,653.304 3033.9,653.304C3093.39,653.304 3088.42,622.933 3076.94,615.118Z" style="fill:rgb(139,169,205);"/>
                                <clipPath id="_clip17">
                                    <path d="M3076.94,615.118C3061.56,604.642 3046.88,605.265 3030.09,605.265C2996.64,605.265 2981.53,622.567 2987.21,634.822C2993.94,649.355 3017.45,653.304 3033.9,653.304C3093.39,653.304 3088.42,622.933 3076.94,615.118Z"/>
                                </clipPath>
                                <g clip-path="url(#_clip17)">
                                    <g transform="matrix(1.29948,0.255867,-0.443676,3.40378,-301.325,-1603.79)">
                                        <rect x="2683.15" y="406.362" width="76.305" height="66.587" style="fill:url(#_Linear18);"/>
                                    </g>
                                </g>
                            </g>
                            <g transform="matrix(0.167949,2.15584,-4.27095,0.332724,4457.01,-5329.68)">
                                <rect x="2738.16" y="393.709" width="76.047" height="81.282" style="fill:url(#_Linear19);"/>
                            </g>
                            <g transform="matrix(1.60245,-0.144023,0.383477,4.26669,-1526.46,-744.076)">
                                <rect x="2738.16" y="393.709" width="76.047" height="81.282" style="fill:url(#_Linear20);"/>
                            </g>
                            <g transform="matrix(0.12362,0.99233,-2.75221,0.342859,3895.28,-2126.07)">
                                <path d="M2937.73,395.252L2803.26,400.174C2857.63,417.185 2863.04,454.495 2800.47,474.499L2937.73,475.632L2937.73,395.252Z" style="fill:url(#_Linear21);"/>
                            </g>
                        </g>
                    </g>
                    <g transform="matrix(1,0,0,1,-156.128,-2.22708)">
                        <g>
                            <g transform="matrix(1.11785,0.012361,-0.0168674,1.52538,-177.137,-441.32)">
                                <ellipse cx="2947.04" cy="758.262" rx="12.791" ry="15.321" style="fill:rgb(251,200,253);"/>
                            </g>
                            <g transform="matrix(0.658255,0.0374045,-0.0456051,0.802571,1209.83,38.2969)">
                                <ellipse cx="2942.61" cy="755.947" rx="7.415" ry="10.875" style="fill:rgb(70,169,208);"/>
                            </g>
                            <g transform="matrix(0.753806,0.103601,-0.150867,1.09771,1007.83,-380.376)">
                                <ellipse cx="2942.61" cy="755.947" rx="7.415" ry="10.875" style="fill:rgb(80,138,136);"/>
                            </g>
                            <g transform="matrix(0.753806,0.103601,-0.150867,1.09771,1007.83,-380.376)">
                                <ellipse cx="2942.61" cy="755.947" rx="7.415" ry="10.875" style="fill:rgb(80,138,136);"/>
                            </g>
                            <g transform="matrix(0.59999,0.0745408,-0.0870511,0.700687,1413.94,5.07647)">
                                <ellipse cx="2942.61" cy="755.947" rx="7.415" ry="10.875" style="fill:url(#_Linear22);"/>
                            </g>
                            <g transform="matrix(0.358242,-0.221321,0.257625,0.417006,1989.02,1277.62)">
                                <ellipse cx="2930.96" cy="283.067" rx="4.623" ry="4.24" style="fill:rgb(249,253,255);fill-opacity:0.78;"/>
                            </g>
                        </g>
                        <g>
                            <g transform="matrix(1.11785,0.012361,-0.0168674,1.52538,-177.137,-441.32)">
                                <ellipse cx="2947.04" cy="758.262" rx="12.791" ry="15.321" style="fill:rgb(251,200,253);"/>
                            </g>
                            <g transform="matrix(0.658255,0.0374045,-0.0456051,0.802571,1209.83,38.2969)">
                                <ellipse cx="2942.61" cy="755.947" rx="7.415" ry="10.875" style="fill:rgb(70,169,208);"/>
                            </g>
                            <g transform="matrix(0.753806,0.103601,-0.150867,1.09771,1007.83,-380.376)">
                                <ellipse cx="2942.61" cy="755.947" rx="7.415" ry="10.875" style="fill:rgb(80,138,136);"/>
                            </g>
                            <g transform="matrix(0.753806,0.103601,-0.150867,1.09771,1007.83,-380.376)">
                                <ellipse cx="2942.61" cy="755.947" rx="7.415" ry="10.875" style="fill:rgb(80,138,136);"/>
                            </g>
                            <g transform="matrix(0.59999,0.0745408,-0.0870511,0.700687,1413.94,5.07647)">
                                <ellipse cx="2942.61" cy="755.947" rx="7.415" ry="10.875" style="fill:url(#_Linear23);"/>
                            </g>
                            <g transform="matrix(0.358242,-0.221321,0.257625,0.417006,1989.02,1277.62)">
                                <ellipse cx="2930.96" cy="283.067" rx="4.623" ry="4.24" style="fill:rgb(249,253,255);fill-opacity:0.78;"/>
                            </g>
                        </g>
                    </g>
                    <g>
                        <g transform="matrix(0.45836,1.80808,-1.52742,0.38721,2835.06,-4851.33)">
                            <ellipse cx="2947.04" cy="758.262" rx="12.791" ry="15.321" style="fill:rgb(251,200,253);"/>
                        </g>
                        <g transform="matrix(0.45836,1.80808,-1.52742,0.38721,2835.06,-4851.33)">
                            <ellipse cx="2947.04" cy="758.262" rx="12.791" ry="15.321" style="fill:rgb(251,200,253);"/>
                        </g>
                        <g transform="matrix(0.373376,1.39689,-1.1051,0.295383,2765.61,-3558.17)">
                            <ellipse cx="2942.61" cy="755.947" rx="7.415" ry="10.875" style="fill:rgb(80,138,136);"/>
                        </g>
                        <g transform="matrix(0.373376,1.39689,-1.1051,0.295383,2765.61,-3558.17)">
                            <ellipse cx="2942.61" cy="755.947" rx="7.415" ry="10.875" style="fill:rgb(80,138,136);"/>
                        </g>
                        <g transform="matrix(0.619557,0.497952,-0.442329,0.55035,1540.39,-1105.66)">
                            <ellipse cx="2942.61" cy="755.947" rx="7.415" ry="10.875" style="fill:url(#_Linear24);"/>
                        </g>
                        <g transform="matrix(0.627826,0,0,0.693844,1185.88,573.396)">
                            <ellipse cx="2930.96" cy="283.067" rx="4.623" ry="4.24" style="fill:rgb(249,253,255);fill-opacity:0.78;"/>
                        </g>
                    </g>
                    <g>
                        <g transform="matrix(1.11785,0.012361,-0.0168674,1.52538,-177.137,-441.32)">
                            <ellipse cx="2947.04" cy="758.262" rx="12.791" ry="15.321" style="fill:rgb(251,200,253);"/>
                        </g>
                        <g transform="matrix(0.658255,0.0374045,-0.0456051,0.802571,1209.83,38.2969)">
                            <ellipse cx="2942.61" cy="755.947" rx="7.415" ry="10.875" style="fill:rgb(70,169,208);"/>
                        </g>
                        <g transform="matrix(0.753806,0.103601,-0.150867,1.09771,1007.83,-380.376)">
                            <ellipse cx="2942.61" cy="755.947" rx="7.415" ry="10.875" style="fill:rgb(80,138,136);"/>
                        </g>
                        <g transform="matrix(0.753806,0.103601,-0.150867,1.09771,1007.83,-380.376)">
                            <ellipse cx="2942.61" cy="755.947" rx="7.415" ry="10.875" style="fill:rgb(80,138,136);"/>
                        </g>
                        <g transform="matrix(0.59999,0.0745408,-0.0870511,0.700687,1413.94,5.07647)">
                            <ellipse cx="2942.61" cy="755.947" rx="7.415" ry="10.875" style="fill:url(#_Linear25);"/>
                        </g>
                        <g transform="matrix(0.358242,-0.221321,0.257625,0.417006,1989.02,1277.62)">
                            <ellipse cx="2930.96" cy="283.067" rx="4.623" ry="4.24" style="fill:rgb(249,253,255);fill-opacity:0.78;"/>
                        </g>
                    </g>
                </g>
                <g transform="matrix(0.352986,0.618382,-0.130755,0.0746375,-423.791,-908.484)">
                    <rect x="1081.69" y="279.859" width="43.306" height="508.503" style="fill:rgb(85,40,117);"/>
                </g>
                <g transform="matrix(0.352986,0.618382,-0.130755,0.0746375,-423.791,-975.784)">
                    <rect x="1081.69" y="279.859" width="43.306" height="508.503" style="fill:rgb(85,40,117);"/>
                </g>
                <g transform="matrix(0.352986,0.618382,-0.130755,0.0746375,-423.791,-926.438)">
                    <rect x="1081.69" y="279.859" width="43.306" height="508.503" style="fill:rgb(120,71,155);"/>
                </g>
                <g transform="matrix(0.352986,0.618382,-0.130755,0.0746375,-423.791,-993.738)">
                    <rect x="1081.69" y="279.859" width="43.306" height="508.503" style="fill:rgb(120,71,155);"/>
                </g>
                <g transform="matrix(-0.356018,0.616641,-0.503636,-0.290774,647.55,-630.291)">
                    <rect x="1081.69" y="279.859" width="43.306" height="508.503" style="fill:rgb(85,40,117);"/>
                </g>
                <g transform="matrix(-0.356018,0.616641,-0.503636,-0.290774,647.55,-697.592)">
                    <rect x="1081.69" y="279.859" width="43.306" height="508.503" style="fill:rgb(85,40,117);"/>
                </g>
                <g transform="matrix(-0.356018,0.616641,-0.503636,-0.290774,647.55,-648.246)">
                    <rect x="1081.69" y="279.859" width="43.306" height="508.503" style="fill:rgb(120,71,155);"/>
                </g>
                <g transform="matrix(-0.356018,0.616641,-0.503636,-0.290774,647.55,-715.546)">
                    <rect x="1081.69" y="279.859" width="43.306" height="508.503" style="fill:rgb(120,71,155);"/>
                </g>
                <g transform="matrix(0.712036,0,0,0.712036,-2032.6,-615.444)">
                    <g transform="matrix(1,0,0,1,-13.6575,-6.12123)">
                        <path d="M3100.55,634.729C3077.36,592.291 2991.67,600.051 2978.73,632.011C2964.03,668.352 2934.3,761.483 2947.06,809.163C2947.33,810.159 2947.69,811.114 2947.91,812.089C2964.59,886.737 3115.58,887.498 3130.75,811.289C3130.98,810.152 3131.34,809.009 3131.6,807.808C3141.16,763.891 3119.09,668.673 3100.55,634.729Z" style="fill:rgb(92,41,174);"/>
                        <clipPath id="_clip26">
                            <path d="M3100.55,634.729C3077.36,592.291 2991.67,600.051 2978.73,632.011C2964.03,668.352 2934.3,761.483 2947.06,809.163C2947.33,810.159 2947.69,811.114 2947.91,812.089C2964.59,886.737 3115.58,887.498 3130.75,811.289C3130.98,810.152 3131.34,809.009 3131.6,807.808C3141.16,763.891 3119.09,668.673 3100.55,634.729Z"/>
                        </clipPath>
                        <g clip-path="url(#_clip26)">
                            <g transform="matrix(2.26266,0,0,5.98497,-3129.11,-1957.84)">
                                <rect x="2683.15" y="406.362" width="76.305" height="66.587" style="fill:url(#_Linear27);"/>
                            </g>
                            <g transform="matrix(1.26664,0,0,1.50717,-806.221,-306.874)">
                                <path d="M3076.94,615.118C3061.56,604.642 3046.88,605.265 3030.09,605.265C2996.64,605.265 2981.53,622.567 2987.21,634.822C2993.94,649.355 3017.45,653.304 3033.9,653.304C3093.39,653.304 3088.42,622.933 3076.94,615.118Z" style="fill:rgb(139,169,205);"/>
                                <clipPath id="_clip28">
                                    <path d="M3076.94,615.118C3061.56,604.642 3046.88,605.265 3030.09,605.265C2996.64,605.265 2981.53,622.567 2987.21,634.822C2993.94,649.355 3017.45,653.304 3033.9,653.304C3093.39,653.304 3088.42,622.933 3076.94,615.118Z"/>
                                </clipPath>
                                <g clip-path="url(#_clip28)">
                                    <g transform="matrix(1.29948,0.255867,-0.443676,3.40378,-301.325,-1603.79)">
                                        <rect x="2683.15" y="406.362" width="76.305" height="66.587" style="fill:url(#_Linear29);"/>
                                    </g>
                                </g>
                            </g>
                            <g transform="matrix(0.167949,2.15584,-4.27095,0.332724,4457.01,-5329.68)">
                                <rect x="2738.16" y="393.709" width="76.047" height="81.282" style="fill:url(#_Linear30);"/>
                            </g>
                            <g transform="matrix(1.60245,-0.144023,0.383477,4.26669,-1526.46,-744.076)">
                                <rect x="2738.16" y="393.709" width="76.047" height="81.282" style="fill:url(#_Linear31);"/>
                            </g>
                            <g transform="matrix(0.12362,0.99233,-2.75221,0.342859,3895.28,-2126.07)">
                                <path d="M2937.73,395.252L2803.26,400.174C2857.63,417.185 2863.04,454.495 2800.47,474.499L2937.73,475.632L2937.73,395.252Z" style="fill:url(#_Linear32);"/>
                            </g>
                        </g>
                    </g>
                    <g>
                        <g transform="matrix(0.45836,1.80808,-1.52742,0.38721,2835.06,-4851.33)">
                            <ellipse cx="2947.04" cy="758.262" rx="12.791" ry="15.321" style="fill:rgb(251,200,253);"/>
                        </g>
                        <g transform="matrix(0.45836,1.80808,-1.52742,0.38721,2835.06,-4851.33)">
                            <ellipse cx="2947.04" cy="758.262" rx="12.791" ry="15.321" style="fill:rgb(251,200,253);"/>
                        </g>
                        <g transform="matrix(0.373376,1.39689,-1.1051,0.295383,2765.61,-3558.17)">
                            <ellipse cx="2942.61" cy="755.947" rx="7.415" ry="10.875" style="fill:rgb(80,138,136);"/>
                        </g>
                        <g transform="matrix(0.373376,1.39689,-1.1051,0.295383,2765.61,-3558.17)">
                            <ellipse cx="2942.61" cy="755.947" rx="7.415" ry="10.875" style="fill:rgb(80,138,136);"/>
                        </g>
                        <g transform="matrix(0.619557,0.497952,-0.442329,0.55035,1540.39,-1105.66)">
                            <ellipse cx="2942.61" cy="755.947" rx="7.415" ry="10.875" style="fill:url(#_Linear33);"/>
                        </g>
                        <g transform="matrix(0.627826,0,0,0.693844,1185.88,573.396)">
                            <ellipse cx="2930.96" cy="283.067" rx="4.623" ry="4.24" style="fill:rgb(249,253,255);fill-opacity:0.78;"/>
                        </g>
                    </g>
                    <g transform="matrix(-0.758118,-0.0683442,-0.0897857,0.995961,5315.81,191.634)">
                        <g transform="matrix(0.45836,1.80808,-1.52742,0.38721,2835.06,-4851.33)">
                            <ellipse cx="2947.04" cy="758.262" rx="12.791" ry="15.321" style="fill:rgb(251,200,253);"/>
                        </g>
                        <g transform="matrix(0.45836,1.80808,-1.52742,0.38721,2835.06,-4851.33)">
                            <ellipse cx="2947.04" cy="758.262" rx="12.791" ry="15.321" style="fill:rgb(251,200,253);"/>
                        </g>
                        <g transform="matrix(0.373376,1.39689,-1.1051,0.295383,2765.61,-3558.17)">
                            <ellipse cx="2942.61" cy="755.947" rx="7.415" ry="10.875" style="fill:rgb(80,138,136);"/>
                        </g>
                        <g transform="matrix(0.373376,1.39689,-1.1051,0.295383,2765.61,-3558.17)">
                            <ellipse cx="2942.61" cy="755.947" rx="7.415" ry="10.875" style="fill:rgb(80,138,136);"/>
                        </g>
                        <g transform="matrix(0.619557,0.497952,-0.442329,0.55035,1540.39,-1105.66)">
                            <ellipse cx="2942.61" cy="755.947" rx="7.415" ry="10.875" style="fill:url(#_Linear34);"/>
                        </g>
                        <g transform="matrix(0.627826,0,0,0.693844,1185.88,573.396)">
                            <ellipse cx="2930.96" cy="283.067" rx="4.623" ry="4.24" style="fill:rgb(249,253,255);fill-opacity:0.78;"/>
                        </g>
                    </g>
                    <g>
                        <g>
                            <g transform="matrix(1.11785,0.012361,-0.0168674,1.52538,-177.137,-441.32)">
                                <ellipse cx="2947.04" cy="758.262" rx="12.791" ry="15.321" style="fill:rgb(251,200,253);"/>
                            </g>
                            <g transform="matrix(0.658255,0.0374045,-0.0456051,0.802571,1209.83,38.2969)">
                                <ellipse cx="2942.61" cy="755.947" rx="7.415" ry="10.875" style="fill:rgb(70,169,208);"/>
                            </g>
                            <g transform="matrix(0.753806,0.103601,-0.150867,1.09771,1007.83,-380.376)">
                                <ellipse cx="2942.61" cy="755.947" rx="7.415" ry="10.875" style="fill:rgb(80,138,136);"/>
                            </g>
                        </g>
                        <g transform="matrix(0.753806,0.103601,-0.150867,1.09771,1007.83,-380.376)">
                            <ellipse cx="2942.61" cy="755.947" rx="7.415" ry="10.875" style="fill:rgb(80,138,136);"/>
                        </g>
                        <g transform="matrix(0.59999,0.0745408,-0.0870511,0.700687,1413.94,5.07647)">
                            <ellipse cx="2942.61" cy="755.947" rx="7.415" ry="10.875" style="fill:url(#_Linear35);"/>
                        </g>
                        <g transform="matrix(0.358242,-0.221321,0.257625,0.417006,1989.02,1277.62)">
                            <ellipse cx="2930.96" cy="283.067" rx="4.623" ry="4.24" style="fill:rgb(249,253,255);fill-opacity:0.78;"/>
                        </g>
                    </g>
                </g>
            </g>
        </g>
    </g>
    <defs>
        <linearGradient id="_Linear2" x1="0" y1="0" x2="1" y2="-0.152536" gradientUnits="userSpaceOnUse" gradientTransform="matrix(56.2419,6.04847,-10.812,31.4629,2703.21,437.612)"><stop offset="0" style="stop-color:rgb(143,166,209);stop-opacity:1"/><stop offset="1" style="stop-color:rgb(143,166,209);stop-opacity:0"/></linearGradient>
        <linearGradient id="_Linear3" x1="0" y1="0" x2="1" y2="0.380181" gradientUnits="userSpaceOnUse" gradientTransform="matrix(-45.806,11.9776,-9.75986,-23.8369,2829.35,428.207)"><stop offset="0" style="stop-color:rgb(80,30,152);stop-opacity:1"/><stop offset="1" style="stop-color:rgb(80,30,152);stop-opacity:0"/></linearGradient>
        <linearGradient id="_Linear4" x1="0" y1="0" x2="1" y2="0.506515" gradientUnits="userSpaceOnUse" gradientTransform="matrix(-65.442,-0.228321,6.15582,-12.2636,2816.37,433.811)"><stop offset="0" style="stop-color:rgb(80,30,152);stop-opacity:1"/><stop offset="1" style="stop-color:rgb(80,30,152);stop-opacity:0"/></linearGradient>
        <linearGradient id="_Linear5" x1="0" y1="0" x2="1" y2="0" gradientUnits="userSpaceOnUse" gradientTransform="matrix(-35.0923,2.23573,-6.20075,-12.6528,2879.42,434.403)"><stop offset="0" style="stop-color:rgb(160,120,231);stop-opacity:0.3"/><stop offset="1" style="stop-color:rgb(160,120,231);stop-opacity:0"/></linearGradient>
        <linearGradient id="_Linear8" x1="0" y1="0" x2="1" y2="0.318985" gradientUnits="userSpaceOnUse" gradientTransform="matrix(13.3359,12.1922,-14.2384,11.4194,2942.72,756.064)"><stop offset="0" style="stop-color:rgb(74,89,97);stop-opacity:1"/><stop offset="1" style="stop-color:rgb(74,89,97);stop-opacity:0"/></linearGradient>
        <linearGradient id="_Linear16" x1="0" y1="0" x2="1" y2="-0.10271" gradientUnits="userSpaceOnUse" gradientTransform="matrix(56.2419,6.04847,-10.812,31.4629,2703.21,437.612)"><stop offset="0" style="stop-color:rgb(143,166,209);stop-opacity:1"/><stop offset="1" style="stop-color:rgb(143,166,209);stop-opacity:0"/></linearGradient>
        <linearGradient id="_Linear18" x1="0" y1="0" x2="1" y2="-0.0531296" gradientUnits="userSpaceOnUse" gradientTransform="matrix(73.0536,-2.02056,4.30621,34.2783,2676.5,453.48)"><stop offset="0" style="stop-color:rgb(194,229,238);stop-opacity:0.160784"/><stop offset="1" style="stop-color:rgb(194,229,238);stop-opacity:0"/></linearGradient>
        <linearGradient id="_Linear19" x1="0" y1="0" x2="1" y2="0.056434" gradientUnits="userSpaceOnUse" gradientTransform="matrix(-54.5279,5.56487,-9.10013,-36.2859,2823.74,429.307)"><stop offset="0" style="stop-color:rgb(80,30,152);stop-opacity:1"/><stop offset="1" style="stop-color:rgb(80,30,152);stop-opacity:0"/></linearGradient>
        <linearGradient id="_Linear20" x1="0" y1="0" x2="1" y2="0.0429852" gradientUnits="userSpaceOnUse" gradientTransform="matrix(-34.9468,0.306623,0.833587,-13.9693,2800.97,435.618)"><stop offset="0" style="stop-color:rgb(80,30,152);stop-opacity:1"/><stop offset="1" style="stop-color:rgb(80,30,152);stop-opacity:0"/></linearGradient>
        <linearGradient id="_Linear21" x1="0" y1="0" x2="1" y2="0" gradientUnits="userSpaceOnUse" gradientTransform="matrix(-25.2499,1.05183,-2.91724,-9.10406,2872.11,435.164)"><stop offset="0" style="stop-color:rgb(160,120,231);stop-opacity:0.3"/><stop offset="1" style="stop-color:rgb(160,120,231);stop-opacity:0"/></linearGradient>
        <linearGradient id="_Linear22" x1="0" y1="0" x2="1" y2="0" gradientUnits="userSpaceOnUse" gradientTransform="matrix(13.3359,12.1922,-14.2384,11.4194,2942.72,756.064)"><stop offset="0" style="stop-color:rgb(74,89,97);stop-opacity:1"/><stop offset="1" style="stop-color:rgb(74,89,97);stop-opacity:0"/></linearGradient>
        <linearGradient id="_Linear23" x1="0" y1="0" x2="1" y2="0" gradientUnits="userSpaceOnUse" gradientTransform="matrix(13.3359,12.1922,-14.2384,11.4194,2942.72,756.064)"><stop offset="0" style="stop-color:rgb(74,89,97);stop-opacity:1"/><stop offset="1" style="stop-color:rgb(74,89,97);stop-opacity:0"/></linearGradient>
        <linearGradient id="_Linear24" x1="0" y1="0" x2="1" y2="0.261829" gradientUnits="userSpaceOnUse" gradientTransform="matrix(13.3359,12.1922,-14.2384,11.4194,2942.72,756.064)"><stop offset="0" style="stop-color:rgb(74,89,97);stop-opacity:1"/><stop offset="1" style="stop-color:rgb(74,89,97);stop-opacity:0"/></linearGradient>
        <linearGradient id="_Linear25" x1="0" y1="0" x2="1" y2="0" gradientUnits="userSpaceOnUse" gradientTransform="matrix(13.3359,12.1922,-14.2384,11.4194,2942.72,756.064)"><stop offset="0" style="stop-color:rgb(74,89,97);stop-opacity:1"/><stop offset="1" style="stop-color:rgb(74,89,97);stop-opacity:0"/></linearGradient>
        <linearGradient id="_Linear27" x1="0" y1="0" x2="1" y2="-0.10271" gradientUnits="userSpaceOnUse" gradientTransform="matrix(56.2419,6.04847,-10.812,31.4629,2703.21,437.612)"><stop offset="0" style="stop-color:rgb(143,166,209);stop-opacity:1"/><stop offset="1" style="stop-color:rgb(143,166,209);stop-opacity:0"/></linearGradient>
        <linearGradient id="_Linear29" x1="0" y1="0" x2="1" y2="-0.0531599" gradientUnits="userSpaceOnUse" gradientTransform="matrix(73.0536,-2.02056,4.30621,34.2783,2676.5,453.48)"><stop offset="0" style="stop-color:rgb(194,229,238);stop-opacity:0.160784"/><stop offset="1" style="stop-color:rgb(194,229,238);stop-opacity:0"/></linearGradient>
        <linearGradient id="_Linear30" x1="0" y1="0" x2="1" y2="0.056434" gradientUnits="userSpaceOnUse" gradientTransform="matrix(-54.5279,5.56487,-9.10013,-36.2859,2823.74,429.307)"><stop offset="0" style="stop-color:rgb(80,30,152);stop-opacity:1"/><stop offset="1" style="stop-color:rgb(80,30,152);stop-opacity:0"/></linearGradient>
        <linearGradient id="_Linear31" x1="0" y1="0" x2="1" y2="0.0429852" gradientUnits="userSpaceOnUse" gradientTransform="matrix(-34.9468,0.306623,0.833587,-13.9693,2800.97,435.618)"><stop offset="0" style="stop-color:rgb(80,30,152);stop-opacity:1"/><stop offset="1" style="stop-color:rgb(80,30,152);stop-opacity:0"/></linearGradient>
        <linearGradient id="_Linear32" x1="0" y1="0" x2="1" y2="0" gradientUnits="userSpaceOnUse" gradientTransform="matrix(-25.2499,1.05183,-2.91724,-9.10406,2872.11,435.164)"><stop offset="0" style="stop-color:rgb(160,120,231);stop-opacity:0.3"/><stop offset="1" style="stop-color:rgb(160,120,231);stop-opacity:0"/></linearGradient>
        <linearGradient id="_Linear33" x1="0" y1="0" x2="1" y2="0.261829" gradientUnits="userSpaceOnUse" gradientTransform="matrix(13.3359,12.1922,-14.2384,11.4194,2942.72,756.064)"><stop offset="0" style="stop-color:rgb(74,89,97);stop-opacity:1"/><stop offset="1" style="stop-color:rgb(74,89,97);stop-opacity:0"/></linearGradient>
        <linearGradient id="_Linear34" x1="0" y1="0" x2="1" y2="0.301513" gradientUnits="userSpaceOnUse" gradientTransform="matrix(13.3359,12.1922,-14.2384,11.4194,2942.72,756.064)"><stop offset="0" style="stop-color:rgb(74,89,97);stop-opacity:1"/><stop offset="1" style="stop-color:rgb(74,89,97);stop-opacity:0"/></linearGradient>
        <linearGradient id="_Linear35" x1="0" y1="0" x2="1" y2="0" gradientUnits="userSpaceOnUse" gradientTransform="matrix(13.3359,12.1922,-14.2384,11.4194,2942.72,756.064)"><stop offset="0" style="stop-color:rgb(74,89,97);stop-opacity:1"/><stop offset="1" style="stop-color:rgb(74,89,97);stop-opacity:0"/></linearGradient>
    </defs>
</svg>
